<svg version="1.1" xmlns="http://www.w3.org/2000/svg" style="display: block;" viewBox="0 0 2000 2000" width="500" height="500" preserveAspectRatio="none">
<path transform="translate(0,0)" fill="rgb(102,59,45)" d="M 1033.01 401.47 C 1043.98 401.545 1058.14 401.96 1068.9 401.286 C 1069.14 413.412 1069.21 425.542 1069.09 437.67 C 1075.98 438.937 1098.05 438.035 1106.15 437.842 L 1106.82 438.146 C 1105.29 444.908 1106.22 466.769 1105.96 474.907 C 1105.98 486.394 1105.6 500.438 1106.04 511.702 C 1118.27 511.811 1130.51 511.752 1142.75 511.526 L 1179.39 511.36 L 1179.8 511.726 C 1203.17 513.06 1230.26 510.882 1252.03 512.784 C 1251.99 522.639 1251.48 538.926 1252.87 548.203 L 1253.14 548.846 C 1277.03 549.551 1301.79 549.061 1325.77 549.22 C 1325.68 560.918 1325.35 573.404 1325.8 585.034 L 1326.07 585.684 C 1339 584.4 1384.97 585.098 1398.43 586.215 C 1399.57 598.335 1398.37 610.332 1399.3 621.364 L 1400.04 621.841 C 1409.96 622.994 1426.36 623.423 1436.23 622.153 C 1437.14 628.156 1436.1 650.685 1435.89 658.054 C 1428.83 658.126 1421.81 658.038 1414.8 658.837 C 1421.81 659.085 1428.82 659.109 1435.83 658.91 L 1472.84 659.053 L 1473.19 695.891 C 1472.52 719.902 1472.91 745.625 1472.93 769.765 C 1472.88 779.211 1472.45 791.967 1473.14 801.138 L 1472.98 805.863 C 1472.12 836.727 1471.89 867.605 1472.29 898.477 C 1472.35 915.672 1472.86 934.976 1471.96 952.009 C 1466.09 952.023 1441.52 951.742 1437.14 952.842 L 1435.96 953.035 L 1435.88 1060.88 C 1423.91 1061.81 1411.91 1062.34 1399.91 1062.45 L 1399 1062.94 L 1399.05 1265.36 L 1399.08 1328.4 C 1399.09 1335.47 1399.74 1350.88 1399.23 1357.2 C 1411.24 1357.17 1423.96 1356.89 1435.91 1357.64 C 1436.04 1380.28 1435.28 1407.91 1436.18 1429.98 L 1436.82 1430.85 C 1448.68 1431.25 1460.72 1431.07 1472.6 1431.02 C 1473.1 1454.14 1473.25 1477.26 1473.05 1500.38 C 1473.03 1511.37 1473.5 1529.7 1472.29 1539.98 C 1466.5 1540.05 1441.07 1539.93 1437.01 1541.16 L 1436.3 1541.55 C 1436.17 1552.82 1436.16 1564.89 1435.45 1576.07 C 1423.19 1576.14 1411.56 1577.04 1399.47 1577.2 C 1399.59 1585.61 1399.24 1605.65 1398.55 1613.93 C 1375.05 1614.32 1351.55 1614.34 1328.05 1614 C 1325.88 1600.89 1325.9 1591.98 1326.05 1578.6 L 1325.72 1577.96 C 1301.66 1577.26 1277.65 1577.52 1253.68 1576 C 1252.14 1554.64 1252.96 1525.84 1252.97 1503.92 C 1235.57 1503.13 1196.5 1502.11 1179.72 1503.79 L 1179.06 1504.11 C 1178.83 1515.8 1178.82 1528.36 1177.99 1539.96 C 1166.12 1540 1153.93 1540.19 1142.08 1540.06 C 1142.68 1550.14 1143.03 1566.57 1142.63 1576.69 L 1143.12 1577.63 C 1155.55 1576.96 1166.48 1577.64 1178.82 1577.64 C 1178.95 1613.46 1179.62 1651.52 1178.5 1687.16 C 1166.14 1687.03 1154.99 1687.22 1142.65 1687.46 L 1142.37 1688.07 C 1142.54 1699.9 1142.17 1711.85 1141.91 1723.68 C 1136.89 1723.79 1109.86 1724.67 1106.54 1724.28 L 1105.81 1724.89 C 1106.21 1737.62 1105.47 1747.71 1104.56 1760.35 C 1089.42 1761.55 1048.81 1761.33 1033.51 1760.24 C 1032.59 1749.32 1033.09 1736.51 1032.63 1725.25 L 1030.69 1724.76 C 1023.23 1723.51 1004.59 1723.89 996.298 1723.87 C 996.087 1715.98 996.433 1694.37 995.226 1687.98 C 983.455 1687.05 971.831 1687.11 960.032 1687.01 C 960.008 1675.01 958.958 1663.23 959.145 1651.29 C 937.234 1649.69 909.9 1650.35 887.469 1650.26 C 885.571 1637.56 886.497 1626.42 884.845 1614.9 L 884.335 1614.8 C 863.969 1613.21 834.704 1614.31 813.209 1613.8 C 812.89 1601.86 812.405 1589.93 811.753 1578.01 C 789.19 1577.06 761.265 1577.23 738.675 1577.86 L 738.115 1578.05 C 726.097 1576.99 714.078 1577.34 702.01 1577.46 C 689.311 1577.16 677.609 1577.66 664.924 1578.16 L 664.298 1578.02 C 652.567 1577.59 640.831 1577.3 629.092 1577.14 C 628.598 1565.18 628.307 1553.21 628.221 1541.24 C 619.488 1540.15 601.787 1540.21 592.432 1540.01 C 590.698 1516.64 591.367 1490.8 591.209 1467.1 C 579.401 1466.99 567.595 1466.79 555.791 1466.51 C 554.647 1455.37 556.128 1440.85 554.308 1430.64 C 546.315 1429.24 528.533 1429.73 519.824 1429.87 C 517.253 1415.54 517.787 1399.12 517.763 1384.42 C 517.704 1363.32 517.818 1342.22 518.106 1321.12 C 542.407 1319.29 568.285 1322.16 591.157 1320.33 C 592.718 1312.87 592.031 1293.78 592.751 1284.15 C 604.206 1283.76 617.136 1284.02 628.705 1283.98 C 629.129 1273.9 628.553 1257.59 627.959 1247.55 L 627.589 1247.01 C 606.844 1246.21 576.344 1245.71 555.604 1246.78 C 554.864 1235.58 555.014 1222.36 554.673 1210.9 L 554.616 1210.45 C 532.135 1209.27 504.819 1210.03 481.864 1209.79 C 481.02 1198.6 480.733 1185.36 481.46 1174.19 L 478.978 1173.56 C 470.455 1172.69 454.36 1172.85 445.061 1172.48 C 444.902 1160.99 444.967 1148.16 444.14 1136.81 C 435.122 1135.47 418.387 1135.71 408.623 1135.6 C 407.635 1119.56 409.431 1075.31 407.196 1063.83 L 406.908 1063.14 C 395.041 1062.91 383.18 1062.39 371.337 1061.59 C 369.352 1039.98 370.287 1012.34 370.486 990.232 L 369.302 989.415 C 357.493 988.759 346.906 988.695 335.147 988.78 C 335.201 966.427 335.617 938.695 334.067 916.778 L 333.906 915.636 C 327.077 915.652 320.248 915.734 313.42 915.882 C 309.083 915.284 302.522 915.142 297.993 914.905 C 297.416 891.165 297.444 867.822 297.226 844.103 L 297.761 842.204 C 285.05 841.324 273.953 841.209 261.24 841.149 C 260.879 817.19 260.827 793.226 261.084 769.265 C 272.933 769.38 285.236 769.112 297.12 769.009 C 297.136 756.737 297.419 744.466 297.969 732.206 C 319.817 733.089 348.753 732.824 370.673 732.051 C 371.307 721.762 371.022 707.854 371.061 697.292 C 392.227 694.859 420.109 697.651 444.201 695.707 L 444.684 695.044 C 445.466 688.363 445.101 667.344 445.321 659.146 C 461.939 658.484 476.686 659.327 493.217 659.766 C 500.947 659.971 509.535 658.907 517.595 658.707 C 519.166 648.326 518.356 630.49 519.834 625.173 C 532.773 619.41 575.356 626.576 591.07 621.652 L 591.738 621.423 C 592.788 610.205 591.222 598.414 592.148 586.171 C 613.947 584.414 642.191 586.065 664.898 585.881 L 665.163 585.308 C 665.122 572.898 665.126 561.928 665.855 549.542 C 690.034 549.108 714.216 548.928 738.399 549.003 C 738.983 537.204 738.954 524.91 739.044 513.057 C 763.421 511.789 787.183 513.752 812.013 511.798 C 813.478 508.41 813.07 483.185 813.492 476.665 C 835.745 475.055 864.522 477.87 885.459 474.802 C 886.173 470.584 885.961 444.255 886.024 438.198 L 959.208 438.063 C 960.325 426.819 960.247 414.286 960.34 402.907 C 973.414 403.281 1022.13 403.433 1032.13 401.741 L 1033.01 401.47 z"/>
<path transform="translate(0,0)" fill="rgb(243,243,239)" d="M 1363.08 1062.93 L 1399 1062.94 L 1399.05 1265.36 L 1399.08 1328.4 C 1399.09 1335.47 1399.74 1350.88 1399.23 1357.2 C 1411.24 1357.17 1423.96 1356.89 1435.91 1357.64 C 1436.04 1380.28 1435.28 1407.91 1436.18 1429.98 L 1436.82 1430.85 C 1448.68 1431.25 1460.72 1431.07 1472.6 1431.02 C 1473.1 1454.14 1473.25 1477.26 1473.05 1500.38 C 1473.03 1511.37 1473.5 1529.7 1472.29 1539.98 C 1466.5 1540.05 1441.07 1539.93 1437.01 1541.16 L 1436.3 1541.55 C 1436.17 1552.82 1436.16 1564.89 1435.45 1576.07 C 1423.19 1576.14 1411.56 1577.04 1399.47 1577.2 C 1399.59 1585.61 1399.24 1605.65 1398.55 1613.93 C 1375.05 1614.32 1351.55 1614.34 1328.05 1614 C 1325.88 1600.89 1325.9 1591.98 1326.05 1578.6 L 1325.72 1577.96 C 1301.66 1577.26 1277.65 1577.52 1253.68 1576 C 1252.14 1554.64 1252.96 1525.84 1252.97 1503.92 C 1235.57 1503.13 1196.5 1502.11 1179.72 1503.79 L 1179.06 1504.11 C 1178.83 1515.8 1178.82 1528.36 1177.99 1539.96 C 1166.12 1540 1153.93 1540.19 1142.08 1540.06 C 1142.68 1550.14 1143.03 1566.57 1142.63 1576.69 L 1143.12 1577.63 C 1155.55 1576.96 1166.48 1577.64 1178.82 1577.64 C 1178.95 1613.46 1179.62 1651.52 1178.5 1687.16 C 1166.14 1687.03 1154.99 1687.22 1142.65 1687.46 L 1142.37 1688.07 C 1142.54 1699.9 1142.17 1711.85 1141.91 1723.68 C 1136.89 1723.79 1109.86 1724.67 1106.54 1724.28 L 1105.81 1724.89 C 1106.21 1737.62 1105.47 1747.71 1104.56 1760.35 C 1089.42 1761.55 1048.81 1761.33 1033.51 1760.24 C 1032.59 1749.32 1033.09 1736.51 1032.63 1725.25 L 1030.69 1724.76 C 1023.23 1723.51 1004.59 1723.89 996.298 1723.87 C 996.087 1715.98 996.433 1694.37 995.226 1687.98 C 983.455 1687.05 971.831 1687.11 960.032 1687.01 C 960.008 1675.01 958.958 1663.23 959.145 1651.29 C 937.234 1649.69 909.9 1650.35 887.469 1650.26 C 885.571 1637.56 886.497 1626.42 884.845 1614.9 L 884.335 1614.8 C 863.969 1613.21 834.704 1614.31 813.209 1613.8 C 812.89 1601.86 812.405 1589.93 811.753 1578.01 C 789.19 1577.06 761.265 1577.23 738.675 1577.86 L 738.115 1578.05 C 726.097 1576.99 714.078 1577.34 702.01 1577.46 C 689.311 1577.16 677.609 1577.66 664.924 1578.16 L 664.298 1578.02 C 652.567 1577.59 640.831 1577.3 629.092 1577.14 C 628.598 1565.18 628.307 1553.21 628.221 1541.24 C 619.488 1540.15 601.787 1540.21 592.432 1540.01 C 590.698 1516.64 591.367 1490.8 591.209 1467.1 C 579.401 1466.99 567.595 1466.79 555.791 1466.51 C 554.647 1455.37 556.128 1440.85 554.308 1430.64 C 546.315 1429.24 528.533 1429.73 519.824 1429.87 C 517.253 1415.54 517.787 1399.12 517.763 1384.42 C 517.704 1363.32 517.818 1342.22 518.106 1321.12 C 542.407 1319.29 568.285 1322.16 591.157 1320.33 C 592.718 1312.87 592.031 1293.78 592.751 1284.15 C 604.206 1283.76 617.136 1284.02 628.705 1283.98 C 629.129 1273.9 628.553 1257.59 627.959 1247.55 C 648.837 1245.86 680.022 1246.89 701.582 1247.03 C 701.265 1259.14 701.868 1271.24 701.561 1283.28 C 706.386 1283.98 732.667 1283.66 738.219 1283.19 C 750.533 1283.36 762.849 1283.38 775.164 1283.25 C 774.211 1293.81 773.589 1309.32 773.962 1320.06 C 798.703 1320.14 824.152 1319.95 848.832 1320.46 C 847.78 1329.34 847.998 1344.06 848.462 1353.18 L 849.038 1356.95 L 921.887 1356.99 C 921.86 1368.06 921.453 1382.74 922.356 1393.44 L 922.736 1393.84 L 934.549 1393.78 C 954.724 1393.94 974.899 1393.97 995.073 1393.85 C 994.843 1385.84 994.967 1371.41 995.855 1363.78 C 995.752 1360.63 995.692 1360.66 996.459 1357.63 C 1002.1 1356.16 1059.97 1356.95 1069.11 1356.98 L 1142.25 1356.99 C 1141.91 1344.99 1142.07 1332.13 1141.96 1320.03 C 1142.03 1312.9 1142.15 1305.77 1142.31 1298.63 L 1142.92 1283.95 L 1200.88 1283.89 L 1200.6 1283.11 C 1205.72 1283.07 1210.83 1283.07 1215.94 1283.13 L 1216.17 1246.67 C 1227.24 1247.2 1241.43 1246.84 1252.73 1246.87 C 1263.01 1246.77 1279.75 1246.12 1289.63 1246.72 C 1289.45 1234.46 1289.54 1222.2 1289.91 1209.94 C 1289.12 1185.62 1289.02 1161.28 1289.62 1136.96 C 1301.62 1136.91 1314.05 1136.5 1326.09 1136.27 L 1326.21 1099.89 L 1362.97 1099.74 L 1363.08 1062.93 z"/>
<path transform="translate(0,0)" fill="rgb(0,0,0)" d="M 1363.08 1062.93 L 1399 1062.94 L 1399.05 1265.36 L 1399.08 1328.4 C 1399.09 1335.47 1399.74 1350.88 1399.23 1357.2 C 1411.24 1357.17 1423.96 1356.89 1435.91 1357.64 C 1436.04 1380.28 1435.28 1407.91 1436.18 1429.98 L 1436.82 1430.85 C 1448.68 1431.25 1460.72 1431.07 1472.6 1431.02 C 1473.1 1454.14 1473.25 1477.26 1473.05 1500.38 C 1473.03 1511.37 1473.5 1529.7 1472.29 1539.98 C 1466.5 1540.05 1441.07 1539.93 1437.01 1541.16 L 1436.3 1541.55 C 1436.17 1552.82 1436.16 1564.89 1435.45 1576.07 C 1423.19 1576.14 1411.56 1577.04 1399.47 1577.2 C 1399.59 1585.61 1399.24 1605.65 1398.55 1613.93 C 1375.05 1614.32 1351.55 1614.34 1328.05 1614 C 1325.88 1600.89 1325.9 1591.98 1326.05 1578.6 L 1325.72 1577.96 C 1326.43 1568.19 1326.15 1551.12 1325.82 1541.35 L 1324.1 1540.89 C 1327.36 1537.71 1326.37 1509.21 1325.47 1503.74 L 1325.78 1502.87 C 1326.53 1493.66 1326.04 1476.85 1326 1467.14 C 1326.69 1443.53 1326.32 1417.79 1326.59 1393.93 C 1337.25 1393.71 1352.33 1393.46 1362.94 1394.38 L 1362.84 1377.51 C 1363.47 1367.58 1363.01 1353.26 1362.98 1342.96 L 1362.96 1283.08 L 1326.13 1283.08 C 1326.11 1271.76 1325.72 1257.94 1326.72 1246.86 L 1289.63 1246.72 C 1289.45 1234.46 1289.54 1222.2 1289.91 1209.94 C 1289.12 1185.62 1289.02 1161.28 1289.62 1136.96 C 1301.62 1136.91 1314.05 1136.5 1326.09 1136.27 L 1326.21 1099.89 L 1362.97 1099.74 L 1363.08 1062.93 z"/>
<path transform="translate(0,0)" fill="rgb(89,88,88)" d="M 1436.82 1430.85 C 1448.68 1431.25 1460.72 1431.07 1472.6 1431.02 C 1473.1 1454.14 1473.25 1477.26 1473.05 1500.38 C 1473.03 1511.37 1473.5 1529.7 1472.29 1539.98 C 1466.5 1540.05 1441.07 1539.93 1437.01 1541.16 L 1436.3 1541.55 C 1436.17 1552.82 1436.16 1564.89 1435.45 1576.07 C 1423.19 1576.14 1411.56 1577.04 1399.47 1577.2 C 1399.59 1585.61 1399.24 1605.65 1398.55 1613.93 C 1375.05 1614.32 1351.55 1614.34 1328.05 1614 C 1325.88 1600.89 1325.9 1591.98 1326.05 1578.6 L 1325.72 1577.96 C 1326.43 1568.19 1326.15 1551.12 1325.82 1541.35 L 1324.1 1540.89 C 1327.36 1537.71 1326.37 1509.21 1325.47 1503.74 L 1325.78 1502.87 C 1331.73 1505.37 1355.22 1504.1 1362.91 1503.86 C 1372.59 1504.27 1388.38 1503.15 1399.06 1503.11 C 1398.83 1496.78 1398.98 1491.11 1399.15 1484.79 L 1399.08 1474.16 C 1399.46 1470.82 1399.41 1470.68 1400.63 1467.37 C 1406.47 1466.28 1429.64 1466.79 1437.06 1466.79 L 1436.82 1430.85 z"/>
<path transform="translate(0,0)" fill="rgb(0,0,0)" d="M 1436.82 1430.85 C 1448.68 1431.25 1460.72 1431.07 1472.6 1431.02 C 1473.1 1454.14 1473.25 1477.26 1473.05 1500.38 C 1473.03 1511.37 1473.5 1529.7 1472.29 1539.98 C 1466.5 1540.05 1441.07 1539.93 1437.01 1541.16 C 1435.8 1521.32 1436.96 1487.4 1437.06 1466.79 L 1436.82 1430.85 z"/>
<path transform="translate(0,0)" fill="rgb(0,0,0)" d="M 1399.47 1577.2 C 1399.59 1585.61 1399.24 1605.65 1398.55 1613.93 C 1375.05 1614.32 1351.55 1614.34 1328.05 1614 C 1325.88 1600.89 1325.9 1591.98 1326.05 1578.6 C 1329.62 1577.87 1338.23 1577.83 1342.24 1577.7 C 1360.59 1578.05 1381.04 1577.6 1399.47 1577.2 z"/>
<path transform="translate(0,0)" fill="rgb(126,124,122)" d="M 1325.82 1541.35 C 1337.09 1539.76 1351.25 1541.25 1362.96 1540.1 C 1363.11 1552.38 1363.13 1564.66 1363.04 1576.94 C 1359.03 1576.86 1344.8 1576.09 1342.24 1577.7 C 1338.23 1577.83 1329.62 1577.87 1326.05 1578.6 L 1325.72 1577.96 C 1326.43 1568.19 1326.15 1551.12 1325.82 1541.35 z"/>
<path transform="translate(0,0)" fill="rgb(50,49,49)" d="M 1399.15 1484.79 C 1400.81 1499.94 1399.46 1524.02 1400.05 1540.12 L 1363.2 1540.14 C 1362.98 1528.05 1362.89 1515.95 1362.91 1503.86 C 1372.59 1504.27 1388.38 1503.15 1399.06 1503.11 C 1398.83 1496.78 1398.98 1491.11 1399.15 1484.79 z"/>
<path transform="translate(0,0)" fill="rgb(0,0,0)" d="M 1400.35 1541.03 C 1408.49 1540.92 1429.19 1540.34 1436.3 1541.55 C 1436.17 1552.82 1436.16 1564.89 1435.45 1576.07 C 1423.19 1576.14 1411.56 1577.04 1399.47 1577.2 C 1400.34 1569.99 1400.14 1549.46 1400.35 1541.03 z"/>
<path transform="translate(0,0)" fill="rgb(248,196,63)" d="M 1326.21 1099.89 L 1362.97 1099.74 L 1363 1210.02 L 1289.91 1209.94 C 1289.12 1185.62 1289.02 1161.28 1289.62 1136.96 C 1301.62 1136.91 1314.05 1136.5 1326.09 1136.27 L 1326.21 1099.89 z"/>
<path transform="translate(0,0)" fill="rgb(230,140,60)" d="M 1326.59 1393.93 C 1337.25 1393.71 1352.33 1393.46 1362.94 1394.38 L 1362.91 1503.86 C 1355.22 1504.1 1331.73 1505.37 1325.78 1502.87 C 1326.53 1493.66 1326.04 1476.85 1326 1467.14 C 1326.69 1443.53 1326.32 1417.79 1326.59 1393.93 z"/>
<path transform="translate(0,0)" fill="rgb(50,49,49)" d="M 1436.18 1429.98 L 1436.82 1430.85 L 1437.06 1466.79 C 1429.64 1466.79 1406.47 1466.28 1400.63 1467.37 C 1399.41 1470.68 1399.46 1470.82 1399.08 1474.16 C 1398.38 1462.06 1399.21 1442.67 1399.2 1430.02 C 1411.89 1430.67 1423.49 1430.5 1436.18 1429.98 z"/>
<path transform="translate(0,0)" fill="rgb(89,88,88)" d="M 773.962 1320.06 C 798.703 1320.14 824.152 1319.95 848.832 1320.46 C 847.78 1329.34 847.998 1344.06 848.462 1353.18 L 849.038 1356.95 L 921.887 1356.99 C 921.86 1368.06 921.453 1382.74 922.356 1393.44 L 922.736 1393.84 L 934.549 1393.78 C 954.724 1393.94 974.899 1393.97 995.073 1393.85 C 995.834 1398.41 995.121 1423.6 995.165 1430.1 C 995.093 1439.42 994.464 1458.65 995.571 1467.31 L 995.192 1467.74 C 995.217 1479.72 995.179 1491.7 995.079 1503.68 C 977.927 1505.26 940.575 1504.09 921.928 1504.03 C 910.001 1503.93 898.073 1503.98 886.147 1504.18 C 886.198 1514.24 886.76 1531.34 885.701 1540.91 C 884.808 1534.42 885.211 1512.02 885.078 1503.98 C 864.598 1503.46 844.097 1504.45 823.532 1503.86 L 811.996 1503.86 L 812.089 1467.81 C 808.034 1466.04 775.857 1466.98 769.904 1467.06 C 761.01 1466.69 747.378 1467.85 739.086 1466.59 L 738.275 1465.2 C 737.194 1455.18 739.799 1441.07 736.872 1431.73 C 736.511 1430.58 733.778 1430.57 732.11 1430.31 C 735.45 1429.95 735.076 1430.4 737.645 1428.72 C 739.258 1415.32 738.134 1372.23 738.105 1356.99 C 738.205 1344.75 738.23 1332.52 738.178 1320.28 C 746.642 1320.92 764.839 1320.17 773.962 1320.06 z"/>
<path transform="translate(0,0)" fill="rgb(0,0,0)" d="M 773.962 1320.06 C 798.703 1320.14 824.152 1319.95 848.832 1320.46 C 847.78 1329.34 847.998 1344.06 848.462 1353.18 L 847.859 1356.38 C 842.842 1357.54 818.761 1357.11 812.313 1357.1 L 738.105 1356.99 C 738.205 1344.75 738.23 1332.52 738.178 1320.28 C 746.642 1320.92 764.839 1320.17 773.962 1320.06 z"/>
<path transform="translate(0,0)" fill="rgb(0,0,0)" d="M 849.038 1356.95 L 921.887 1356.99 C 921.86 1368.06 921.453 1382.74 922.356 1393.44 C 908.672 1395.07 864.652 1393.9 848.4 1393.82 C 848.889 1381.72 848.57 1369.27 849.038 1356.95 z"/>
<path transform="translate(0,0)" fill="rgb(0,0,0)" d="M 934.549 1393.78 C 954.724 1393.94 974.899 1393.97 995.073 1393.85 C 995.834 1398.41 995.121 1423.6 995.165 1430.1 C 970.765 1430.32 946.364 1430.31 921.964 1430.07 C 921.959 1420.74 921.626 1402.55 922.736 1393.84 L 934.549 1393.78 z"/>
<path transform="translate(0,0)" fill="rgb(0,0,0)" d="M 922.313 1466.95 C 933.882 1467.06 987.488 1466 995.192 1467.74 C 995.217 1479.72 995.179 1491.7 995.079 1503.68 C 988.718 1502.47 931.23 1503.17 922.015 1503.38 C 921.957 1491.24 922.056 1479.09 922.313 1466.95 z"/>
<path transform="translate(0,0)" fill="rgb(0,0,0)" d="M 738.893 1430.17 C 750.931 1430.27 762.969 1430.22 775.006 1430.05 C 775.082 1437.09 776.186 1461.18 773.74 1465.87 C 772.635 1466.22 770.988 1466.79 769.904 1467.06 C 761.01 1466.69 747.378 1467.85 739.086 1466.59 L 738.275 1465.2 C 739.234 1454.02 738.528 1441.49 738.893 1430.17 z"/>
<path transform="translate(0,0)" fill="rgb(0,0,0)" d="M 812.089 1467.81 C 817.273 1466.22 841.907 1466.93 848.685 1467.04 C 848.407 1479.06 848.266 1491.09 848.263 1503.12 C 840.941 1503.13 830.528 1502.81 823.532 1503.86 L 811.996 1503.86 L 812.089 1467.81 z"/>
<path transform="translate(0,0)" fill="rgb(126,124,122)" d="M 627.959 1247.55 C 648.837 1245.86 680.022 1246.89 701.582 1247.03 C 701.265 1259.14 701.868 1271.24 701.561 1283.28 C 706.386 1283.98 732.667 1283.66 738.219 1283.19 C 750.533 1283.36 762.849 1283.38 775.164 1283.25 C 774.211 1293.81 773.589 1309.32 773.962 1320.06 C 764.839 1320.17 746.642 1320.92 738.178 1320.28 C 738.23 1332.52 738.205 1344.75 738.105 1356.99 C 738.134 1372.23 739.258 1415.32 737.645 1428.72 C 735.076 1430.4 735.45 1429.95 732.11 1430.31 C 711.024 1429.55 686.39 1430.15 665.024 1430.21 C 664.855 1418.23 665.003 1405.93 665.014 1393.93 L 637.384 1393.86 C 634.054 1393.46 630.856 1393.62 628.431 1391.89 C 627.459 1383.77 628.028 1366.15 628.103 1357.17 C 615.909 1356.85 603.143 1356.96 590.9 1356.88 C 590.507 1345.55 591.005 1331.77 591.157 1320.33 C 592.718 1312.87 592.031 1293.78 592.751 1284.15 C 604.206 1283.76 617.136 1284.02 628.705 1283.98 C 629.129 1273.9 628.553 1257.59 627.959 1247.55 z"/>
<path transform="translate(0,0)" fill="rgb(0,0,0)" d="M 627.959 1247.55 C 648.837 1245.86 680.022 1246.89 701.582 1247.03 C 701.265 1259.14 701.868 1271.24 701.561 1283.28 L 664.754 1283.02 L 664.89 1319.98 C 641.239 1320.71 613.336 1319.12 591.157 1320.33 C 592.718 1312.87 592.031 1293.78 592.751 1284.15 C 604.206 1283.76 617.136 1284.02 628.705 1283.98 C 629.129 1273.9 628.553 1257.59 627.959 1247.55 z"/>
<path transform="translate(0,0)" fill="rgb(0,0,0)" d="M 701.908 1356.94 L 738.105 1356.99 C 738.134 1372.23 739.258 1415.32 737.645 1428.72 C 735.076 1430.4 735.45 1429.95 732.11 1430.31 C 711.024 1429.55 686.39 1430.15 665.024 1430.21 C 664.855 1418.23 665.003 1405.93 665.014 1393.93 C 677.179 1393.69 689.811 1393.87 702.015 1393.89 C 701.104 1381.27 701.588 1369.56 701.908 1356.94 z"/>
<path transform="translate(0,0)" fill="rgb(89,88,88)" d="M 1142.63 1576.69 L 1143.12 1577.63 C 1155.55 1576.96 1166.48 1577.64 1178.82 1577.64 C 1178.95 1613.46 1179.62 1651.52 1178.5 1687.16 C 1166.14 1687.03 1154.99 1687.22 1142.65 1687.46 L 1142.37 1688.07 C 1142.54 1699.9 1142.17 1711.85 1141.91 1723.68 C 1136.89 1723.79 1109.86 1724.67 1106.54 1724.28 L 1105.81 1724.89 C 1106.21 1737.62 1105.47 1747.71 1104.56 1760.35 C 1089.42 1761.55 1048.81 1761.33 1033.51 1760.24 C 1032.59 1749.32 1033.09 1736.51 1032.63 1725.25 L 1030.69 1724.76 C 1023.23 1723.51 1004.59 1723.89 996.298 1723.87 C 996.087 1715.98 996.433 1694.37 995.226 1687.98 L 1007.24 1687.72 C 1009.62 1686.09 1027.8 1686.73 1031.86 1686.76 C 1032.05 1676.99 1032.81 1659.95 1032.12 1650.77 C 1031.93 1648.01 1032.13 1643.78 1032.18 1640.92 C 1032.45 1644.04 1032.33 1648.3 1034.27 1650.4 C 1041.31 1651.55 1060.61 1650.88 1068.9 1651 L 1068.97 1614.16 C 1079.25 1613.58 1094.57 1614.06 1105.23 1614.06 C 1105.4 1601.8 1105.72 1589.54 1105.22 1577.29 C 1117.7 1577.25 1130.05 1576.46 1142.63 1576.69 z"/>
<path transform="translate(0,0)" fill="rgb(50,49,49)" d="M 1142.63 1576.69 L 1143.12 1577.63 C 1155.55 1576.96 1166.48 1577.64 1178.82 1577.64 C 1178.95 1613.46 1179.62 1651.52 1178.5 1687.16 C 1166.14 1687.03 1154.99 1687.22 1142.65 1687.46 L 1142.37 1688.07 L 1141.42 1687.13 C 1142.77 1680.02 1142.06 1625.57 1142.03 1614.5 C 1129.72 1614.27 1117.4 1614.19 1105.08 1614.27 C 1104.85 1637.83 1105.72 1663.35 1106 1687.14 C 1094.65 1688.59 1080.91 1686.95 1068.99 1687.62 L 1068.9 1651 L 1068.97 1614.16 C 1079.25 1613.58 1094.57 1614.06 1105.23 1614.06 C 1105.4 1601.8 1105.72 1589.54 1105.22 1577.29 C 1117.7 1577.25 1130.05 1576.46 1142.63 1576.69 z"/>
<path transform="translate(0,0)" fill="rgb(0,0,0)" d="M 1143.12 1577.63 C 1155.55 1576.96 1166.48 1577.64 1178.82 1577.64 C 1178.95 1613.46 1179.62 1651.52 1178.5 1687.16 C 1166.14 1687.03 1154.99 1687.22 1142.65 1687.46 C 1143.54 1677.5 1143.05 1659.13 1143.04 1648.37 C 1142.91 1624.79 1142.94 1601.21 1143.12 1577.63 z"/>
<path transform="translate(0,0)" fill="rgb(0,0,0)" d="M 1041.47 1724.85 C 1062.98 1725.22 1084.35 1724.69 1105.81 1724.89 C 1106.21 1737.62 1105.47 1747.71 1104.56 1760.35 C 1089.42 1761.55 1048.81 1761.33 1033.51 1760.24 C 1032.59 1749.32 1033.09 1736.51 1032.63 1725.25 L 1041.47 1724.85 z"/>
<path transform="translate(0,0)" fill="rgb(126,124,122)" d="M 1032.82 1687.56 C 1044.57 1687.62 1057.29 1687.84 1068.98 1687.22 L 1069.07 1724.01 C 1061.02 1724.01 1049.11 1723.65 1041.47 1724.85 L 1032.63 1725.25 L 1030.69 1724.76 C 1032.28 1722.67 1031.98 1719.91 1032.11 1717.12 C 1033.16 1707.65 1032.85 1697.16 1032.82 1687.56 z"/>
<path transform="translate(0,0)" fill="rgb(0,0,0)" d="M 1141.42 1687.13 L 1142.37 1688.07 C 1142.54 1699.9 1142.17 1711.85 1141.91 1723.68 C 1136.89 1723.79 1109.86 1724.67 1106.54 1724.28 C 1105.55 1715.75 1106.17 1696.57 1106.31 1687.64 L 1141.42 1687.13 z"/>
<path transform="translate(0,0)" fill="rgb(0,0,0)" d="M 1007.24 1687.72 L 1031.93 1687.59 C 1031.96 1696.97 1031.71 1707.87 1032.11 1717.12 C 1031.98 1719.91 1032.28 1722.67 1030.69 1724.76 C 1023.23 1723.51 1004.59 1723.89 996.298 1723.87 C 996.087 1715.98 996.433 1694.37 995.226 1687.98 L 1007.24 1687.72 z"/>
<path transform="translate(0,0)" fill="rgb(201,199,194)" d="M 591.157 1320.33 C 591.005 1331.77 590.507 1345.55 590.9 1356.88 C 603.143 1356.96 615.909 1356.85 628.103 1357.17 C 628.028 1366.15 627.459 1383.77 628.431 1391.89 C 630.856 1393.62 634.054 1393.46 637.384 1393.86 C 627.527 1394.36 600.983 1394.18 590.936 1393.49 L 591.06 1430.49 C 603.381 1429.87 615.809 1429.98 628.153 1429.94 C 628.511 1443.55 628.426 1452.6 627.972 1466.08 C 635.93 1465.99 653.555 1465.43 660.348 1466.87 L 664.726 1467.15 C 664.745 1475.65 664.372 1495.51 665.421 1503.18 L 665.695 1503.9 C 664.343 1510.62 664.853 1532.86 664.906 1540.93 C 652.677 1540.76 640.445 1540.86 628.221 1541.24 C 619.488 1540.15 601.787 1540.21 592.432 1540.01 C 590.698 1516.64 591.367 1490.8 591.209 1467.1 C 579.401 1466.99 567.595 1466.79 555.791 1466.51 C 554.647 1455.37 556.128 1440.85 554.308 1430.64 C 546.315 1429.24 528.533 1429.73 519.824 1429.87 C 517.253 1415.54 517.787 1399.12 517.763 1384.42 C 517.704 1363.32 517.818 1342.22 518.106 1321.12 C 542.407 1319.29 568.285 1322.16 591.157 1320.33 z"/>
<path transform="translate(0,0)" fill="rgb(0,0,0)" d="M 554.308 1430.64 C 561.488 1429.48 582.805 1430.22 590.983 1430.4 L 590.95 1467.23 C 614.008 1466.79 637.641 1467.48 660.348 1466.87 L 664.726 1467.15 C 664.745 1475.65 664.372 1495.51 665.421 1503.18 L 665.695 1503.9 C 664.343 1510.62 664.853 1532.86 664.906 1540.93 C 652.677 1540.76 640.445 1540.86 628.221 1541.24 C 619.488 1540.15 601.787 1540.21 592.432 1540.01 C 590.698 1516.64 591.367 1490.8 591.209 1467.1 C 579.401 1466.99 567.595 1466.79 555.791 1466.51 C 554.647 1455.37 556.128 1440.85 554.308 1430.64 z"/>
<path transform="translate(0,0)" fill="rgb(126,124,122)" d="M 665.421 1503.18 L 665.695 1503.9 C 664.343 1510.62 664.853 1532.86 664.906 1540.93 C 652.677 1540.76 640.445 1540.86 628.221 1541.24 C 627.376 1533.43 627.955 1512 627.969 1503.18 C 640.467 1503.74 652.913 1503.38 665.421 1503.18 z"/>
<path transform="translate(0,0)" fill="rgb(0,0,0)" d="M 591.157 1320.33 C 591.005 1331.77 590.507 1345.55 590.9 1356.88 L 554.31 1356.96 C 554.167 1374.15 552.935 1415.2 554.308 1430.64 C 546.315 1429.24 528.533 1429.73 519.824 1429.87 C 517.253 1415.54 517.787 1399.12 517.763 1384.42 C 517.704 1363.32 517.818 1342.22 518.106 1321.12 C 542.407 1319.29 568.285 1322.16 591.157 1320.33 z"/>
<path transform="translate(0,0)" fill="rgb(126,124,122)" d="M 1216.17 1246.67 C 1227.24 1247.2 1241.43 1246.84 1252.73 1246.87 C 1263.01 1246.77 1279.75 1246.12 1289.63 1246.72 L 1326.72 1246.86 C 1325.72 1257.94 1326.11 1271.76 1326.13 1283.08 L 1362.96 1283.08 L 1362.98 1342.96 C 1363.01 1353.26 1363.47 1367.58 1362.84 1377.51 L 1362.94 1394.38 C 1352.33 1393.46 1337.25 1393.71 1326.59 1393.93 C 1318.22 1393.99 1309.85 1393.95 1301.48 1393.81 C 1308.43 1392.87 1318.71 1393.06 1325.98 1392.97 C 1326.23 1381.12 1325.97 1368.9 1325.87 1357.03 C 1313.14 1357.25 1301.62 1357.43 1288.9 1356.9 L 1252.86 1356.93 L 1215.99 1357.02 C 1215.52 1344.98 1215.87 1332.36 1216 1320.28 L 1216.08 1283.68 C 1211.03 1283.91 1205.94 1283.87 1200.88 1283.89 L 1200.6 1283.11 C 1205.72 1283.07 1210.83 1283.07 1215.94 1283.13 L 1216.17 1246.67 z"/>
<path transform="translate(0,0)" fill="rgb(0,0,0)" d="M 1216.17 1246.67 C 1227.24 1247.2 1241.43 1246.84 1252.73 1246.87 C 1263.01 1246.77 1279.75 1246.12 1289.63 1246.72 C 1289.16 1252.28 1289.23 1258.27 1289.35 1263.87 C 1290 1294.66 1288.64 1325.59 1289.15 1356.36 L 1288.9 1356.9 L 1252.86 1356.93 L 1215.99 1357.02 C 1215.52 1344.98 1215.87 1332.36 1216 1320.28 L 1216.08 1283.68 C 1211.03 1283.91 1205.94 1283.87 1200.88 1283.89 L 1200.6 1283.11 C 1205.72 1283.07 1210.83 1283.07 1215.94 1283.13 L 1216.17 1246.67 z"/>
<path transform="translate(0,0)" fill="rgb(89,88,88)" d="M 1200.6 1283.11 C 1205.72 1283.07 1210.83 1283.07 1215.94 1283.13 L 1252.89 1283.01 L 1253.06 1319.99 C 1246.47 1320.14 1221.21 1321.02 1216 1320.28 L 1216.08 1283.68 C 1211.03 1283.91 1205.94 1283.87 1200.88 1283.89 L 1200.6 1283.11 z"/>
<path transform="translate(0,0)" fill="rgb(201,199,194)" d="M 1290.11 1320.1 C 1301.63 1320.22 1314.86 1320.07 1326.2 1320.83 C 1326.08 1332.85 1326.05 1344.88 1326.11 1356.9 C 1338.14 1356.95 1350.17 1357.08 1362.19 1357.29 C 1362.31 1362.45 1362.25 1372.79 1362.84 1377.51 L 1362.94 1394.38 C 1352.33 1393.46 1337.25 1393.71 1326.59 1393.93 C 1318.22 1393.99 1309.85 1393.95 1301.48 1393.81 C 1308.43 1392.87 1318.71 1393.06 1325.98 1392.97 C 1326.23 1381.12 1325.97 1368.9 1325.87 1357.03 C 1313.14 1357.25 1301.62 1357.43 1288.9 1356.9 L 1289.15 1356.36 C 1290.71 1350.24 1290.16 1327.71 1290.11 1320.1 z"/>
<path transform="translate(0,0)" fill="rgb(0,0,0)" d="M 1289.21 1393.79 L 1301.48 1393.81 C 1309.85 1393.95 1318.22 1393.99 1326.59 1393.93 C 1326.32 1417.79 1326.69 1443.53 1326 1467.14 C 1326.04 1476.85 1326.53 1493.66 1325.78 1502.87 L 1325.47 1503.74 C 1326.37 1509.21 1327.36 1537.71 1324.1 1540.89 L 1325.82 1541.35 C 1326.15 1551.12 1326.43 1568.19 1325.72 1577.96 C 1301.66 1577.26 1277.65 1577.52 1253.68 1576 C 1252.14 1554.64 1252.96 1525.84 1252.97 1503.92 C 1235.57 1503.13 1196.5 1502.11 1179.72 1503.79 C 1178.64 1498.94 1179.1 1473.22 1179.15 1467.06 C 1191.16 1467.14 1203.17 1467.04 1215.17 1466.76 C 1216.76 1464.12 1215.95 1435.24 1215.91 1430.3 C 1227.54 1430.64 1241.21 1430.23 1253 1430.18 L 1272.61 1430.23 C 1277.46 1429.93 1284.63 1430.14 1289.67 1430.15 C 1288.86 1421.27 1289.26 1403.38 1289.21 1393.79 z"/>
<path transform="translate(0,0)" fill="rgb(173,94,40)" d="M 1289.21 1393.79 L 1301.48 1393.81 C 1309.85 1393.95 1318.22 1393.99 1326.59 1393.93 C 1326.32 1417.79 1326.69 1443.53 1326 1467.14 L 1289.06 1467.28 L 1289.68 1430.9 C 1283.87 1430.91 1278.41 1430.56 1272.61 1430.23 C 1277.46 1429.93 1284.63 1430.14 1289.67 1430.15 C 1288.86 1421.27 1289.26 1403.38 1289.21 1393.79 z"/>
<path transform="translate(0,0)" fill="rgb(126,124,122)" d="M 1289.66 1503.66 C 1301.45 1503.39 1313.65 1503.65 1325.47 1503.74 C 1326.37 1509.21 1327.36 1537.71 1324.1 1540.89 L 1289.26 1541.02 C 1289.07 1528.57 1289.2 1516.11 1289.66 1503.66 z"/>
<path transform="translate(0,0)" fill="rgb(0,0,0)" d="M 738.024 1504.08 C 749.761 1504.08 763.547 1504.46 775.077 1503.26 L 775.155 1539.68 C 780.642 1539.73 788.568 1539.43 793.577 1540.78 L 811.749 1540.94 C 811.577 1547.87 810.629 1572.49 811.753 1578.01 C 789.19 1577.06 761.265 1577.23 738.675 1577.86 L 738.115 1578.05 C 726.097 1576.99 714.078 1577.34 702.01 1577.46 C 689.311 1577.16 677.609 1577.66 664.924 1578.16 L 664.298 1578.02 C 652.567 1577.59 640.831 1577.3 629.092 1577.14 C 628.598 1565.18 628.307 1553.21 628.221 1541.24 C 640.445 1540.86 652.677 1540.76 664.906 1540.93 C 664.853 1532.86 664.343 1510.62 665.695 1503.9 C 677.803 1504.05 689.911 1504.13 702.02 1504.14 L 738.024 1504.08 z"/>
<path transform="translate(0,0)" fill="rgb(126,124,122)" d="M 664.906 1540.93 L 701.287 1540.85 L 702.01 1577.46 C 689.311 1577.16 677.609 1577.66 664.924 1578.16 L 664.298 1578.02 C 652.567 1577.59 640.831 1577.3 629.092 1577.14 C 628.598 1565.18 628.307 1553.21 628.221 1541.24 C 640.445 1540.86 652.677 1540.76 664.906 1540.93 z"/>
<path transform="translate(0,0)" fill="rgb(0,0,0)" d="M 628.221 1541.24 C 640.445 1540.86 652.677 1540.76 664.906 1540.93 C 664.555 1553.16 664.872 1565.98 664.298 1578.02 C 652.567 1577.59 640.831 1577.3 629.092 1577.14 C 628.598 1565.18 628.307 1553.21 628.221 1541.24 z"/>
<path transform="translate(0,0)" fill="rgb(201,199,194)" d="M 738.024 1504.08 C 749.761 1504.08 763.547 1504.46 775.077 1503.26 L 775.155 1539.68 C 780.642 1539.73 788.568 1539.43 793.577 1540.78 L 738.248 1540.88 C 737.9 1528.97 738.08 1516.07 738.024 1504.08 z"/>
<path transform="translate(0,0)" fill="rgb(89,88,88)" d="M 701.287 1540.85 C 713.544 1540.83 726.021 1540.68 738.256 1540.79 C 738.142 1547 737.404 1573.32 738.675 1577.86 L 738.115 1578.05 C 726.097 1576.99 714.078 1577.34 702.01 1577.46 L 701.287 1540.85 z"/>
<path transform="translate(0,0)" fill="rgb(0,0,0)" d="M 1069.11 1356.98 L 1142.25 1356.99 C 1142.66 1364.96 1141.69 1389.16 1142.82 1394.09 L 1142.33 1394.59 C 1141.95 1406.56 1142.09 1418.27 1142.2 1430.24 C 1135.86 1429.86 1127.1 1430.16 1120.57 1430.2 C 1106.97 1429.55 1083.81 1429.94 1070.25 1430.42 L 1069.2 1430.57 C 1063.07 1429.69 1049.54 1430.04 1042.82 1430.08 C 1026.93 1430.3 1011.05 1430.31 995.165 1430.1 C 995.121 1423.6 995.834 1398.41 995.073 1393.85 C 994.843 1385.84 994.967 1371.41 995.855 1363.78 C 995.752 1360.63 995.692 1360.66 996.459 1357.63 C 1002.1 1356.16 1059.97 1356.95 1069.11 1356.98 z"/>
<path transform="translate(0,0)" fill="rgb(89,88,88)" d="M 995.855 1363.78 C 996.187 1374.09 996.089 1383.75 995.951 1394.04 C 1019.42 1394.02 1046.1 1394.51 1069.26 1393.45 C 1069.1 1399.89 1067.77 1426.06 1070.25 1430.42 L 1069.2 1430.57 C 1063.07 1429.69 1049.54 1430.04 1042.82 1430.08 C 1026.93 1430.3 1011.05 1430.31 995.165 1430.1 C 995.121 1423.6 995.834 1398.41 995.073 1393.85 C 994.843 1385.84 994.967 1371.41 995.855 1363.78 z"/>
<path transform="translate(0,0)" fill="rgb(89,88,88)" d="M 1069.11 1356.98 L 1142.25 1356.99 C 1142.66 1364.96 1141.69 1389.16 1142.82 1394.09 L 1142.33 1394.59 C 1134.2 1392.21 1081.95 1393.86 1069.2 1393.38 L 1069.11 1356.98 z"/>
<path transform="translate(0,0)" fill="rgb(0,0,0)" d="M 1032.17 1576.92 C 1032.15 1589 1032.39 1602.09 1032.06 1614.09 L 1032.18 1640.92 C 1032.13 1643.78 1031.93 1648.01 1032.12 1650.77 C 1032.81 1659.95 1032.05 1676.99 1031.86 1686.76 C 1027.8 1686.73 1009.62 1686.09 1007.24 1687.72 L 995.226 1687.98 C 983.455 1687.05 971.831 1687.11 960.032 1687.01 C 960.008 1675.01 958.958 1663.23 959.145 1651.29 C 937.234 1649.69 909.9 1650.35 887.469 1650.26 C 885.571 1637.56 886.497 1626.42 884.845 1614.9 C 890.321 1613.29 948.644 1614.09 958.84 1614.14 C 958.741 1607.48 957.431 1581.89 960.282 1577.8 L 963.417 1577.62 C 973.94 1577.67 984.899 1577.57 995.382 1577.9 C 1007.57 1577.2 1019.95 1577.13 1032.17 1576.92 z"/>
<path transform="translate(0,0)" fill="rgb(173,94,40)" d="M 1032.17 1576.92 C 1032.15 1589 1032.39 1602.09 1032.06 1614.09 C 1019.76 1614.15 1007.45 1614.1 995.152 1613.94 C 995.094 1601.95 994.907 1589.88 995.382 1577.9 C 1007.57 1577.2 1019.95 1577.13 1032.17 1576.92 z"/>
<path transform="translate(0,0)" fill="rgb(126,124,122)" d="M 995.081 1651.04 L 1032.12 1650.77 C 1032.81 1659.95 1032.05 1676.99 1031.86 1686.76 C 1027.8 1686.73 1009.62 1686.09 1007.24 1687.72 L 995.226 1687.98 C 994.465 1680.62 995.061 1659.41 995.081 1651.04 z"/>
<path transform="translate(0,0)" fill="rgb(89,88,88)" d="M 1200.88 1283.89 C 1205.94 1283.87 1211.03 1283.91 1216.08 1283.68 L 1216 1320.28 C 1215.87 1332.36 1215.52 1344.98 1215.99 1357.02 C 1216.08 1363.24 1216.84 1388.68 1215.1 1393.31 L 1214.98 1393.74 C 1203.19 1393.94 1191.03 1393.81 1179.2 1393.83 C 1167.08 1393.78 1154.95 1393.87 1142.82 1394.09 C 1141.69 1389.16 1142.66 1364.96 1142.25 1356.99 C 1141.91 1344.99 1142.07 1332.13 1141.96 1320.03 C 1142.03 1312.9 1142.15 1305.77 1142.31 1298.63 L 1142.92 1283.95 L 1200.88 1283.89 z"/>
<path transform="translate(0,0)" fill="rgb(0,0,0)" d="M 1200.88 1283.89 C 1205.94 1283.87 1211.03 1283.91 1216.08 1283.68 L 1216 1320.28 C 1195.36 1319.37 1164.61 1320.45 1142.96 1320.39 L 1142.31 1298.63 L 1142.92 1283.95 L 1200.88 1283.89 z"/>
<path transform="translate(0,0)" fill="rgb(0,0,0)" d="M 1142.25 1356.99 L 1215.18 1356.97 C 1215.09 1368.85 1214.8 1381.51 1215.1 1393.31 L 1214.98 1393.74 C 1203.19 1393.94 1191.03 1393.81 1179.2 1393.83 C 1167.08 1393.78 1154.95 1393.87 1142.82 1394.09 C 1141.69 1389.16 1142.66 1364.96 1142.25 1356.99 z"/>
<path transform="translate(0,0)" fill="rgb(0,0,0)" d="M 1068.97 1504.01 C 1079.6 1504.15 1096.53 1502.74 1105.98 1503.74 C 1118 1504.31 1130.29 1504.13 1142.34 1504.11 L 1179.06 1504.11 C 1178.83 1515.8 1178.82 1528.36 1177.99 1539.96 C 1166.12 1540 1153.93 1540.19 1142.08 1540.06 C 1142.68 1550.14 1143.03 1566.57 1142.63 1576.69 C 1130.05 1576.46 1117.7 1577.25 1105.22 1577.29 C 1105.72 1589.54 1105.4 1601.8 1105.23 1614.06 C 1094.57 1614.06 1079.25 1613.58 1068.97 1614.16 L 1069.12 1540.74 C 1068.8 1528.82 1068.99 1516 1068.97 1504.01 z"/>
<path transform="translate(0,0)" fill="rgb(201,199,194)" d="M 1068.97 1504.01 C 1079.6 1504.15 1096.53 1502.74 1105.98 1503.74 L 1105.94 1540.84 L 1069.12 1540.74 C 1068.8 1528.82 1068.99 1516 1068.97 1504.01 z"/>
<path transform="translate(0,0)" fill="rgb(230,140,60)" d="M 1031.32 1540.72 C 1043.92 1540.82 1056.52 1540.83 1069.12 1540.74 L 1068.97 1614.16 L 1068.9 1651 C 1060.61 1650.88 1041.31 1651.55 1034.27 1650.4 C 1032.33 1648.3 1032.45 1644.04 1032.18 1640.92 L 1032.06 1614.09 C 1032.39 1602.09 1032.15 1589 1032.17 1576.92 C 1032.12 1564.85 1031.84 1552.78 1031.32 1540.72 z"/>
<path transform="translate(0,0)" fill="rgb(0,0,0)" d="M 995.165 1430.1 C 1011.05 1430.31 1026.93 1430.3 1042.82 1430.08 C 1049.54 1430.04 1063.07 1429.69 1069.2 1430.57 C 1068.98 1442.66 1068.91 1454.75 1068.99 1466.84 C 1044.61 1467.22 1019.9 1466.46 995.571 1467.31 C 994.464 1458.65 995.093 1439.42 995.165 1430.1 z"/>
<path transform="translate(0,0)" fill="rgb(0,0,0)" d="M 847.966 1577.38 L 885.271 1577.74 C 885.336 1583.51 886.119 1611.11 884.335 1614.8 C 863.969 1613.21 834.704 1614.31 813.209 1613.8 C 812.89 1601.86 812.405 1589.93 811.753 1578.01 C 823.822 1577.69 835.894 1577.48 847.966 1577.38 z"/>
<path transform="translate(0,0)" fill="rgb(201,199,194)" d="M 1142.04 1466.58 C 1164.2 1468.42 1195.31 1463.72 1215.17 1466.76 C 1203.17 1467.04 1191.16 1467.14 1179.15 1467.06 C 1179.1 1473.22 1178.64 1498.94 1179.72 1503.79 L 1179.06 1504.11 L 1142.34 1504.11 C 1141.68 1493.52 1142.09 1477.47 1142.04 1466.58 z"/>
<path transform="translate(0,0)" fill="rgb(201,199,194)" d="M 1070.25 1430.42 C 1083.81 1429.94 1106.97 1429.55 1120.57 1430.2 C 1114.85 1431.45 1111.59 1431.23 1105.83 1431.17 C 1105.96 1442.62 1105.75 1456.6 1106.34 1467.84 C 1093.38 1466.23 1081.08 1467.75 1068.99 1466.84 C 1068.91 1454.75 1068.98 1442.66 1069.2 1430.57 L 1070.25 1430.42 z"/>
<path transform="translate(0,0)" fill="rgb(201,199,194)" d="M 664.726 1467.15 C 677.147 1466.88 689.571 1466.83 701.994 1466.99 C 701.893 1479.37 701.902 1491.75 702.02 1504.14 C 689.911 1504.13 677.803 1504.05 665.695 1503.9 L 665.421 1503.18 C 664.372 1495.51 664.745 1475.65 664.726 1467.15 z"/>
<path transform="translate(0,0)" fill="rgb(201,199,194)" d="M 995.121 1541.1 C 1004.94 1541.2 1023.15 1539.52 1031.32 1540.72 C 1031.84 1552.78 1032.12 1564.85 1032.17 1576.92 C 1019.95 1577.13 1007.57 1577.2 995.382 1577.9 C 984.899 1577.57 973.94 1577.67 963.417 1577.62 C 968.917 1576.04 988.612 1576.64 995.251 1576.68 C 995.427 1564.5 995.518 1553.28 995.121 1541.1 z"/>
<path transform="translate(0,0)" fill="rgb(201,199,194)" d="M 811.749 1540.94 C 824.062 1540.79 836.376 1540.79 848.688 1540.94 L 847.966 1577.38 C 835.894 1577.48 823.822 1577.69 811.753 1578.01 C 810.629 1572.49 811.577 1547.87 811.749 1540.94 z"/>
<path transform="translate(0,0)" fill="rgb(201,199,194)" d="M 1142.82 1394.09 C 1154.95 1393.87 1167.08 1393.78 1179.2 1393.83 C 1179.17 1403.96 1178.75 1420.11 1180.18 1429.79 C 1167.52 1430.02 1154.86 1430.17 1142.2 1430.24 C 1142.09 1418.27 1141.95 1406.56 1142.33 1394.59 L 1142.82 1394.09 z"/>
<path transform="translate(0,0)" fill="rgb(201,199,194)" d="M 1215.99 1357.02 L 1252.86 1356.93 L 1253.16 1393.11 C 1240.78 1393.62 1227.31 1394.3 1214.98 1393.74 L 1215.1 1393.31 C 1216.84 1388.68 1216.08 1363.24 1215.99 1357.02 z"/>
<path transform="translate(0,0)" fill="rgb(201,199,194)" d="M 1253.08 1393.7 C 1264.93 1393.96 1277.31 1393.76 1289.21 1393.79 C 1289.26 1403.38 1288.86 1421.27 1289.67 1430.15 C 1284.63 1430.14 1277.46 1429.93 1272.61 1430.23 L 1253 1430.18 C 1252.73 1418.51 1253.05 1405.48 1253.08 1393.7 z"/>
<path transform="translate(0,0)" fill="rgb(0,0,0)" d="M 886.147 1504.18 C 898.073 1503.98 910.001 1503.93 921.928 1504.03 L 921.818 1540.85 C 909.984 1540.85 897.48 1540.65 885.701 1540.91 C 886.76 1531.34 886.198 1514.24 886.147 1504.18 z"/>
<path transform="translate(0,0)" fill="rgb(173,94,40)" d="M 1399.24 768.305 C 1417.66 769.703 1457.29 766.915 1472.93 769.765 C 1472.88 779.211 1472.45 791.967 1473.14 801.138 L 1472.98 805.863 C 1472.12 836.727 1471.89 867.605 1472.29 898.477 C 1472.35 915.672 1472.86 934.976 1471.96 952.009 C 1466.09 952.023 1441.52 951.742 1437.14 952.842 L 1435.96 953.035 L 1435.88 1060.88 C 1423.91 1061.81 1411.91 1062.34 1399.91 1062.45 L 1399 1062.94 L 1363.08 1062.93 L 1362.97 1099.74 L 1326.21 1099.89 L 1326.09 1136.27 C 1314.05 1136.5 1301.62 1136.91 1289.62 1136.96 C 1289.02 1161.28 1289.12 1185.62 1289.91 1209.94 C 1289.54 1222.2 1289.45 1234.46 1289.63 1246.72 C 1279.75 1246.12 1263.01 1246.77 1252.73 1246.87 C 1241.43 1246.84 1227.24 1247.2 1216.17 1246.67 L 1215.94 1283.13 C 1210.83 1283.07 1205.72 1283.07 1200.6 1283.11 L 1200.88 1283.89 L 1142.92 1283.95 L 1142.31 1298.63 C 1142.15 1305.77 1142.03 1312.9 1141.96 1320.03 C 1142.07 1332.13 1141.91 1344.99 1142.25 1356.99 L 1069.11 1356.98 C 1059.97 1356.95 1002.1 1356.16 996.459 1357.63 C 995.692 1360.66 995.752 1360.63 995.855 1363.78 C 994.967 1371.41 994.843 1385.84 995.073 1393.85 C 974.899 1393.97 954.724 1393.94 934.549 1393.78 L 922.736 1393.84 L 922.356 1393.44 C 921.453 1382.74 921.86 1368.06 921.887 1356.99 L 849.038 1356.95 L 848.462 1353.18 C 847.998 1344.06 847.78 1329.34 848.832 1320.46 C 824.152 1319.95 798.703 1320.14 773.962 1320.06 C 773.589 1309.32 774.211 1293.81 775.164 1283.25 C 762.849 1283.38 750.533 1283.36 738.219 1283.19 C 737.55 1259.17 738.031 1234 738.15 1209.88 C 737.816 1185.72 738.501 1161.3 738.211 1137.05 C 750.253 1137.12 763 1136.65 775.09 1136.38 C 787.836 1136.65 799.166 1136.95 811.885 1136.41 L 814.527 1136.27 C 824.023 1135.69 838.129 1136.03 847.969 1135.97 C 847.328 1119.41 846.774 1080.63 848.169 1064.89 C 850.328 1063.34 854.39 1063.39 857.266 1063.15 C 878.581 1062.94 899.897 1062.93 921.212 1063.14 C 921.219 1050.77 921.395 1038.4 921.74 1026.03 L 995.187 1025.87 C 994.922 1013.8 995.289 1001.27 995.47 989.166 C 1007.42 989.429 1020.56 989.132 1032.61 989.109 C 1044.44 988.961 1056.28 989.005 1068.12 989.242 C 1067.78 978.003 1068.59 963.776 1068.63 952.084 C 1078.42 952.74 1094.11 952.178 1104.52 952.207 C 1112.13 953.116 1133.26 952.057 1142.63 952.173 C 1141.74 941.873 1142.11 926.055 1142.1 915.274 C 1158.37 916.808 1196.82 915.584 1215.26 915.801 C 1214.8 904.342 1215.13 890.602 1215.12 878.97 C 1227.34 879.221 1239.31 878.228 1252.39 878.595 C 1252.34 872.068 1252.51 866.053 1252.75 859.532 L 1252.91 842.133 L 1289.54 842.158 C 1300.13 841.587 1315.01 842.02 1325.94 842.005 C 1325.43 830.748 1325.89 816.337 1325.96 804.853 C 1346.44 806.833 1377.6 805.266 1399.12 805.266 C 1398.8 793.341 1399.13 780.325 1399.24 768.305 z"/>
<path transform="translate(0,0)" fill="rgb(248,196,63)" d="M 995.435 1100.93 C 998.405 1098.87 1026.92 1099.6 1032.27 1099.63 C 1032.31 1122.74 1033.09 1150.31 1032.31 1173.11 C 1044.43 1173.17 1056.98 1173.05 1069.05 1173.53 C 1068.96 1185.56 1068.98 1197.81 1068.72 1209.82 L 1032.2 1209.93 L 1032.15 1246.82 C 1007.74 1246.72 983.332 1246.78 958.924 1247 C 958.851 1259 958.633 1271.23 958.985 1283.21 C 947.855 1283 932.193 1283.79 921.954 1283.11 L 922.034 1320.03 C 922.017 1331.6 922.367 1345.62 921.887 1356.99 L 849.038 1356.95 L 848.462 1353.18 C 847.998 1344.06 847.78 1329.34 848.832 1320.46 C 824.152 1319.95 798.703 1320.14 773.962 1320.06 C 773.589 1309.32 774.211 1293.81 775.164 1283.25 C 762.849 1283.38 750.533 1283.36 738.219 1283.19 C 737.55 1259.17 738.031 1234 738.15 1209.88 C 737.816 1185.72 738.501 1161.3 738.211 1137.05 C 750.253 1137.12 763 1136.65 775.09 1136.38 C 787.836 1136.65 799.166 1136.95 811.885 1136.41 L 814.527 1136.27 C 825.224 1137.15 837.448 1136.76 848.291 1136.68 C 872.72 1136.67 897.628 1136.43 922.016 1136.76 L 995.241 1136.64 L 995.435 1100.93 z"/>
<path transform="translate(0,0)" fill="rgb(173,94,40)" d="M 775.09 1136.38 C 787.836 1136.65 799.166 1136.95 811.885 1136.41 L 814.527 1136.27 C 825.224 1137.15 837.448 1136.76 848.291 1136.68 C 848.513 1147.96 848.192 1162.31 848.886 1173.19 C 848.706 1194.33 847.794 1225.86 849.012 1246.22 L 849.083 1246.7 C 861.091 1246.91 873.1 1247 885.109 1246.96 C 885.332 1259.06 885.36 1271.16 885.191 1283.26 C 885.244 1285.05 885.197 1289.35 885.673 1290.81 L 885.372 1320.04 C 897.353 1320.03 910.122 1319.79 922.034 1320.03 C 922.017 1331.6 922.367 1345.62 921.887 1356.99 L 849.038 1356.95 L 848.462 1353.18 C 847.998 1344.06 847.78 1329.34 848.832 1320.46 C 824.152 1319.95 798.703 1320.14 773.962 1320.06 C 773.589 1309.32 774.211 1293.81 775.164 1283.25 C 762.849 1283.38 750.533 1283.36 738.219 1283.19 C 737.55 1259.17 738.031 1234 738.15 1209.88 C 737.816 1185.72 738.501 1161.3 738.211 1137.05 C 750.253 1137.12 763 1136.65 775.09 1136.38 z"/>
<path transform="translate(0,0)" fill="rgb(102,59,45)" d="M 738.15 1209.88 C 762.712 1210.04 787.275 1210.05 811.836 1209.89 C 811.175 1222.07 811.313 1233.76 811.365 1245.95 C 799.405 1246.3 787.214 1246.86 775.292 1247.1 L 775.164 1283.25 C 762.849 1283.38 750.533 1283.36 738.219 1283.19 C 737.55 1259.17 738.031 1234 738.15 1209.88 z"/>
<path transform="translate(0,0)" fill="rgb(102,59,45)" d="M 775.09 1136.38 C 787.836 1136.65 799.166 1136.95 811.885 1136.41 L 814.527 1136.27 C 825.224 1137.15 837.448 1136.76 848.291 1136.68 C 848.513 1147.96 848.192 1162.31 848.886 1173.19 C 824.669 1172.74 799.569 1173.35 775.094 1173.06 C 774.998 1160.83 774.996 1148.61 775.09 1136.38 z"/>
<path transform="translate(0,0)" fill="rgb(102,59,45)" d="M 812.006 1246.94 L 849.083 1246.7 C 861.091 1246.91 873.1 1247 885.109 1246.96 C 885.332 1259.06 885.36 1271.16 885.191 1283.26 C 860.897 1282.87 836.31 1283.58 812.161 1282.94 C 811.732 1271.65 812.025 1258.38 812.006 1246.94 z"/>
<path transform="translate(0,0)" fill="rgb(173,94,40)" d="M 848.291 1136.68 C 872.72 1136.67 897.628 1136.43 922.016 1136.76 L 921.772 1172.96 L 873.807 1173.2 C 865.721 1173.02 857.026 1173.19 848.886 1173.19 C 848.192 1162.31 848.513 1147.96 848.291 1136.68 z"/>
<path transform="translate(0,0)" fill="rgb(252,242,140)" d="M 885.755 1246.73 L 922.196 1247.19 C 921.73 1257.55 920.714 1273.15 921.954 1283.11 L 922.034 1320.03 C 910.122 1319.79 897.353 1320.03 885.372 1320.04 L 885.673 1290.81 C 886.754 1281.32 885.933 1256.7 885.755 1246.73 z"/>
<path transform="translate(0,0)" fill="rgb(252,242,140)" d="M 848.886 1173.19 C 857.026 1173.19 865.721 1173.02 873.807 1173.2 L 885.044 1174.03 C 884.506 1194.31 883.947 1226.49 885.024 1246.38 C 873.084 1246.35 860.931 1246.43 849.012 1246.22 C 847.794 1225.86 848.706 1194.33 848.886 1173.19 z"/>
<path transform="translate(0,0)" fill="rgb(248,196,63)" d="M 1216.09 989.898 C 1228.32 989.082 1240.58 989.03 1252.81 989.743 L 1252.81 1136.16 C 1233.5 1136.84 1198.38 1137.54 1179.1 1136.26 C 1179.07 1148.4 1178.87 1161.14 1179.15 1173.23 L 1069.04 1173.34 L 1069.01 1062.92 L 1142.14 1062.91 C 1142.11 1050.78 1142.23 1038.64 1142.48 1026.51 C 1166.77 1025.89 1191.44 1026.66 1215.96 1026.05 C 1215.87 1014 1215.91 1001.95 1216.09 989.898 z"/>
<path transform="translate(0,0)" fill="rgb(248,196,63)" d="M 1399.24 768.305 C 1417.66 769.703 1457.29 766.915 1472.93 769.765 C 1472.88 779.211 1472.45 791.967 1473.14 801.138 L 1472.98 805.863 C 1472.12 836.727 1471.89 867.605 1472.29 898.477 C 1472.35 915.672 1472.86 934.976 1471.96 952.009 C 1466.09 952.023 1441.52 951.742 1437.14 952.842 L 1435.96 953.035 C 1436.75 943.579 1436.21 925.991 1436.19 915.959 L 1363.02 916.168 C 1342.99 915.114 1310.28 915.865 1289.85 916.454 C 1289.24 891.382 1290.14 866.781 1289.54 842.158 C 1300.13 841.587 1315.01 842.02 1325.94 842.005 C 1325.43 830.748 1325.89 816.337 1325.96 804.853 C 1346.44 806.833 1377.6 805.266 1399.12 805.266 C 1398.8 793.341 1399.13 780.325 1399.24 768.305 z"/>
<path transform="translate(0,0)" fill="rgb(0,0,0)" d="M 1436.66 806.069 C 1448.77 805.897 1460.87 805.829 1472.98 805.863 C 1472.12 836.727 1471.89 867.605 1472.29 898.477 C 1472.35 915.672 1472.86 934.976 1471.96 952.009 C 1466.09 952.023 1441.52 951.742 1437.14 952.842 C 1435.86 919.394 1437.67 883.104 1437.09 849.491 C 1436.87 837.011 1437.85 817.915 1436.66 806.069 z"/>
<path transform="translate(0,0)" fill="rgb(173,94,40)" d="M 1436.09 878.97 C 1436.1 866.046 1434.41 815.776 1436.66 806.069 C 1437.85 817.915 1436.87 837.011 1437.09 849.491 C 1437.67 883.104 1435.86 919.394 1437.14 952.842 L 1435.96 953.035 C 1436.75 943.579 1436.21 925.991 1436.19 915.959 L 1363.02 916.168 L 1363 878.98 C 1386.92 879.419 1412.08 879.008 1436.09 878.97 z"/>
<path transform="translate(0,0)" fill="rgb(248,196,63)" d="M 1032.73 1247.05 C 1052.82 1246.36 1086.04 1245.84 1105.93 1246.84 C 1105.92 1270.35 1105.32 1297.04 1106.11 1320.29 L 1141.96 1320.03 C 1142.07 1332.13 1141.91 1344.99 1142.25 1356.99 L 1069.11 1356.98 C 1059.97 1356.95 1002.1 1356.16 996.459 1357.63 C 995.692 1360.66 995.752 1360.63 995.855 1363.78 C 994.967 1371.41 994.843 1385.84 995.073 1393.85 C 974.899 1393.97 954.724 1393.94 934.549 1393.78 L 922.736 1393.84 L 922.356 1393.44 C 921.453 1382.74 921.86 1368.06 921.887 1356.99 C 922.367 1345.62 922.017 1331.6 922.034 1320.03 L 921.954 1283.11 C 932.193 1283.79 947.855 1283 958.985 1283.21 C 982.364 1284.25 1007.79 1282.49 1032.18 1283.66 C 1032.21 1271.45 1032.4 1259.25 1032.73 1247.05 z"/>
<path transform="translate(0,0)" fill="rgb(0,0,0)" d="M 1106.11 1320.29 L 1141.96 1320.03 C 1142.07 1332.13 1141.91 1344.99 1142.25 1356.99 L 1069.11 1356.98 C 1069.02 1344.68 1069.05 1332.38 1069.19 1320.08 C 1080.58 1320.61 1094.53 1320.28 1106.11 1320.29 z"/>
<path transform="translate(0,0)" fill="rgb(252,242,140)" d="M 922.034 1320.03 L 945.473 1320.18 C 950.759 1320.82 953.68 1321.13 959.085 1321.15 C 957.359 1343.13 957.424 1371.14 958.213 1393.28 C 950.66 1393.27 941.953 1393.04 934.549 1393.78 L 922.736 1393.84 L 922.356 1393.44 C 921.453 1382.74 921.86 1368.06 921.887 1356.99 C 922.367 1345.62 922.017 1331.6 922.034 1320.03 z"/>
<path transform="translate(0,0)" fill="rgb(173,94,40)" d="M 921.954 1283.11 C 932.193 1283.79 947.855 1283 958.985 1283.21 C 958.94 1294.75 959.203 1309.02 958.488 1320.3 L 945.473 1320.18 L 922.034 1320.03 L 921.954 1283.11 z"/>
<path transform="translate(0,0)" fill="rgb(248,196,63)" d="M 1363.02 916.168 L 1436.19 915.959 C 1436.21 925.991 1436.75 943.579 1435.96 953.035 L 1435.88 1060.88 C 1423.91 1061.81 1411.91 1062.34 1399.91 1062.45 L 1399 1062.94 L 1363.08 1062.93 C 1352.32 1062.42 1337.17 1062.94 1326.07 1062.99 L 1326.14 1099.02 C 1312.85 1099.82 1302.83 1099.87 1289.49 1099.75 C 1290.11 1051.75 1289.37 1001.19 1289.17 952.987 C 1313.74 952.756 1338.29 953.076 1362.87 952.746 L 1363.02 916.168 z"/>
<path transform="translate(0,0)" fill="rgb(0,0,0)" d="M 1399.99 952.974 C 1411.98 952.863 1423.97 952.883 1435.96 953.035 L 1435.88 1060.88 C 1423.91 1061.81 1411.91 1062.34 1399.91 1062.45 L 1399.99 952.974 z"/>
<path transform="translate(0,0)" fill="rgb(248,196,63)" d="M 1252.39 878.595 C 1252.34 872.068 1252.51 866.053 1252.75 859.532 C 1253.39 890.149 1252.89 922.142 1252.83 952.861 L 1215.82 952.993 L 1215.88 989.224 C 1191.51 989.349 1166.58 989.175 1142.28 989.566 C 1142.25 1001.21 1141.91 1014.73 1142.35 1026.23 C 1117.88 1026.38 1093.4 1026.36 1068.93 1026.17 L 1069.01 1062.92 L 1032.22 1062.93 C 1032.01 1038.6 1032.52 1013.53 1032.61 989.109 C 1044.44 988.961 1056.28 989.005 1068.12 989.242 C 1067.78 978.003 1068.59 963.776 1068.63 952.084 C 1078.42 952.74 1094.11 952.178 1104.52 952.207 C 1112.13 953.116 1133.26 952.057 1142.63 952.173 C 1141.74 941.873 1142.11 926.055 1142.1 915.274 C 1158.37 916.808 1196.82 915.584 1215.26 915.801 C 1214.8 904.342 1215.13 890.602 1215.12 878.97 C 1227.34 879.221 1239.31 878.228 1252.39 878.595 z"/>
<path transform="translate(0,0)" fill="rgb(248,196,63)" d="M 1179.24 1173.55 C 1202.16 1172.54 1229.48 1172.97 1252.66 1173.17 C 1252.99 1197.74 1253.01 1222.31 1252.73 1246.87 C 1241.43 1246.84 1227.24 1247.2 1216.17 1246.67 L 1215.94 1283.13 C 1210.83 1283.07 1205.72 1283.07 1200.6 1283.11 L 1200.88 1283.89 L 1142.92 1283.95 L 1142.31 1298.63 C 1142.15 1305.77 1142.03 1312.9 1141.96 1320.03 L 1106.11 1320.29 C 1105.32 1297.04 1105.92 1270.35 1105.93 1246.84 L 1105.92 1209.92 C 1130.13 1209.9 1154.92 1210.18 1179.07 1209.85 L 1179.24 1173.55 z"/>
<path transform="translate(0,0)" fill="rgb(173,94,40)" d="M 1105.93 1246.84 C 1118.03 1246.89 1130.09 1247.19 1142.13 1246.01 C 1142.25 1257.97 1142.13 1271.14 1142.65 1282.99 C 1161.55 1282.94 1181.8 1282.54 1200.6 1283.11 L 1200.88 1283.89 L 1142.92 1283.95 L 1142.31 1298.63 C 1142.15 1305.77 1142.03 1312.9 1141.96 1320.03 L 1106.11 1320.29 C 1105.32 1297.04 1105.92 1270.35 1105.93 1246.84 z"/>
<path transform="translate(0,0)" fill="rgb(248,196,63)" d="M 921.74 1026.03 L 995.187 1025.87 C 995.216 1034.42 995.99 1096 994.56 1098.78 L 992.278 1099.5 C 968.851 1099.83 945.422 1099.96 921.992 1099.88 L 922.016 1136.76 C 897.628 1136.43 872.72 1136.67 848.291 1136.68 C 837.448 1136.76 825.224 1137.15 814.527 1136.27 C 824.023 1135.69 838.129 1136.03 847.969 1135.97 C 847.328 1119.41 846.774 1080.63 848.169 1064.89 C 850.328 1063.34 854.39 1063.39 857.266 1063.15 C 878.581 1062.94 899.897 1062.93 921.212 1063.14 C 921.219 1050.77 921.395 1038.4 921.74 1026.03 z"/>
<path transform="translate(0,0)" fill="rgb(0,0,0)" d="M 1179.39 511.36 L 1179.8 511.726 C 1203.17 513.06 1230.26 510.882 1252.03 512.784 C 1251.99 522.639 1251.48 538.926 1252.87 548.203 L 1253.14 548.846 C 1277.03 549.551 1301.79 549.061 1325.77 549.22 C 1325.68 560.918 1325.35 573.404 1325.8 585.034 L 1326.07 585.684 C 1339 584.4 1384.97 585.098 1398.43 586.215 C 1399.57 598.335 1398.37 610.332 1399.3 621.364 L 1400.04 621.841 C 1409.96 622.994 1426.36 623.423 1436.23 622.153 C 1437.14 628.156 1436.1 650.685 1435.89 658.054 C 1428.83 658.126 1421.81 658.038 1414.8 658.837 C 1421.81 659.085 1428.82 659.109 1435.83 658.91 L 1472.84 659.053 L 1473.19 695.891 C 1472.52 719.902 1472.91 745.625 1472.93 769.765 C 1457.29 766.915 1417.66 769.703 1399.24 768.305 C 1399.13 780.325 1398.8 793.341 1399.12 805.266 C 1377.6 805.266 1346.44 806.833 1325.96 804.853 C 1325.89 816.337 1325.43 830.748 1325.94 842.005 C 1315.01 842.02 1300.13 841.587 1289.54 842.158 L 1252.91 842.133 L 1252.75 859.532 C 1252.51 866.053 1252.34 872.068 1252.39 878.595 C 1239.31 878.228 1227.34 879.221 1215.12 878.97 C 1215.13 890.602 1214.8 904.342 1215.26 915.801 C 1196.82 915.584 1158.37 916.808 1142.1 915.274 C 1142.11 926.055 1141.74 941.873 1142.63 952.173 C 1133.26 952.057 1112.13 953.116 1104.52 952.207 C 1105 929.771 1106.04 901.031 1105.13 879.039 L 1032.11 879.062 C 1032.16 891.233 1031.99 903.923 1032.62 916.042 C 1008.17 916.036 983.248 915.789 958.83 916.098 C 957.498 875.267 958.738 827.004 958.761 785.75 L 958.795 548.775 L 958.979 511.819 C 983.248 511.8 1007.85 511.581 1032.09 511.833 L 1032.15 548.82 L 1070.92 548.931 L 1105.88 548.941 C 1118.67 548.139 1129.37 547.67 1142.14 548.624 L 1142.75 511.526 L 1179.39 511.36 z"/>
<path transform="translate(0,0)" fill="rgb(252,242,140)" d="M 1179.39 511.36 L 1179.8 511.726 C 1203.17 513.06 1230.26 510.882 1252.03 512.784 C 1251.99 522.639 1251.48 538.926 1252.87 548.203 L 1253.14 548.846 C 1277.03 549.551 1301.79 549.061 1325.77 549.22 C 1325.68 560.918 1325.35 573.404 1325.8 585.034 L 1326.07 585.684 C 1339 584.4 1384.97 585.098 1398.43 586.215 C 1399.57 598.335 1398.37 610.332 1399.3 621.364 L 1400.04 621.841 C 1409.96 622.994 1426.36 623.423 1436.23 622.153 C 1437.14 628.156 1436.1 650.685 1435.89 658.054 C 1428.83 658.126 1421.81 658.038 1414.8 658.837 C 1421.81 659.085 1428.82 659.109 1435.83 658.91 L 1472.84 659.053 L 1473.19 695.891 C 1472.52 719.902 1472.91 745.625 1472.93 769.765 C 1457.29 766.915 1417.66 769.703 1399.24 768.305 C 1399.13 780.325 1398.8 793.341 1399.12 805.266 C 1377.6 805.266 1346.44 806.833 1325.96 804.853 C 1325.89 816.337 1325.43 830.748 1325.94 842.005 C 1315.01 842.02 1300.13 841.587 1289.54 842.158 L 1252.91 842.133 L 1252.75 859.532 C 1252.51 866.053 1252.34 872.068 1252.39 878.595 C 1239.31 878.228 1227.34 879.221 1215.12 878.97 C 1215.13 890.602 1214.8 904.342 1215.26 915.801 C 1196.82 915.584 1158.37 916.808 1142.1 915.274 C 1142.11 926.055 1141.74 941.873 1142.63 952.173 C 1133.26 952.057 1112.13 953.116 1104.52 952.207 C 1105 929.771 1106.04 901.031 1105.13 879.039 C 1106.34 875.839 1105.83 847.616 1105.81 842.203 L 1179.06 842.229 L 1178.89 805.782 C 1203.22 805.327 1228.36 805.953 1252.89 805.719 C 1252.7 793.5 1252.71 781.279 1252.92 769.06 L 1326.11 769.032 L 1326.06 731.969 L 1399.64 732.098 C 1398.89 725.069 1399.4 702.766 1399.81 695.34 C 1376.45 696.216 1349.82 695.747 1326.22 695.832 C 1326.09 688.732 1327.35 663.455 1324.76 659.168 L 1321.39 658.584 C 1301.57 659.82 1273.12 658.9 1252.73 658.86 C 1252.64 646.601 1252.73 634.341 1253.01 622.085 L 1216.25 622.003 L 1178.9 621.998 C 1178.96 609.717 1178.94 597.436 1178.84 585.155 L 1142.11 585.158 L 1105.58 585.188 C 1105.76 573.106 1105.86 561.024 1105.88 548.941 C 1118.67 548.139 1129.37 547.67 1142.14 548.624 L 1142.75 511.526 L 1179.39 511.36 z"/>
<path transform="translate(0,0)" fill="rgb(248,196,63)" d="M 1179.39 511.36 L 1179.8 511.726 C 1179.28 524.024 1179.03 536.332 1179.06 548.641 C 1169.1 549.529 1152.95 549.213 1142.5 549.28 C 1142.35 560.709 1141.87 573.87 1142.11 585.158 L 1105.58 585.188 C 1105.76 573.106 1105.86 561.024 1105.88 548.941 C 1118.67 548.139 1129.37 547.67 1142.14 548.624 L 1142.75 511.526 L 1179.39 511.36 z"/>
<path transform="translate(0,0)" fill="rgb(248,196,63)" d="M 1399.3 621.364 L 1400.04 621.841 C 1409.96 622.994 1426.36 623.423 1436.23 622.153 C 1437.14 628.156 1436.1 650.685 1435.89 658.054 C 1428.83 658.126 1421.81 658.038 1414.8 658.837 L 1399.99 658.843 C 1391.23 659.667 1372.33 658.92 1362.75 658.781 C 1362.73 648.051 1361.69 632.113 1362.88 621.926 C 1371.43 621.985 1391.57 622.5 1399.3 621.364 z"/>
<path transform="translate(0,0)" fill="rgb(0,0,0)" d="M 1400.04 621.841 C 1409.96 622.994 1426.36 623.423 1436.23 622.153 C 1437.14 628.156 1436.1 650.685 1435.89 658.054 C 1428.83 658.126 1421.81 658.038 1414.8 658.837 L 1399.99 658.843 C 1399.66 647.068 1400.01 633.736 1400.04 621.841 z"/>
<path transform="translate(0,0)" fill="rgb(0,0,0)" d="M 1326.07 585.684 C 1339 584.4 1384.97 585.098 1398.43 586.215 C 1399.57 598.335 1398.37 610.332 1399.3 621.364 C 1391.57 622.5 1371.43 621.985 1362.88 621.926 L 1326.34 622.02 L 1326.07 585.684 z"/>
<path transform="translate(0,0)" fill="rgb(0,0,0)" d="M 1179.8 511.726 C 1203.17 513.06 1230.26 510.882 1252.03 512.784 C 1251.99 522.639 1251.48 538.926 1252.87 548.203 C 1228.93 549.351 1203.14 548.568 1179.06 548.641 C 1179.03 536.332 1179.28 524.024 1179.8 511.726 z"/>
<path transform="translate(0,0)" fill="rgb(0,0,0)" d="M 1253.14 548.846 C 1277.03 549.551 1301.79 549.061 1325.77 549.22 C 1325.68 560.918 1325.35 573.404 1325.8 585.034 C 1301.73 585.406 1277.15 585.202 1253.03 585.214 C 1253 573.091 1253.03 560.968 1253.14 548.846 z"/>
<path transform="translate(0,0)" fill="rgb(248,196,63)" d="M 1253.01 622.085 C 1265.18 621.606 1277.36 621.211 1289.54 620.899 C 1289.66 633.294 1289.6 645.689 1289.39 658.082 C 1297.97 658.044 1313.37 657.533 1321.39 658.584 C 1301.57 659.82 1273.12 658.9 1252.73 658.86 C 1252.64 646.601 1252.73 634.341 1253.01 622.085 z"/>
<path transform="translate(0,0)" fill="rgb(248,196,63)" d="M 1178.84 585.155 C 1191.55 585.015 1204.27 584.986 1216.99 585.069 C 1216.88 597.103 1217.01 610.062 1216.25 622.003 L 1178.9 621.998 C 1178.96 609.717 1178.94 597.436 1178.84 585.155 z"/>
<path transform="translate(0,0)" fill="rgb(248,196,63)" d="M 1435.83 658.91 L 1472.84 659.053 L 1473.19 695.891 C 1459.55 695.883 1449.58 696.092 1436.04 697.183 C 1435.32 683.762 1435.54 672.355 1435.83 658.91 z"/>
<path transform="translate(0,0)" fill="rgb(102,59,45)" d="M 443.97 877.114 C 446.932 880.042 452.314 879.244 457.046 879.215 L 481.092 878.953 C 492.957 878.927 506.296 879.202 518.037 878.818 L 518.005 916.133 L 554.32 916.024 C 566.158 915.973 579.377 916.181 591.053 915.531 L 591.079 952.953 L 654.001 952.804 L 665.008 952.864 L 664.823 989.073 L 701.92 989.198 L 738.085 989.134 L 738.226 1026.07 C 750.514 1026.23 762.804 1026.16 775.089 1025.88 C 786.066 1025.66 801.834 1024.92 812.419 1026.02 C 813.004 1035.83 813.515 1053.16 812.9 1063 C 822.914 1062.75 847.574 1062.39 857.266 1063.15 C 854.39 1063.39 850.328 1063.34 848.169 1064.89 C 846.774 1080.63 847.328 1119.41 847.969 1135.97 C 838.129 1136.03 824.023 1135.69 814.527 1136.27 L 811.885 1136.41 C 799.166 1136.95 787.836 1136.65 775.09 1136.38 C 763 1136.65 750.253 1137.12 738.211 1137.05 C 738.501 1161.3 737.816 1185.72 738.15 1209.88 C 738.031 1234 737.55 1259.17 738.219 1283.19 C 732.667 1283.66 706.386 1283.98 701.561 1283.28 C 701.868 1271.24 701.265 1259.14 701.582 1247.03 C 680.022 1246.89 648.837 1245.86 627.959 1247.55 L 627.589 1247.01 C 606.844 1246.21 576.344 1245.71 555.604 1246.78 C 554.864 1235.58 555.014 1222.36 554.673 1210.9 L 554.616 1210.45 C 532.135 1209.27 504.819 1210.03 481.864 1209.79 C 481.02 1198.6 480.733 1185.36 481.46 1174.19 L 478.978 1173.56 C 470.455 1172.69 454.36 1172.85 445.061 1172.48 C 444.902 1160.99 444.967 1148.16 444.14 1136.81 C 435.122 1135.47 418.387 1135.71 408.623 1135.6 C 407.635 1119.56 409.431 1075.31 407.196 1063.83 L 406.908 1063.14 C 395.041 1062.91 383.18 1062.39 371.337 1061.59 C 369.352 1039.98 370.287 1012.34 370.486 990.232 L 369.302 989.415 C 357.493 988.759 346.906 988.695 335.147 988.78 C 335.201 966.427 335.617 938.695 334.067 916.778 C 346.057 916.759 357.876 916.169 370.138 916.231 C 382.757 916.097 395.377 916.045 407.996 916.075 C 414.751 915.89 441.426 916.887 444.693 914.264 C 443.761 904.358 444.348 887.996 443.97 877.114 z"/>
<path transform="translate(0,0)" fill="rgb(173,94,40)" d="M 443.97 877.114 C 446.932 880.042 452.314 879.244 457.046 879.215 L 481.092 878.953 C 492.957 878.927 506.296 879.202 518.037 878.818 L 518.005 916.133 L 554.32 916.024 C 566.158 915.973 579.377 916.181 591.053 915.531 L 591.079 952.953 L 654.001 952.804 L 665.008 952.864 L 664.823 989.073 L 701.92 989.198 L 738.085 989.134 L 738.226 1026.07 C 750.514 1026.23 762.804 1026.16 775.089 1025.88 C 786.066 1025.66 801.834 1024.92 812.419 1026.02 C 813.004 1035.83 813.515 1053.16 812.9 1063 C 822.914 1062.75 847.574 1062.39 857.266 1063.15 C 854.39 1063.39 850.328 1063.34 848.169 1064.89 C 846.774 1080.63 847.328 1119.41 847.969 1135.97 C 838.129 1136.03 824.023 1135.69 814.527 1136.27 L 811.885 1136.41 C 799.166 1136.95 787.836 1136.65 775.09 1136.38 C 763 1136.65 750.253 1137.12 738.211 1137.05 C 738.501 1161.3 737.816 1185.72 738.15 1209.88 L 665.008 1210.04 C 664.915 1197.97 665.06 1185.72 665.098 1173.64 C 676.411 1173.16 691.024 1173.09 702.251 1173.6 C 700.536 1152.25 700.976 1121.78 701.247 1099.94 L 628.284 1099.83 C 627.896 1087.52 627.769 1075.2 627.905 1062.89 L 554.851 1062.95 C 554.155 1052.25 554.674 1037.35 554.838 1026.29 C 554.364 1014.11 554.71 1002.66 554.998 990.487 C 535.399 988.969 501.096 989.031 481.152 989.911 L 481.686 915.697 C 471.039 916.269 455.831 916.494 445.321 916.118 C 443.684 924.727 443.763 944.24 444.553 953.268 C 433.79 953.174 418.416 953.556 408.057 952.891 C 407.676 940.463 407.842 928.501 407.996 916.075 C 414.751 915.89 441.426 916.887 444.693 914.264 C 443.761 904.358 444.348 887.996 443.97 877.114 z"/>
<path transform="translate(0,0)" fill="rgb(102,59,45)" d="M 664.89 989.943 C 677.13 989.972 689.703 989.847 701.91 990.048 C 701.724 1013.22 701.022 1040.23 702.138 1063.19 C 713.194 1063.09 728.383 1063.37 738.962 1062.08 C 738.16 1075.26 738.113 1087.06 738.108 1100.28 L 774.97 1098.83 C 775.013 1111.18 775.26 1124.09 775.09 1136.38 C 763 1136.65 750.253 1137.12 738.211 1137.05 C 738.501 1161.3 737.816 1185.72 738.15 1209.88 L 665.008 1210.04 C 664.915 1197.97 665.06 1185.72 665.098 1173.64 C 676.411 1173.16 691.024 1173.09 702.251 1173.6 C 700.536 1152.25 700.976 1121.78 701.247 1099.94 L 628.284 1099.83 C 627.896 1087.52 627.769 1075.2 627.905 1062.89 L 665.798 1062.45 C 663.813 1047.45 664.844 1006.82 664.89 989.943 z"/>
<path transform="translate(0,0)" fill="rgb(252,242,140)" d="M 775.089 1025.88 C 786.066 1025.66 801.834 1024.92 812.419 1026.02 C 813.004 1035.83 813.515 1053.16 812.9 1063 C 822.914 1062.75 847.574 1062.39 857.266 1063.15 C 854.39 1063.39 850.328 1063.34 848.169 1064.89 C 846.774 1080.63 847.328 1119.41 847.969 1135.97 C 838.129 1136.03 824.023 1135.69 814.527 1136.27 L 811.885 1136.41 L 812.06 1063.2 C 802.76 1062.29 785.243 1062.69 775.263 1062.67 L 775.089 1025.88 z"/>
<path transform="translate(0,0)" fill="rgb(102,59,45)" d="M 554.838 1026.29 C 579.094 1027.32 603.755 1026.18 628.037 1026.02 L 627.905 1062.89 L 554.851 1062.95 C 554.155 1052.25 554.674 1037.35 554.838 1026.29 z"/>
<path transform="translate(0,0)" fill="rgb(173,94,40)" d="M 517.955 1026.02 C 529.216 1026.57 543.358 1026.25 554.838 1026.29 C 554.674 1037.35 554.155 1052.25 554.851 1062.95 L 627.905 1062.89 C 627.769 1075.2 627.896 1087.52 628.284 1099.83 L 701.247 1099.94 C 700.976 1121.78 700.536 1152.25 702.251 1173.6 C 691.024 1173.09 676.411 1173.16 665.098 1173.64 C 665.06 1185.72 664.915 1197.97 665.008 1210.04 L 738.15 1209.88 C 738.031 1234 737.55 1259.17 738.219 1283.19 C 732.667 1283.66 706.386 1283.98 701.561 1283.28 C 701.868 1271.24 701.265 1259.14 701.582 1247.03 C 680.022 1246.89 648.837 1245.86 627.959 1247.55 L 627.589 1247.01 C 606.844 1246.21 576.344 1245.71 555.604 1246.78 C 554.864 1235.58 555.014 1222.36 554.673 1210.9 L 554.616 1210.45 C 553.659 1202.61 554.169 1181.97 554.182 1173.19 L 554.796 1136.88 C 566.831 1136.65 578.868 1136.61 590.904 1136.76 C 591.061 1148.68 590.945 1160.85 590.959 1172.79 C 615.023 1173.56 640.669 1173.09 664.791 1172.85 C 663.934 1163.99 664.152 1144.97 664.633 1135.99 L 590.945 1136.52 C 590.856 1124.26 591.075 1112 591.604 1099.75 C 567.078 1099.71 542.553 1099.48 518.03 1099.06 C 517.013 1077.25 517.899 1048.36 517.955 1026.02 z"/>
<path transform="translate(0,0)" fill="rgb(0,0,0)" d="M 554.673 1210.9 C 566.176 1208.75 613.899 1210.08 627.754 1210.05 L 627.589 1247.01 C 606.844 1246.21 576.344 1245.71 555.604 1246.78 C 554.864 1235.58 555.014 1222.36 554.673 1210.9 z"/>
<path transform="translate(0,0)" fill="rgb(173,94,40)" d="M 445.073 1099.98 C 469.292 1100.02 493.51 1099.81 517.724 1099.37 C 517.272 1122.49 517.332 1149.97 518.171 1173.14 C 505.574 1172.67 493.557 1172.8 480.952 1172.92 L 478.978 1173.56 C 470.455 1172.69 454.36 1172.85 445.061 1172.48 C 444.902 1160.99 444.967 1148.16 444.14 1136.81 C 443.943 1132.51 444.114 1127.39 444.143 1123.02 C 444.665 1115.35 444.976 1107.67 445.073 1099.98 z"/>
<path transform="translate(0,0)" fill="rgb(0,0,0)" d="M 444.14 1136.81 L 481.197 1136.88 L 480.952 1172.92 L 478.978 1173.56 C 470.455 1172.69 454.36 1172.85 445.061 1172.48 C 444.902 1160.99 444.967 1148.16 444.14 1136.81 z"/>
<path transform="translate(0,0)" fill="rgb(173,94,40)" d="M 408.261 989.795 C 432.368 989.602 457.058 990.072 480.935 989.766 C 480.144 1013.96 480.738 1038.5 481.062 1062.74 C 473.122 1062.16 452.035 1061.82 444.476 1062.91 C 437.967 1062.91 412.516 1062.58 407.196 1063.83 L 406.908 1063.14 C 407.184 1059.54 407.139 1054.51 407.224 1050.79 C 409.134 1045.36 408.097 999.234 408.261 989.795 z"/>
<path transform="translate(0,0)" fill="rgb(0,0,0)" d="M 370.486 990.232 C 382.803 989.886 395.128 989.879 407.446 990.21 C 407.204 1001.79 405.963 1040.62 407.224 1050.79 C 407.139 1054.51 407.184 1059.54 406.908 1063.14 C 395.041 1062.91 383.18 1062.39 371.337 1061.59 C 369.352 1039.98 370.287 1012.34 370.486 990.232 z"/>
<path transform="translate(0,0)" fill="rgb(0,0,0)" d="M 481.46 1174.19 C 503.834 1172.83 534.017 1175.1 554.182 1173.19 C 554.169 1181.97 553.659 1202.61 554.616 1210.45 C 532.135 1209.27 504.819 1210.03 481.864 1209.79 C 481.02 1198.6 480.733 1185.36 481.46 1174.19 z"/>
<path transform="translate(0,0)" fill="rgb(0,0,0)" d="M 407.196 1063.83 C 412.516 1062.58 437.967 1062.91 444.476 1062.91 C 443.669 1074.79 443.327 1111.26 444.143 1123.02 C 444.114 1127.39 443.943 1132.51 444.14 1136.81 C 435.122 1135.47 418.387 1135.71 408.623 1135.6 C 407.635 1119.56 409.431 1075.31 407.196 1063.83 z"/>
<path transform="translate(0,0)" fill="rgb(0,0,0)" d="M 334.067 916.778 C 346.057 916.759 357.876 916.169 370.138 916.231 C 371.019 919.165 370.232 985.709 369.302 989.415 C 357.493 988.759 346.906 988.695 335.147 988.78 C 335.201 966.427 335.617 938.695 334.067 916.778 z"/>
<path transform="translate(0,0)" fill="rgb(173,94,40)" d="M 371.077 952.042 C 383.406 952.233 395.733 952.516 408.057 952.891 C 408.062 964.348 406.724 978.892 407.784 989.895 C 396.268 988.467 382.686 989.009 370.957 989.245 C 370.278 982.345 371.027 960.071 371.077 952.042 z"/>
<path transform="translate(0,0)" fill="rgb(248,196,63)" d="M 1033.01 401.47 C 1043.98 401.545 1058.14 401.96 1068.9 401.286 C 1069.14 413.412 1069.21 425.542 1069.09 437.67 C 1075.98 438.937 1098.05 438.035 1106.15 437.842 L 1106.82 438.146 C 1105.29 444.908 1106.22 466.769 1105.96 474.907 C 1105.98 486.394 1105.6 500.438 1106.04 511.702 C 1118.27 511.811 1130.51 511.752 1142.75 511.526 L 1142.14 548.624 C 1129.37 547.67 1118.67 548.139 1105.88 548.941 L 1070.92 548.931 L 1032.15 548.82 L 1032.09 511.833 C 1007.85 511.581 983.248 511.8 958.979 511.819 L 958.795 548.775 C 941.043 548.801 902.043 549.856 885.786 548.298 C 885.622 560.335 885.226 573.39 885.467 585.35 C 861.771 584.596 835.765 584.988 811.929 585.163 L 811.93 621.998 L 701.831 621.943 C 701.498 634.272 701.413 646.607 701.575 658.94 C 677.191 658.933 652.48 659.116 628.126 658.803 L 628.005 695.819 C 603.527 694.841 578.857 696.337 554.687 695.554 L 554.727 732.235 C 530.174 731.976 505.62 732.007 481.068 732.327 C 467.663 732.402 457.9 732.706 444.273 732.134 C 444.029 720.133 444.183 707.744 444.201 695.707 L 444.684 695.044 C 445.466 688.363 445.101 667.344 445.321 659.146 C 461.939 658.484 476.686 659.327 493.217 659.766 C 500.947 659.971 509.535 658.907 517.595 658.707 C 519.166 648.326 518.356 630.49 519.834 625.173 C 532.773 619.41 575.356 626.576 591.07 621.652 L 591.738 621.423 C 592.788 610.205 591.222 598.414 592.148 586.171 C 613.947 584.414 642.191 586.065 664.898 585.881 L 665.163 585.308 C 665.122 572.898 665.126 561.928 665.855 549.542 C 690.034 549.108 714.216 548.928 738.399 549.003 C 738.983 537.204 738.954 524.91 739.044 513.057 C 763.421 511.789 787.183 513.752 812.013 511.798 C 813.478 508.41 813.07 483.185 813.492 476.665 C 835.745 475.055 864.522 477.87 885.459 474.802 C 886.173 470.584 885.961 444.255 886.024 438.198 L 959.208 438.063 C 960.325 426.819 960.247 414.286 960.34 402.907 C 973.414 403.281 1022.13 403.433 1032.13 401.741 L 1033.01 401.47 z"/>
<path transform="translate(0,0)" fill="rgb(0,0,0)" d="M 517.595 658.707 C 519.166 648.326 518.356 630.49 519.834 625.173 C 532.773 619.41 575.356 626.576 591.07 621.652 L 590.961 658.596 C 566.735 658.818 541.946 658.462 517.831 658.968 L 517.816 695.234 C 494.337 695.191 467.904 695.76 444.684 695.044 C 445.466 688.363 445.101 667.344 445.321 659.146 C 461.939 658.484 476.686 659.327 493.217 659.766 C 500.947 659.971 509.535 658.907 517.595 658.707 z"/>
<path transform="translate(0,0)" fill="rgb(102,59,45)" d="M 1033.01 401.47 C 1043.98 401.545 1058.14 401.96 1068.9 401.286 C 1069.14 413.412 1069.21 425.542 1069.09 437.67 C 1075.98 438.937 1098.05 438.035 1106.15 437.842 L 1106.82 438.146 C 1105.29 444.908 1106.22 466.769 1105.96 474.907 L 1068.82 474.917 L 1032.6 475.017 C 1031.62 466.255 1033.69 445.509 1031.12 439.464 L 1028.19 438.411 L 1030.91 437.68 C 1033.17 434.857 1032.06 407.252 1032.13 401.741 L 1033.01 401.47 z"/>
<path transform="translate(0,0)" fill="rgb(102,59,45)" d="M 1067.26 438.428 L 1069.09 437.67 C 1075.98 438.937 1098.05 438.035 1106.15 437.842 L 1106.82 438.146 C 1105.29 444.908 1106.22 466.769 1105.96 474.907 L 1068.82 474.917 C 1069.1 468.438 1070.62 441.769 1067.26 438.428 z"/>
<path transform="translate(0,0)" fill="rgb(0,0,0)" d="M 1033.07 438.262 C 1044.46 438.491 1055.86 438.547 1067.26 438.428 C 1070.62 441.769 1069.1 468.438 1068.82 474.917 L 1032.6 475.017 C 1033.74 465.896 1033.14 447.972 1033.07 438.262 z"/>
<path transform="translate(0,0)" fill="rgb(0,0,0)" d="M 886.024 438.198 L 959.208 438.063 C 958.415 448.109 958.577 464.631 958.842 474.999 C 936.806 475.002 906.845 475.909 885.459 474.802 C 886.173 470.584 885.961 444.255 886.024 438.198 z"/>
<path transform="translate(0,0)" fill="rgb(252,242,140)" d="M 1106.04 511.702 C 1118.27 511.811 1130.51 511.752 1142.75 511.526 L 1142.14 548.624 C 1129.37 547.67 1118.67 548.139 1105.88 548.941 L 1070.92 548.931 C 1068.41 546.331 1069.73 518.039 1069.67 511.962 C 1081.79 512.257 1093.92 512.17 1106.04 511.702 z"/>
<path transform="translate(0,0)" fill="rgb(0,0,0)" d="M 592.148 586.171 C 613.947 584.414 642.191 586.065 664.898 585.881 C 664.847 596.416 664.322 611.521 664.866 621.715 C 653.192 621.829 600.178 622.92 591.738 621.423 C 592.788 610.205 591.222 598.414 592.148 586.171 z"/>
<path transform="translate(0,0)" fill="rgb(0,0,0)" d="M 739.044 513.057 C 763.421 511.789 787.183 513.752 812.013 511.798 C 811.509 519.961 810.945 540.843 811.661 548.826 C 791.131 548.826 757.891 547.755 738.399 549.003 C 738.983 537.204 738.954 524.91 739.044 513.057 z"/>
<path transform="translate(0,0)" fill="rgb(0,0,0)" d="M 738.399 549.003 C 738.058 561.061 737.953 573.124 738.085 585.185 L 665.163 585.308 C 665.122 572.898 665.126 561.928 665.855 549.542 C 690.034 549.108 714.216 548.928 738.399 549.003 z"/>
<path transform="translate(0,0)" fill="rgb(0,0,0)" d="M 813.492 476.665 C 835.745 475.055 864.522 477.87 885.459 474.802 C 885.2 487.136 885.081 499.473 885.101 511.81 L 812.013 511.798 C 813.478 508.41 813.07 483.185 813.492 476.665 z"/>
<path transform="translate(0,0)" fill="rgb(0,0,0)" d="M 960.34 402.907 C 973.414 403.281 1022.13 403.433 1032.13 401.741 C 1032.06 407.252 1033.17 434.857 1030.91 437.68 L 1028.19 438.411 C 1010.63 437.04 977.806 438.045 959.208 438.063 C 960.325 426.819 960.247 414.286 960.34 402.907 z"/>
<path transform="translate(0,0)" fill="rgb(252,242,140)" d="M 371.061 697.292 C 392.227 694.859 420.109 697.651 444.201 695.707 C 444.183 707.744 444.029 720.133 444.273 732.134 C 457.9 732.706 467.663 732.402 481.068 732.327 L 480.967 768.977 C 468.843 768.967 456.258 769.137 444.177 768.929 L 444.129 805.94 L 517.855 805.873 L 517.836 842.271 C 541.885 842.432 567.171 841.927 591.056 842.623 L 591.019 879.126 L 664.898 879.124 L 664.915 916.261 C 654.577 917.259 638.118 916.582 627.606 916.118 C 627.884 928.116 628.083 940.116 628.203 952.117 C 636.691 952.092 645.551 952.206 654.001 952.031 C 670.128 952.15 686.383 952.909 702.448 952.64 C 702.113 963.68 702.716 978.986 701.92 989.198 L 664.823 989.073 L 665.008 952.864 L 654.001 952.804 L 591.079 952.953 L 591.053 915.531 C 579.377 916.181 566.158 915.973 554.32 916.024 L 518.005 916.133 L 518.037 878.818 C 506.296 879.202 492.957 878.927 481.092 878.953 L 457.046 879.215 C 452.314 879.244 446.932 880.042 443.97 877.114 C 444.348 887.996 443.761 904.358 444.693 914.264 C 441.426 916.887 414.751 915.89 407.996 916.075 C 395.377 916.045 382.757 916.097 370.138 916.231 C 357.876 916.169 346.057 916.759 334.067 916.778 L 333.906 915.636 C 327.077 915.652 320.248 915.734 313.42 915.882 C 309.083 915.284 302.522 915.142 297.993 914.905 C 297.416 891.165 297.444 867.822 297.226 844.103 L 297.761 842.204 C 285.05 841.324 273.953 841.209 261.24 841.149 C 260.879 817.19 260.827 793.226 261.084 769.265 C 272.933 769.38 285.236 769.112 297.12 769.009 C 297.136 756.737 297.419 744.466 297.969 732.206 C 319.817 733.089 348.753 732.824 370.673 732.051 C 371.307 721.762 371.022 707.854 371.061 697.292 z"/>
<path transform="translate(0,0)" fill="rgb(173,94,40)" d="M 261.084 769.265 C 272.933 769.38 285.236 769.112 297.12 769.009 L 334.311 769.047 C 333.954 780 335.025 795.432 334.231 805.189 C 343.7 805.168 360.483 804.688 369.214 805.832 L 371.032 806.008 L 371.001 842.277 C 383.323 842.446 395.647 842.41 407.968 842.168 L 444.13 842.085 L 444.251 842.944 C 444.559 853.984 444.142 866.002 443.97 877.114 C 444.348 887.996 443.761 904.358 444.693 914.264 C 441.426 916.887 414.751 915.89 407.996 916.075 C 395.377 916.045 382.757 916.097 370.138 916.231 C 357.876 916.169 346.057 916.759 334.067 916.778 L 333.906 915.636 C 327.077 915.652 320.248 915.734 313.42 915.882 C 309.083 915.284 302.522 915.142 297.993 914.905 C 297.416 891.165 297.444 867.822 297.226 844.103 L 297.761 842.204 C 285.05 841.324 273.953 841.209 261.24 841.149 C 260.879 817.19 260.827 793.226 261.084 769.265 z"/>
<path transform="translate(0,0)" fill="rgb(102,59,45)" d="M 407.817 842.921 L 444.251 842.944 C 444.559 853.984 444.142 866.002 443.97 877.114 C 444.348 887.996 443.761 904.358 444.693 914.264 C 441.426 916.887 414.751 915.89 407.996 916.075 C 407.255 892.73 407.785 866.452 407.817 842.921 z"/>
<path transform="translate(0,0)" fill="rgb(0,0,0)" d="M 297.761 842.204 C 309.815 842.783 321.884 842.995 333.95 842.84 C 333.891 864.05 334.985 895.451 333.906 915.636 C 327.077 915.652 320.248 915.734 313.42 915.882 C 309.083 915.284 302.522 915.142 297.993 914.905 C 297.416 891.165 297.444 867.822 297.226 844.103 L 297.761 842.204 z"/>
<path transform="translate(0,0)" fill="rgb(0,0,0)" d="M 261.084 769.265 C 272.933 769.38 285.236 769.112 297.12 769.009 L 297.18 805.928 C 297.119 813.556 296.537 835.593 297.761 842.204 C 285.05 841.324 273.953 841.209 261.24 841.149 C 260.879 817.19 260.827 793.226 261.084 769.265 z"/>
<path transform="translate(0,0)" fill="rgb(248,196,63)" d="M 297.12 769.009 L 334.311 769.047 C 333.954 780 335.025 795.432 334.231 805.189 C 343.7 805.168 360.483 804.688 369.214 805.832 C 347.302 806.732 319.518 805.939 297.18 805.928 L 297.12 769.009 z"/>
<path transform="translate(0,0)" fill="rgb(0,0,0)" d="M 370.673 732.051 C 370.381 744.565 370.597 756.512 370.832 769.025 C 358.775 769.04 346.332 769.219 334.311 769.047 L 297.12 769.009 C 297.136 756.737 297.419 744.466 297.969 732.206 C 319.817 733.089 348.753 732.824 370.673 732.051 z"/>
<path transform="translate(0,0)" fill="rgb(0,0,0)" d="M 371.061 697.292 C 392.227 694.859 420.109 697.651 444.201 695.707 C 444.183 707.744 444.029 720.133 444.273 732.134 C 423.038 730.925 392.429 731.975 370.673 732.051 C 371.307 721.762 371.022 707.854 371.061 697.292 z"/>
<path transform="translate(0,0)" fill="rgb(248,196,63)" d="M 518.037 878.818 C 528.484 877.638 544.101 878.192 555.013 878.139 C 555.007 890.514 555.292 903.748 554.32 916.024 L 518.005 916.133 L 518.037 878.818 z"/>
<path transform="translate(0,0)" fill="rgb(248,196,63)" d="M 444.13 842.085 C 456.495 841.865 468.861 841.777 481.227 841.823 L 481.092 878.953 L 457.046 879.215 C 452.314 879.244 446.932 880.042 443.97 877.114 C 444.142 866.002 444.559 853.984 444.251 842.944 L 444.13 842.085 z"/>
<path transform="translate(0,0)" fill="rgb(248,196,63)" d="M 371.032 806.008 C 381.253 804.39 397.137 805.027 408.012 804.564 L 407.968 842.168 C 395.647 842.41 383.323 842.446 371.001 842.277 L 371.032 806.008 z"/>
<path transform="translate(0,0)" fill="rgb(243,243,239)" d="M 1032.11 879.062 L 1105.13 879.039 C 1106.04 901.031 1105 929.771 1104.52 952.207 C 1094.11 952.178 1078.42 952.74 1068.63 952.084 C 1068.59 963.776 1067.78 978.003 1068.12 989.242 C 1056.28 989.005 1044.44 988.961 1032.61 989.109 C 1020.56 989.132 1007.42 989.429 995.47 989.166 C 995.289 1001.27 994.922 1013.8 995.187 1025.87 L 921.74 1026.03 C 921.395 1038.4 921.219 1050.77 921.212 1063.14 C 899.897 1062.93 878.581 1062.94 857.266 1063.15 C 847.574 1062.39 822.914 1062.75 812.9 1063 C 813.515 1053.16 813.004 1035.83 812.419 1026.02 C 801.834 1024.92 786.066 1025.66 775.089 1025.88 C 762.804 1026.16 750.514 1026.23 738.226 1026.07 L 738.085 989.134 L 701.92 989.198 C 702.716 978.986 702.113 963.68 702.448 952.64 C 686.383 952.909 670.128 952.15 654.001 952.031 C 645.551 952.206 636.691 952.092 628.203 952.117 C 628.083 940.116 627.884 928.116 627.606 916.118 C 638.118 916.582 654.577 917.259 664.915 916.261 C 689.284 915.988 713.655 915.903 738.025 916.006 L 738.044 952.981 C 762.684 952.768 787.325 952.752 811.965 952.933 C 811.718 965.447 811.487 977.256 811.845 989.768 C 826.456 989.115 871.872 988.731 885.481 990.191 C 884.928 978.971 885.376 964.247 885.416 952.777 L 921.39 952.922 L 958.883 952.849 L 958.83 916.098 C 983.248 915.789 1008.17 916.036 1032.62 916.042 C 1031.99 903.923 1032.16 891.233 1032.11 879.062 z"/>
<path transform="translate(0,0)" fill="rgb(252,242,140)" d="M 885.416 952.777 L 921.39 952.922 C 921.895 965.12 922.311 976.855 923.497 989.015 C 917.16 989.377 890.517 991.232 885.481 990.191 C 884.928 978.971 885.376 964.247 885.416 952.777 z"/>
<path transform="translate(0,0)" fill="rgb(243,243,239)" d="M 1033.09 181.478 C 1068.99 182.311 1105.56 180.016 1141.93 181.89 L 1142.8 217.567 C 1166.68 218.449 1191.61 217.81 1215.61 218.025 C 1215.66 230.009 1215.82 241.993 1216.08 253.974 C 1239.82 256.622 1264.97 254.525 1289.14 255.641 C 1289.24 266.852 1289.04 279.96 1289.85 291.002 C 1306.13 293.228 1344.45 292.113 1362.69 292.014 C 1362.74 300.252 1362.37 320.125 1363.22 327.413 L 1363.66 327.79 C 1379.22 330.013 1418.13 328.657 1436.13 329.004 C 1436.06 338.144 1435.47 356.104 1436.72 364.561 L 1436.68 376.26 L 1436.75 401.126 C 1439.6 401.193 1453.99 401.367 1455.82 401.833 C 1449.96 402.763 1442.78 402.414 1436.71 402.347 C 1436.37 414.479 1436.61 426.003 1436.85 438.129 C 1424.47 437.96 1412.07 437.982 1399.68 438.196 L 1398.99 475.56 C 1386.33 473.853 1341.35 474.956 1326 474.771 C 1326.12 462.822 1325.95 450.599 1325.91 438.628 C 1320.15 439.087 1308.4 438.631 1302.12 438.58 C 1285.8 438.49 1269.48 438.302 1253.16 438.016 L 1252.94 402.1 L 1179.7 401.826 L 1178.9 402.04 C 1179.14 414.26 1178.82 425.771 1178.47 437.98 C 1171.18 438.054 1148.81 438.752 1142.61 438.038 L 1142.03 438.409 C 1130.29 438.181 1118.55 438.094 1106.82 438.146 L 1106.15 437.842 C 1098.05 438.035 1075.98 438.937 1069.09 437.67 C 1069.21 425.542 1069.14 413.412 1068.9 401.286 C 1058.14 401.96 1043.98 401.545 1033.01 401.47 C 1032.96 389.351 1033.02 377.232 1033.18 365.114 L 1069.17 364.958 L 1068.93 328.779 L 1068.4 328.181 C 1058.24 327.182 1043.19 327.165 1033.06 327.501 C 1032.14 279.916 1032.59 229.135 1033.09 181.478 z"/>
<path transform="translate(0,0)" fill="rgb(0,0,0)" d="M 1033.09 181.478 C 1068.99 182.311 1105.56 180.016 1141.93 181.89 L 1142.8 217.567 C 1142.69 229.042 1142.13 242.896 1142.5 254.132 C 1130.39 254.193 1117.85 254.089 1105.78 254.36 C 1106.01 278.98 1106.03 303.601 1105.83 328.22 C 1094.52 327.782 1079.7 327.816 1068.4 328.181 C 1058.24 327.182 1043.19 327.165 1033.06 327.501 C 1032.14 279.916 1032.59 229.135 1033.09 181.478 z"/>
<path transform="translate(0,0)" fill="rgb(164,160,157)" d="M 1142.8 217.567 C 1142.69 229.042 1142.13 242.896 1142.5 254.132 C 1130.39 254.193 1117.85 254.089 1105.78 254.36 C 1106.01 278.98 1106.03 303.601 1105.83 328.22 C 1094.52 327.782 1079.7 327.816 1068.4 328.181 C 1069.58 320.525 1069.13 297.524 1069.12 289.19 L 1069.08 217.944 C 1093.65 217.976 1118.23 217.85 1142.8 217.567 z"/>
<path transform="translate(0,0)" fill="rgb(102,59,45)" d="M 1068.4 328.181 C 1079.7 327.816 1094.52 327.782 1105.83 328.22 L 1141.97 328.164 C 1142.15 340.241 1141.93 353.216 1142.32 365.129 C 1154.67 364.996 1167.02 364.949 1179.37 364.99 C 1179.25 371.329 1178.4 397.007 1179.7 401.826 L 1178.9 402.04 C 1179.14 414.26 1178.82 425.771 1178.47 437.98 C 1171.18 438.054 1148.81 438.752 1142.61 438.038 L 1142.03 438.409 C 1130.29 438.181 1118.55 438.094 1106.82 438.146 L 1106.15 437.842 C 1098.05 438.035 1075.98 438.937 1069.09 437.67 C 1069.21 425.542 1069.14 413.412 1068.9 401.286 C 1058.14 401.96 1043.98 401.545 1033.01 401.47 C 1032.96 389.351 1033.02 377.232 1033.18 365.114 L 1069.17 364.958 L 1068.93 328.779 L 1068.4 328.181 z"/>
<path transform="translate(0,0)" fill="rgb(173,94,40)" d="M 1069.17 364.958 L 1092.97 364.847 C 1109.38 365.432 1125.87 364.721 1142.23 365.211 C 1142.11 377.927 1142.11 388.66 1142.83 401.34 C 1130.36 401.498 1117.89 401.511 1105.42 401.38 C 1106.22 413.739 1105.36 426.439 1106.15 437.842 C 1098.05 438.035 1075.98 438.937 1069.09 437.67 C 1069.21 425.542 1069.14 413.412 1068.9 401.286 C 1058.14 401.96 1043.98 401.545 1033.01 401.47 C 1032.96 389.351 1033.02 377.232 1033.18 365.114 L 1069.17 364.958 z"/>
<path transform="translate(0,0)" fill="rgb(0,0,0)" d="M 1033.18 365.114 L 1069.17 364.958 C 1068.96 377.066 1068.87 389.176 1068.9 401.286 C 1058.14 401.96 1043.98 401.545 1033.01 401.47 C 1032.96 389.351 1033.02 377.232 1033.18 365.114 z"/>
<path transform="translate(0,0)" fill="rgb(0,0,0)" d="M 1142.87 401.844 C 1154.88 401.608 1166.89 401.673 1178.9 402.04 C 1179.14 414.26 1178.82 425.771 1178.47 437.98 C 1171.18 438.054 1148.81 438.752 1142.61 438.038 C 1141.66 431.971 1142.81 409.139 1142.87 401.844 z"/>
<path transform="translate(0,0)" fill="rgb(0,0,0)" d="M 1068.93 328.779 C 1081.17 328.931 1093.42 329.014 1105.67 329.028 C 1105.69 340.289 1106 353.041 1105.37 364.173 C 1102.12 364.276 1095.92 364.293 1092.97 364.847 L 1069.17 364.958 L 1068.93 328.779 z"/>
<path transform="translate(0,0)" fill="rgb(201,199,194)" d="M 1142.8 217.567 C 1166.68 218.449 1191.61 217.81 1215.61 218.025 C 1215.66 230.009 1215.82 241.993 1216.08 253.974 L 1215.97 255.034 L 1142.09 255.218 C 1142.05 266.545 1141.78 278.449 1142.54 289.71 C 1153.66 291.54 1167.48 291.163 1178.96 291.272 L 1179.04 328.269 C 1167.53 328.697 1154.2 327.866 1141.97 328.164 L 1105.83 328.22 C 1106.03 303.601 1106.01 278.98 1105.78 254.36 C 1117.85 254.089 1130.39 254.193 1142.5 254.132 C 1142.13 242.896 1142.69 229.042 1142.8 217.567 z"/>
<path transform="translate(0,0)" fill="rgb(0,0,0)" d="M 1142.8 217.567 C 1166.68 218.449 1191.61 217.81 1215.61 218.025 C 1215.66 230.009 1215.82 241.993 1216.08 253.974 L 1142.5 254.132 C 1142.13 242.896 1142.69 229.042 1142.8 217.567 z"/>
<path transform="translate(0,0)" fill="rgb(164,160,157)" d="M 1141.97 328.164 C 1154.2 327.866 1167.53 328.697 1179.04 328.269 L 1215.9 328.058 C 1215.9 339.929 1216.07 352.167 1215.59 363.999 C 1220.18 364.124 1244.14 364.311 1247.2 364.873 L 1252.26 365.069 C 1254.37 375.493 1251.81 391.904 1252.94 402.1 L 1179.7 401.826 C 1178.4 397.007 1179.25 371.329 1179.37 364.99 C 1167.02 364.949 1154.67 364.996 1142.32 365.129 C 1141.93 353.216 1142.15 340.241 1141.97 328.164 z"/>
<path transform="translate(0,0)" fill="rgb(0,0,0)" d="M 1247.2 364.873 L 1252.26 365.069 C 1254.37 375.493 1251.81 391.904 1252.94 402.1 L 1179.7 401.826 C 1178.4 397.007 1179.25 371.329 1179.37 364.99 C 1199.73 364.996 1227.64 365.852 1247.2 364.873 z"/>
<path transform="translate(0,0)" fill="rgb(0,0,0)" d="M 1326.03 401.92 C 1338.04 401.043 1351.68 401.614 1363.83 401.814 C 1362.59 411.111 1363.01 428.302 1363.11 438.126 L 1399.68 438.196 L 1398.99 475.56 C 1386.33 473.853 1341.35 474.956 1326 474.771 C 1326.12 462.822 1325.95 450.599 1325.91 438.628 L 1326.03 401.92 z"/>
<path transform="translate(0,0)" fill="rgb(164,160,157)" d="M 1326.03 401.92 C 1338.04 401.043 1351.68 401.614 1363.83 401.814 C 1362.59 411.111 1363.01 428.302 1363.11 438.126 C 1350.7 438.163 1338.31 438.103 1325.91 438.628 L 1326.03 401.92 z"/>
<path transform="translate(0,0)" fill="rgb(201,199,194)" d="M 1435.68 400.954 C 1435.65 396.008 1434.88 379.178 1436.68 376.26 L 1436.75 401.126 C 1439.6 401.193 1453.99 401.367 1455.82 401.833 C 1449.96 402.763 1442.78 402.414 1436.71 402.347 C 1436.37 414.479 1436.61 426.003 1436.85 438.129 C 1424.47 437.96 1412.07 437.982 1399.68 438.196 L 1363.11 438.126 C 1363.01 428.302 1362.59 411.111 1363.83 401.814 C 1387.86 402.015 1411.66 401.283 1435.68 400.954 z"/>
<path transform="translate(0,0)" fill="rgb(0,0,0)" d="M 1252.94 402.1 C 1275.34 401.431 1296.78 402.227 1318.75 401.718 L 1326.03 401.92 L 1325.91 438.628 C 1320.15 439.087 1308.4 438.631 1302.12 438.58 C 1285.8 438.49 1269.48 438.302 1253.16 438.016 L 1252.94 402.1 z"/>
<path transform="translate(0,0)" fill="rgb(0,0,0)" d="M 1363.66 327.79 C 1379.22 330.013 1418.13 328.657 1436.13 329.004 C 1436.06 338.144 1435.47 356.104 1436.72 364.561 C 1413.18 365.425 1386.75 364.947 1363 364.952 C 1362.87 355.5 1362.38 336.486 1363.66 327.79 z"/>
<path transform="translate(0,0)" fill="rgb(0,0,0)" d="M 1216.08 253.974 C 1239.82 256.622 1264.97 254.525 1289.14 255.641 C 1289.24 266.852 1289.04 279.96 1289.85 291.002 L 1215.91 291.276 L 1215.97 255.034 L 1216.08 253.974 z"/>
<path transform="translate(0,0)" fill="rgb(0,0,0)" d="M 1289.85 291.002 C 1306.13 293.228 1344.45 292.113 1362.69 292.014 C 1362.74 300.252 1362.37 320.125 1363.22 327.413 C 1351.14 328.946 1304.28 328.001 1289.41 327.967 C 1289.68 315.647 1289.83 303.325 1289.85 291.002 z"/>
<path transform="translate(0,0)" fill="rgb(164,160,157)" d="M 1252.8 364.783 C 1264.88 364.91 1276.96 364.904 1289.05 364.767 C 1289.56 376.718 1289.7 388.682 1289.47 400.642 C 1294.92 400.614 1315.35 399.941 1318.75 401.718 C 1296.78 402.227 1275.34 401.431 1252.94 402.1 C 1251.81 391.904 1254.37 375.493 1252.26 365.069 L 1252.8 364.783 z"/>
<path transform="translate(0,0)" fill="rgb(201,199,194)" d="M 1215.9 328.058 L 1253.1 327.954 C 1253.06 340.231 1252.96 352.507 1252.8 364.783 L 1252.26 365.069 L 1247.2 364.873 C 1244.14 364.311 1220.18 364.124 1215.59 363.999 C 1216.07 352.167 1215.9 339.929 1215.9 328.058 z"/>
<path transform="translate(0,0)" fill="rgb(201,199,194)" d="M 1289.05 364.767 C 1298.96 363.915 1315.71 364.601 1326.23 364.78 L 1326.03 401.92 L 1318.75 401.718 C 1315.35 399.941 1294.92 400.614 1289.47 400.642 C 1289.7 388.682 1289.56 376.718 1289.05 364.767 z"/>
<path transform="translate(0,0)" fill="rgb(0,0,0)" d="M 1455.82 401.833 C 1472.63 401.476 1493.43 401.325 1510.28 401.939 C 1534.06 402.648 1559.1 401.831 1583.04 401.792 C 1583.27 413.663 1583.35 426.033 1583.83 437.855 C 1608.08 438.265 1632.57 437.66 1656.65 438.148 C 1657.39 483.783 1654.06 540.395 1656.59 584.817 C 1633.4 583.772 1606.42 584.615 1582.98 585.125 C 1584.13 605.334 1583.49 637.78 1582.79 658.405 C 1570.65 658.369 1558.5 658.576 1546.36 659.026 C 1547.1 670.971 1545.91 682.785 1546.01 694.738 L 1509.96 695.11 C 1509.98 731.271 1510.61 769.386 1509.73 805.392 C 1497.48 805.797 1485.23 805.954 1472.98 805.863 L 1473.14 801.138 C 1472.45 791.967 1472.88 779.211 1472.93 769.765 C 1472.91 745.625 1472.52 719.902 1473.19 695.891 L 1472.84 659.053 L 1435.83 658.91 C 1428.82 659.109 1421.81 659.085 1414.8 658.837 C 1421.81 658.038 1428.83 658.126 1435.89 658.054 C 1436.1 650.685 1437.14 628.156 1436.23 622.153 L 1437.04 621.927 C 1436.79 597.6 1436.78 573.272 1437.01 548.945 C 1448.52 549.203 1460.93 548.968 1472.51 548.949 L 1473.03 548.522 C 1473.54 538.4 1473.47 522.722 1472.74 512.593 L 1472.38 512.239 C 1450.89 510.81 1423.33 511.836 1401.02 511.36 C 1400.1 499.491 1400.8 487.694 1399.64 475.8 L 1398.99 475.56 L 1399.68 438.196 C 1412.07 437.982 1424.47 437.96 1436.85 438.129 C 1436.61 426.003 1436.37 414.479 1436.71 402.347 C 1442.78 402.414 1449.96 402.763 1455.82 401.833 z"/>
<path transform="translate(0,0)" fill="rgb(164,160,157)" d="M 1455.82 401.833 C 1472.63 401.476 1493.43 401.325 1510.28 401.939 C 1534.06 402.648 1559.1 401.831 1583.04 401.792 C 1583.27 413.663 1583.35 426.033 1583.83 437.855 C 1583.46 446.493 1583.04 454.856 1583.15 463.515 C 1582.97 467.355 1583.3 471.235 1581.73 474.453 C 1574.39 475.538 1555.17 475.023 1546.86 474.974 C 1545.96 498.601 1546.34 525.028 1546.69 548.821 C 1534.42 548.995 1522.15 548.996 1509.88 548.821 C 1499.59 548.598 1482.21 549.514 1473.03 548.522 C 1473.54 538.4 1473.47 522.722 1472.74 512.593 L 1472.38 512.239 C 1450.89 510.81 1423.33 511.836 1401.02 511.36 C 1400.1 499.491 1400.8 487.694 1399.64 475.8 L 1398.99 475.56 L 1399.68 438.196 C 1412.07 437.982 1424.47 437.96 1436.85 438.129 C 1436.61 426.003 1436.37 414.479 1436.71 402.347 C 1442.78 402.414 1449.96 402.763 1455.82 401.833 z"/>
<path transform="translate(0,0)" fill="rgb(201,199,194)" d="M 1455.82 401.833 C 1472.63 401.476 1493.43 401.325 1510.28 401.939 C 1534.06 402.648 1559.1 401.831 1583.04 401.792 C 1583.27 413.663 1583.35 426.033 1583.83 437.855 C 1583.46 446.493 1583.04 454.856 1583.15 463.515 C 1582.97 467.355 1583.3 471.235 1581.73 474.453 C 1574.39 475.538 1555.17 475.023 1546.86 474.974 C 1526.51 473.801 1494.33 474.899 1473.25 474.952 L 1472.85 437.965 C 1460.85 438.189 1448.85 438.244 1436.85 438.129 C 1436.61 426.003 1436.37 414.479 1436.71 402.347 C 1442.78 402.414 1449.96 402.763 1455.82 401.833 z"/>
<path transform="translate(0,0)" fill="rgb(243,243,239)" d="M 1455.82 401.833 C 1472.63 401.476 1493.43 401.325 1510.28 401.939 C 1510.66 412.709 1510.03 425.428 1509.76 436.333 C 1506.1 439.099 1479.18 438.012 1472.85 437.965 C 1460.85 438.189 1448.85 438.244 1436.85 438.129 C 1436.61 426.003 1436.37 414.479 1436.71 402.347 C 1442.78 402.414 1449.96 402.763 1455.82 401.833 z"/>
<path transform="translate(0,0)" fill="rgb(0,0,0)" d="M 1510.28 401.939 C 1534.06 402.648 1559.1 401.831 1583.04 401.792 C 1583.27 413.663 1583.35 426.033 1583.83 437.855 C 1565.14 438.433 1530.96 438.554 1511.47 437.812 C 1510.9 437.319 1510.33 436.826 1509.76 436.333 C 1510.03 425.428 1510.66 412.709 1510.28 401.939 z"/>
<path transform="translate(0,0)" fill="rgb(0,0,0)" d="M 1399.64 475.8 C 1418.16 473.785 1453.42 474.933 1473.01 475.069 C 1473.13 483.268 1473.8 505.009 1472.38 512.239 C 1450.89 510.81 1423.33 511.836 1401.02 511.36 C 1400.1 499.491 1400.8 487.694 1399.64 475.8 z"/>
<path transform="translate(0,0)" fill="rgb(0,0,0)" d="M 1472.74 512.593 C 1483.39 510.569 1498.92 511.462 1510.06 511.201 L 1509.88 548.821 C 1499.59 548.598 1482.21 549.514 1473.03 548.522 C 1473.54 538.4 1473.47 522.722 1472.74 512.593 z"/>
<path transform="translate(0,0)" fill="rgb(173,94,40)" d="M 1473.03 548.522 C 1482.21 549.514 1499.59 548.598 1509.88 548.821 C 1522.15 548.996 1534.42 548.995 1546.69 548.821 C 1546.65 565.881 1546.78 582.942 1547.11 600 C 1547.05 616.926 1547.7 641.851 1546.29 658.136 C 1539.48 659.164 1517.87 659.048 1510.15 658.872 C 1510.13 669.682 1510.53 685.36 1509.79 695.746 C 1497.84 695.454 1485.89 695.23 1473.94 695.075 C 1473.79 718.404 1473.77 741.734 1473.87 765.064 C 1473.88 771.91 1474.26 795.096 1473.14 801.138 C 1472.45 791.967 1472.88 779.211 1472.93 769.765 C 1472.91 745.625 1472.52 719.902 1473.19 695.891 L 1472.84 659.053 L 1435.83 658.91 C 1428.82 659.109 1421.81 659.085 1414.8 658.837 C 1421.81 658.038 1428.83 658.126 1435.89 658.054 C 1436.1 650.685 1437.14 628.156 1436.23 622.153 L 1437.04 621.927 C 1436.79 597.6 1436.78 573.272 1437.01 548.945 C 1448.52 549.203 1460.93 548.968 1472.51 548.949 L 1473.03 548.522 z"/>
<path transform="translate(0,0)" fill="rgb(102,59,45)" d="M 1473.03 548.522 C 1482.21 549.514 1499.59 548.598 1509.88 548.821 C 1522.15 548.996 1534.42 548.995 1546.69 548.821 C 1546.65 565.881 1546.78 582.942 1547.11 600 L 1546.34 600 L 1546.07 585.903 C 1530.81 585.061 1515.93 585.299 1500.69 585.37 C 1492.97 585.407 1480.31 586.279 1473.02 585.207 C 1473.07 577.605 1473.65 555.313 1472.51 548.949 L 1473.03 548.522 z"/>
<path transform="translate(0,0)" fill="rgb(0,0,0)" d="M 1437.01 548.945 C 1448.52 549.203 1460.93 548.968 1472.51 548.949 C 1473.65 555.313 1473.07 577.605 1473.02 585.207 L 1473.03 621.62 L 1437.04 621.927 C 1436.79 597.6 1436.78 573.272 1437.01 548.945 z"/>
<path transform="translate(0,0)" fill="rgb(102,59,45)" d="M 1546.34 600 L 1547.11 600 C 1547.05 616.926 1547.7 641.851 1546.29 658.136 C 1539.48 659.164 1517.87 659.048 1510.15 658.872 C 1509.77 646.899 1509.98 634.071 1509.99 622.02 C 1521.42 622.001 1535.06 621.627 1546.28 622.578 L 1546.34 600 z"/>
<path transform="translate(0,0)" fill="rgb(102,59,45)" d="M 1473.03 621.62 C 1473.09 633.531 1473.03 646.324 1473.53 658.195 C 1462.73 658.105 1445.99 658.685 1435.89 658.054 C 1436.1 650.685 1437.14 628.156 1436.23 622.153 L 1437.04 621.927 L 1473.03 621.62 z"/>
<path transform="translate(0,0)" fill="rgb(102,59,45)" d="M 1473.46 658.314 C 1483.48 659.125 1499.68 658.787 1510.15 658.872 C 1510.13 669.682 1510.53 685.36 1509.79 695.746 C 1497.84 695.454 1485.89 695.23 1473.94 695.075 C 1474 682.822 1474.24 670.537 1473.46 658.314 z"/>
<path transform="translate(0,0)" fill="rgb(126,124,122)" d="M 1583.15 463.515 C 1583.45 467.416 1583.75 471.08 1583.83 475.009 L 1620.76 474.819 C 1619.8 498.821 1620.25 524.711 1620.27 548.899 L 1546.69 548.821 C 1546.34 525.028 1545.96 498.601 1546.86 474.974 C 1555.17 475.023 1574.39 475.538 1581.73 474.453 C 1583.3 471.235 1582.97 467.355 1583.15 463.515 z"/>
<path transform="translate(0,0)" fill="rgb(0,0,0)" d="M 1106.82 438.146 C 1118.55 438.094 1130.29 438.181 1142.03 438.409 C 1142.19 450.854 1142.25 463.301 1142.2 475.747 C 1153.84 475.581 1167.2 475.616 1178.81 476.054 C 1178.82 484.458 1178.41 503.868 1179.39 511.36 L 1142.75 511.526 C 1130.51 511.752 1118.27 511.811 1106.04 511.702 C 1105.6 500.438 1105.98 486.394 1105.96 474.907 C 1106.22 466.769 1105.29 444.908 1106.82 438.146 z"/>
<path transform="translate(0,0)" fill="rgb(0,0,0)" d="M 1436.72 364.561 C 1452 365.831 1493.89 365.364 1510.15 364.949 C 1510.09 376.665 1509.75 390.391 1510.28 401.939 C 1493.43 401.325 1472.63 401.476 1455.82 401.833 C 1453.99 401.367 1439.6 401.193 1436.75 401.126 L 1436.68 376.26 L 1436.72 364.561 z"/>
<path transform="translate(0,0)" fill="rgb(0,0,0)" d="M 702.01 1577.46 C 714.078 1577.34 726.097 1576.99 738.115 1578.05 C 738.389 1588.74 738.232 1603.39 737.425 1613.92 C 713.551 1614.43 689.668 1614.42 665.794 1613.89 C 665.158 1606.06 664.163 1585.55 664.924 1578.16 C 677.609 1577.66 689.311 1577.16 702.01 1577.46 z"/>
</svg>