<?xml version="1.0" encoding="UTF-8"?>
<svg version="1.1" xmlns="http://www.w3.org/2000/svg" width="350" height="350">
<path d="M0 0 C4.27263541 3.11546332 6.94935291 6.90335655 10 11.1875 C10.79487742 12.28175555 11.59048986 13.37547744 12.38671875 14.46875 C16.33806059 19.92343602 20.18622732 25.42580994 23.875 31.0625 C28.53181883 38.1336122 33.66362178 44.84135424 38.79833984 51.56860352 C39.91489302 53.07284247 40.96085452 54.62878178 42 56.1875 C59.83912772 53.81077089 77.11803713 47.6462286 93.625 40.625 C99.13047287 38.36845142 103.0891835 37.02471643 109 38.1875 C111.6875 40.625 111.6875 40.625 113 44.1875 C112.53555558 50.78611606 109.71142584 56.07616557 106.25 61.5625 C105.33700836 63.05505275 104.42554547 64.54854171 103.515625 66.04296875 C103.07798828 66.75630371 102.64035156 67.46963867 102.18945312 68.20458984 C100.68715089 70.7090436 99.33803327 73.27967685 98 75.875 C92.89620708 85.37211467 86.22255967 94.20467089 79 102.1875 C80.35759697 106.08712804 82.11227839 108.83575645 84.75 112 C85.46671875 112.87527344 86.1834375 113.75054687 86.921875 114.65234375 C87.60765625 115.48894531 88.2934375 116.32554687 89 117.1875 C93.15874931 122.4682881 96.8994355 127.98473418 100.60546875 133.58984375 C103.49034616 137.94013456 106.43079216 142.25222419 109.375 146.5625 C110.20717041 147.7836853 110.20717041 147.7836853 111.05615234 149.02954102 C113.64817327 152.81779207 116.26363228 156.57915283 118.98828125 160.2734375 C119.44605957 160.89686035 119.90383789 161.5202832 120.37548828 162.16259766 C121.5993503 163.81825023 122.83629355 165.46421091 124.07421875 167.109375 C126.502921 170.99135751 128.12585599 174.85916421 127.875 179.5 C126.66961284 181.82467523 125.39628511 182.19044431 123 183.1875 C108.3652648 186.17256332 91.7904893 175.32337784 79 169.1875 C71.83056663 165.81958053 64.56157733 162.76913874 57.2253418 159.78881836 C51.6777004 157.51503058 46.29296829 155.00954943 41 152.1875 C40.76925781 152.70054687 40.53851563 153.21359375 40.30078125 153.7421875 C38.51349425 157.10207237 36.33487455 160.17729386 34.1875 163.3125 C28.67054728 171.50248299 24.22684747 179.35139972 21.67578125 188.9609375 C20.99756453 191.19552436 20.10213893 193.13330063 19 195.1875 C17.06177404 195.15444498 15.12414332 195.08500095 13.1875 195 C12.10855469 194.96519531 11.02960938 194.93039062 9.91796875 194.89453125 C7 194.1875 7 194.1875 5.02734375 192.046875 C3.681834 188.30195813 4.32509696 186.45084667 5.375 182.625 C8.01532703 171.39544414 6.93425504 159.86858535 6.20703125 148.45117188 C6.07043884 146.29790853 5.96302261 144.14256982 5.88671875 141.98632812 C5.83644531 141.00470703 5.78617187 140.02308594 5.734375 139.01171875 C5.70053711 138.14764404 5.66669922 137.28356934 5.63183594 136.39331055 C5.17655658 133.99123575 5.17655658 133.99123575 2.87744141 132.51708984 C0.30582687 131.21411735 -2.30335457 130.20357127 -5 129.1875 C-6.39080582 128.44556455 -7.7666464 127.6748028 -9.125 126.875 C-19.51400043 121.0425787 -30.33075414 115.9494108 -41.15234375 110.97729492 C-44.46038259 109.44435037 -47.67167279 107.84306636 -50.828125 106.015625 C-53.84220925 104.16163444 -53.84220925 104.16163444 -56.6875 103.1875 C-59.69403048 101.88737871 -61.11876511 100.90483929 -63 98.1875 C-63.64625266 95.045994 -63.81001378 92.29674543 -63 89.1875 C-59.58664184 84.47281147 -56.1707642 81.64901748 -50.90625 79.09375 C-49.86917908 78.58430847 -49.86917908 78.58430847 -48.81115723 78.0645752 C-40.39759838 74.15382407 -31.55948553 72.43210519 -22.5 70.6875 C-20.78994239 70.34061652 -19.08030256 69.99166693 -17.37109375 69.640625 C-13.2517964 68.79914897 -9.12795268 67.98538271 -5 67.1875 C-6.07091111 58.44285845 -7.15991452 49.70827502 -8.5 41 C-8.62673096 40.15614746 -8.75346191 39.31229492 -8.8840332 38.44287109 C-9.43424936 34.79450936 -10.0056459 31.15497547 -10.63671875 27.51953125 C-14.10223971 7.34085956 -14.10223971 7.34085956 -10 1.1875 C-6.23464463 -0.40553496 -3.98553988 -1.07941705 0 0 Z " fill="#0E205C" transform="translate(78,113.8125)"/>
<path d="M0 0 C4.40380719 0.49313988 5.98502665 3.34071976 8.70776367 6.60864258 C11.88620956 10.93846027 14.26246798 15.55019788 16.62133789 20.36303711 C17.64512945 22.39281943 18.67118747 24.4214601 19.69946289 26.44897461 C20.19897461 27.43865234 20.69848633 28.42833008 21.21313477 29.44799805 C23.65991589 34.19371362 26.31056993 38.81958404 29.00585938 43.42773438 C30.70755558 46.37645671 31.95459238 48.9824028 32.68383789 52.30053711 C33.49800171 52.21074585 33.49800171 52.21074585 34.32861328 52.11914062 C41.56715455 51.35543793 48.81549305 50.83888444 56.07861328 50.37060547 C58.11461441 50.23847345 60.15018218 50.10067464 62.18579102 49.96264648 C83.55863111 48.5457577 83.55863111 48.5457577 92.68383789 51.30053711 C94.35920679 66.1927051 94.35920679 66.1927051 90.76196289 70.71850586 C88.37633129 72.31716135 85.93821635 73.74305483 83.44311523 75.16137695 C79.91926801 77.44312427 76.96383588 80.41355231 73.93383789 83.30053711 C73.28455322 83.91405029 72.63526855 84.52756348 71.96630859 85.15966797 C68.22143056 88.73320857 64.62773359 92.36596264 61.31274414 96.34741211 C59.18989851 98.89279057 56.96840366 101.34149679 54.74633789 103.80053711 C53.58811523 105.08444336 53.58811523 105.08444336 52.40649414 106.39428711 C51.83801758 107.02334961 51.26954102 107.65241211 50.68383789 108.30053711 C52.03524826 111.17684037 53.39005741 114.05152714 54.74633789 116.92553711 C55.15609863 117.7942041 55.56585938 118.66287109 55.98803711 119.55786133 C58.35452213 124.55520707 60.78568529 129.50567692 63.30883789 134.42553711 C65.91672096 139.63518147 68.37310815 144.8910756 70.68383789 150.23803711 C71.15684326 151.28531982 71.15684326 151.28531982 71.6394043 152.35375977 C73.60848068 157.03354187 73.9777415 160.23067443 72.68383789 165.30053711 C70.68383789 168.30053711 70.68383789 168.30053711 68.44165039 168.84741211 C67.57282227 168.91444336 66.70399414 168.98147461 65.80883789 169.05053711 C64.94516602 169.12788086 64.08149414 169.20522461 63.19165039 169.28491211 C60.77949446 169.29994112 58.94518429 169.12885051 56.68383789 168.30053711 C56.37446289 167.66116211 56.06508789 167.02178711 55.74633789 166.36303711 C54.81104486 164.0360132 54.81104486 164.0360132 52.05883789 163.05053711 C50.88321289 162.67928711 50.88321289 162.67928711 49.68383789 162.30053711 C49.68383789 161.64053711 49.68383789 160.98053711 49.68383789 160.30053711 C48.85883789 160.09428711 48.03383789 159.88803711 47.18383789 159.67553711 C43.4406775 158.20500981 40.95710866 156.33966265 37.82446289 153.88256836 C34.97831926 151.7791228 31.97429016 150.12770458 28.85180664 148.47241211 C26.81490171 147.37138242 24.88881042 146.16382774 22.93383789 144.92553711 C19.89784526 143.11924072 19.89784526 143.11924072 17.05883789 143.23803711 C13.85205152 144.67265207 12.03367482 146.70969127 9.68383789 149.30053711 C8.38804142 150.67037909 7.0639104 152.01564201 5.68383789 153.30053711 C5.02383789 153.30053711 4.36383789 153.30053711 3.68383789 153.30053711 C3.4118457 153.89608398 3.13985352 154.49163086 2.85961914 155.10522461 C1.7123983 157.2472117 0.53741259 158.67593888 -1.12866211 160.42553711 C-5.6790066 165.59739207 -8.33280484 171.74509864 -10.81616211 178.11303711 C-12.4727485 181.6332832 -14.43011635 183.72649629 -17.31616211 186.30053711 C-17.83178711 186.01178711 -18.34741211 185.72303711 -18.87866211 185.42553711 C-21.93972935 184.01273684 -25.06561129 183.17568541 -28.31616211 182.30053711 C-28.60688346 176.83355763 -27.62966713 172.55360111 -25.75366211 167.48803711 C-23.01677843 159.69889275 -20.71230173 151.83449402 -18.56616211 143.86303711 C-18.27281982 142.78626709 -17.97947754 141.70949707 -17.67724609 140.60009766 C-15.8850448 133.87895464 -14.44545876 127.16417017 -13.31616211 120.30053711 C-13.94006836 120.00663086 -14.56397461 119.71272461 -15.20678711 119.40991211 C-17.75933477 118.06746112 -19.27171145 116.34498777 -21.31616211 114.30053711 C-23.92339786 112.21970288 -26.62279657 110.26790395 -29.31616211 108.30053711 C-30.22495117 107.62120117 -31.13374023 106.94186523 -32.07006836 106.24194336 C-33.0175293 105.5394043 -33.96499023 104.83686523 -34.94116211 104.11303711 C-35.82030273 103.45948242 -36.69944336 102.80592773 -37.60522461 102.13256836 C-40.41305119 100.2350602 -43.26151976 98.76072329 -46.31616211 97.30053711 C-49.19116211 95.73803711 -49.19116211 95.73803711 -51.31616211 94.30053711 C-51.31616211 93.64053711 -51.31616211 92.98053711 -51.31616211 92.30053711 C-52.03932617 92.04014648 -52.76249023 91.77975586 -53.50756836 91.51147461 C-56.4101383 90.26001886 -58.696579 88.77568571 -61.25366211 86.92553711 C-63.90044565 85.02997302 -66.5356219 83.15578703 -69.25366211 81.36303711 C-73.20492892 78.70197987 -77.0089915 75.85456886 -80.82788086 73.00756836 C-83.27365503 71.16142259 -83.27365503 71.16142259 -86.31616211 70.30053711 C-86.31616211 69.64053711 -86.31616211 68.98053711 -86.31616211 68.30053711 C-86.91428711 68.07366211 -87.51241211 67.84678711 -88.12866211 67.61303711 C-91.01037446 65.8840097 -91.98688639 64.37885982 -93.31616211 61.30053711 C-93.00366211 57.98803711 -93.00366211 57.98803711 -92.31616211 55.30053711 C-91.65616211 55.30053711 -90.99616211 55.30053711 -90.31616211 55.30053711 C-89.98616211 54.31053711 -89.65616211 53.32053711 -89.31616211 52.30053711 C-83.80385459 49.51631778 -77.91457097 50.12409954 -71.90991211 50.28881836 C-70.23632629 50.32279976 -70.23632629 50.32279976 -68.52893066 50.35746765 C-64.95771238 50.43277734 -61.38703619 50.52300493 -57.81616211 50.61303711 C-55.47633754 50.6627758 -53.13649361 50.71161234 -50.79663086 50.75952148 C-36.62525781 51.0651187 -22.47252367 51.58427123 -8.31616211 52.30053711 C-8.59940388 47.77914232 -8.89247996 43.25843467 -9.19116211 38.73803711 C-9.23462769 38.07359589 -9.27809326 37.40915466 -9.32287598 36.72457886 C-9.89241096 28.11212727 -10.61575136 19.64809146 -12.14428711 11.14819336 C-12.34806544 7.77195692 -11.56150726 5.4185468 -10.31616211 2.30053711 C-9.18178711 2.15616211 -8.04741211 2.01178711 -6.87866211 1.86303711 C-3.63225957 1.35044724 -2.94677499 0.38236324 0 0 Z " fill="#0E205C" transform="translate(232.316162109375,23.699462890625)"/>
<path d="M0 0 C0.99 0 1.98 0 3 0 C2.75 1.875 2.75 1.875 2 4 C0.1875 5.3125 0.1875 5.3125 -2 6 C-4.25 5.625 -4.25 5.625 -6 5 C-5.195625 4.54625 -4.39125 4.0925 -3.5625 3.625 C-0.91143428 2.25274335 -0.91143428 2.25274335 0 0 Z " fill="#06134A" transform="translate(203,291)"/>
<path d="M0 0 C0.33 0.99 0.66 1.98 1 3 C-1 6 -1 6 -4.125 6.6875 C-5.07375 6.790625 -6.0225 6.89375 -7 7 C-6.67 6.01 -6.34 5.02 -6 4 C-5.01 4 -4.02 4 -3 4 C-2.67 3.34 -2.34 2.68 -2 2 C-1.34 2 -0.68 2 0 2 C0 1.34 0 0.68 0 0 Z " fill="#06134A" transform="translate(304,186)"/>
</svg>
