<?xml version="1.0" encoding="UTF-8"?>
<svg version="1.1" xmlns="http://www.w3.org/2000/svg" width="310" height="310">
<path d="M0 0 C5.35683849 -0.04941382 10.7135445 -0.08572607 16.07055664 -0.10986328 C17.89317129 -0.11992491 19.71576979 -0.1335756 21.53833008 -0.15087891 C24.15710435 -0.17512021 26.77566531 -0.18648138 29.39453125 -0.1953125 C30.21025101 -0.20563507 31.02597076 -0.21595764 31.8664093 -0.22659302 C35.77130756 -0.2273686 37.67524008 -0.21650661 41 2 C41.40843923 4.71203652 41.13336867 7.2437142 41 10 C42.918125 9.938125 42.918125 9.938125 44.875 9.875 C47.0546875 9.8046875 47.0546875 9.8046875 49 10 C51 12 51 12 51.265625 13.875 C51.26046875 14.57625 51.2553125 15.2775 51.25 16 C51.25773437 17.051875 51.25773437 17.051875 51.265625 18.125 C51 20 51 20 49 22 C45.375 22.125 45.375 22.125 42 22 C41.01 26.455 41.01 26.455 40 31 C37.03 31.33 34.06 31.66 31 32 C31.061875 33.093125 31.12375 34.18625 31.1875 35.3125 C31 39 31 39 29.9375 40.9375 C26.98831309 42.55479605 24.29132441 42.18630138 21 42 C21.0309375 43.670625 21.0309375 43.670625 21.0625 45.375 C21 49 21 49 20 51 C17.0170339 51.59772099 14.03669195 51.74337815 11 52 C10.67 54.97 10.34 57.94 10 61 C7.36 61.33 4.72 61.66 2 62 C1.93941406 63.12019531 1.87882813 64.24039063 1.81640625 65.39453125 C1.73198576 66.86719984 1.64733851 68.33985544 1.5625 69.8125 C1.52318359 70.55048828 1.48386719 71.28847656 1.44335938 72.04882812 C1.25618965 75.23071342 1.01279207 77.96162378 0 81 C-2.97 81 -5.94 81 -9 81 C-9.33 84.3 -9.66 87.6 -10 91 C-12.05078125 91.22786458 -14.1015625 91.45572917 -16.15234375 91.68359375 C-18.01140229 91.81886614 -18.01140229 91.81886614 -19 93 C-19.15582303 94.34015221 -19.25044142 95.68758903 -19.31640625 97.03515625 C-19.35830078 97.84404297 -19.40019531 98.65292969 -19.44335938 99.48632812 C-19.48267578 100.33646484 -19.52199219 101.18660156 -19.5625 102.0625 C-19.62727539 103.34350586 -19.62727539 103.34350586 -19.69335938 104.65039062 C-19.79976702 106.76672037 -19.90041731 108.88333813 -20 111 C-23.07617188 111.29296875 -23.07617188 111.29296875 -26.15234375 111.5859375 C-26.76207031 111.72257812 -27.37179688 111.85921875 -28 112 C-29.44197868 114.88395737 -29.58833581 117.82430479 -30 121 C-32.64 121.33 -35.28 121.66 -38 122 C-38.66 124.97 -39.32 127.94 -40 131 C-43.07617188 131.29296875 -43.07617188 131.29296875 -46.15234375 131.5859375 C-46.76207031 131.72257813 -47.37179688 131.85921875 -48 132 C-49.73533785 135.4706757 -48.9925926 139.67286722 -48.87304688 143.50195312 C-48.81053384 147.25641251 -48.85835506 148.7875326 -51 152 C-54.625 152.1875 -54.625 152.1875 -58 152 C-58.144375 152.7425 -58.28875 153.485 -58.4375 154.25 C-58.90199226 156.52085106 -59.42905436 158.75460033 -60 161 C-61.47831221 161.19412181 -62.95769316 161.38012131 -64.4375 161.5625 C-65.26121094 161.66691406 -66.08492187 161.77132812 -66.93359375 161.87890625 C-67.61550781 161.91886719 -68.29742187 161.95882812 -69 162 C-70.56586008 160.43413992 -70.61094693 158.5748512 -71.0625 156.4375 C-71.32740234 155.19806641 -71.32740234 155.19806641 -71.59765625 153.93359375 C-71.73042969 153.29550781 -71.86320313 152.65742188 -72 152 C-74.64 151.67 -77.28 151.34 -80 151 C-81.9 137.7 -81.9 137.7 -80 132 C-83.3 131.67 -86.6 131.34 -90 131 C-90.495 126.545 -90.495 126.545 -91 122 C-93.31 122 -95.62 122 -98 122 C-98.66 124.97 -99.32 127.94 -100 131 C-109.57 131.33 -119.14 131.66 -129 132 C-129 134.31 -129 136.62 -129 139 C-129.33 139.66 -129.66 140.32 -130 141 C-132.97 141 -135.94 141 -139 141 C-139 143.97 -139 146.94 -139 150 C-143.49039163 152.24519581 -146.44287263 152.04965789 -151.25 151.625 C-151.99507812 151.56828125 -152.74015625 151.5115625 -153.5078125 151.453125 C-155.33935108 151.31223742 -157.16981352 151.15748116 -159 151 C-159.33 154.3 -159.66 157.6 -160 161 C-166.93 161 -173.86 161 -181 161 C-181 157.7 -181 154.4 -181 151 C-177.7 150.67 -174.4 150.34 -171 150 C-171.00523682 149.12674072 -171.01047363 148.25348145 -171.01586914 147.35375977 C-171.03287751 144.12410727 -171.04543369 140.89447755 -171.05493164 137.66479492 C-171.0599708 136.26504772 -171.06680216 134.8653058 -171.07543945 133.46557617 C-171.0875232 131.45754223 -171.09269807 129.44947043 -171.09765625 127.44140625 C-171.10289307 126.23170166 -171.10812988 125.02199707 -171.11352539 123.77563477 C-171 121 -171 121 -170 120 C-168.48071962 119.92820036 -166.95832518 119.91607993 -165.4375 119.9375 C-164.19806641 119.95103516 -164.19806641 119.95103516 -162.93359375 119.96484375 C-161.97646484 119.98224609 -161.97646484 119.98224609 -161 120 C-161.00523682 119.29915283 -161.01047363 118.59830566 -161.01586914 117.8762207 C-161.03670852 114.68832299 -161.04968232 111.50043964 -161.0625 108.3125 C-161.07087891 107.20970703 -161.07925781 106.10691406 -161.08789062 104.97070312 C-161.09111328 103.90400391 -161.09433594 102.83730469 -161.09765625 101.73828125 C-161.10289307 100.75899658 -161.10812988 99.77971191 -161.11352539 98.77075195 C-161.00194716 96.04752317 -160.73709105 93.62474197 -160 91 C-158 90 -158 90 -151 90 C-151 80.76 -151 71.52 -151 62 C-156.46004868 62.11841336 -156.46004868 62.11841336 -161.91918945 62.27026367 C-162.60198975 62.27775635 -163.28479004 62.28524902 -163.98828125 62.29296875 C-164.68477783 62.3086792 -165.38127441 62.32438965 -166.09887695 62.34057617 C-168.62518224 61.8880019 -169.46749151 61.03050861 -171 59 C-171.6875 55.3125 -171.6875 55.3125 -172 52 C-173.9490625 51.814375 -173.9490625 51.814375 -175.9375 51.625 C-178.15234375 51.4140625 -178.15234375 51.4140625 -180 51 C-181.4783226 48.04335481 -181.06032783 45.25770263 -181 42 C-182.27617187 42.01160156 -183.55234375 42.02320313 -184.8671875 42.03515625 C-186.53645687 42.04453417 -188.20572783 42.05363437 -189.875 42.0625 C-190.71675781 42.07087891 -191.55851562 42.07925781 -192.42578125 42.08789062 C-193.23144531 42.09111328 -194.03710938 42.09433594 -194.8671875 42.09765625 C-195.98262939 42.10551147 -195.98262939 42.10551147 -197.12060547 42.11352539 C-199 42 -199 42 -201 41 C-201.02688151 39.35425434 -201.04634123 37.70838587 -201.0625 36.0625 C-201.07410156 35.14597656 -201.08570313 34.22945312 -201.09765625 33.28515625 C-201 31 -201 31 -200 30 C-197.1156618 29.91134792 -194.25537842 29.88478704 -191.37109375 29.90234375 C-190.07474754 29.90446617 -190.07474754 29.90446617 -188.75221252 29.90663147 C-185.98060708 29.91224761 -183.2090812 29.92480281 -180.4375 29.9375 C-178.5631522 29.94251292 -176.68880315 29.94707619 -174.81445312 29.95117188 C-170.20960456 29.96222228 -165.60481579 29.9794977 -161 30 C-161.04125 28.72125 -161.0825 27.4425 -161.125 26.125 C-161.1953125 23.9453125 -161.1953125 23.9453125 -161 22 C-158.53515687 19.53515687 -157.16419816 19.76518895 -153.80117798 19.75115967 C-153.07901093 19.75835022 -152.35684387 19.76554077 -151.61279297 19.77294922 C-150.85172241 19.77265717 -150.09065186 19.77236511 -149.30651855 19.77206421 C-146.78495984 19.77346019 -144.26369475 19.78903382 -141.7421875 19.8046875 C-139.99626833 19.80841668 -138.25034706 19.8112641 -136.50442505 19.81326294 C-131.9045028 19.82090689 -127.30470643 19.84056187 -122.70483398 19.8626709 C-118.0128754 19.88311296 -113.32089651 19.89226114 -108.62890625 19.90234375 C-99.41921546 19.92380708 -90.20961819 19.95795217 -81 20 C-81.01160156 19.36191406 -81.02320313 18.72382812 -81.03515625 18.06640625 C-81.04417969 17.24011719 -81.05320312 16.41382812 -81.0625 15.5625 C-81.07410156 14.73878906 -81.08570313 13.91507813 -81.09765625 13.06640625 C-81 11 -81 11 -80 10 C-77.53555943 9.90499452 -75.09925374 9.87442015 -72.63452148 9.88647461 C-71.86384338 9.88632858 -71.09316528 9.88618256 -70.2991333 9.8860321 C-67.73975861 9.8867314 -65.1804558 9.89452455 -62.62109375 9.90234375 C-60.85132385 9.90420787 -59.08155344 9.9056318 -57.31178284 9.90663147 C-52.64448634 9.91045712 -47.97722077 9.9202878 -43.30993652 9.93133545 C-38.55102965 9.94154856 -33.79211779 9.94612887 -29.03320312 9.95117188 C-19.68878847 9.96191003 -10.3443968 9.97898701 -1 10 C-1.0309375 8.081875 -1.0309375 8.081875 -1.0625 6.125 C-1.125 2.25 -1.125 2.25 0 0 Z " fill="#FDEFB0" transform="translate(230,69)"/>
<path d="M0 0 C23.1 0 46.2 0 70 0 C70 3.3 70 6.6 70 10 C60.1 10 50.2 10 40 10 C40 13.3 40 16.6 40 20 C33.4 20 26.8 20 20 20 C20 23.3 20 26.6 20 30 C13.4 30 6.8 30 0 30 C0 33.3 0 36.6 0 40 C-6.6 40 -13.2 40 -20 40 C-20 43.3 -20 46.6 -20 50 C-26.6 50 -33.2 50 -40 50 C-40 53.3 -40 56.6 -40 60 C-36.7 60 -33.4 60 -30 60 C-30 66.6 -30 73.2 -30 80 C-26.7 80 -23.4 80 -20 80 C-19.90234375 86.93359375 -19.90234375 86.93359375 -20 89 C-21.96822886 90.96822886 -25.34808709 90.66248381 -28 91 C-28.66 93.97 -29.32 96.94 -30 100 C-44.355 100.495 -44.355 100.495 -59 101 C-59 103.31 -59 105.62 -59 108 C-59.33 108.66 -59.66 109.32 -60 110 C-62.97 110 -65.94 110 -69 110 C-69 112.97 -69 115.94 -69 119 C-73.49039163 121.24519581 -76.44287263 121.04965789 -81.25 120.625 C-82.36761719 120.53992188 -82.36761719 120.53992188 -83.5078125 120.453125 C-85.33935108 120.31223742 -87.16981352 120.15748116 -89 120 C-89.33 123.3 -89.66 126.6 -90 130 C-96.93 130 -103.86 130 -111 130 C-111 126.7 -111 123.4 -111 120 C-106.05 119.505 -106.05 119.505 -101 119 C-101.00785522 117.69011108 -101.00785522 117.69011108 -101.01586914 116.35375977 C-101.03287751 113.12410727 -101.04543369 109.89447755 -101.05493164 106.66479492 C-101.0599708 105.26504772 -101.06680216 103.8653058 -101.07543945 102.46557617 C-101.0875232 100.45754223 -101.09269807 98.44947043 -101.09765625 96.44140625 C-101.10551147 94.62684937 -101.10551147 94.62684937 -101.11352539 92.77563477 C-101 90 -101 90 -100 89 C-98.48071962 88.92820036 -96.95832518 88.91607993 -95.4375 88.9375 C-94.19806641 88.95103516 -94.19806641 88.95103516 -92.93359375 88.96484375 C-91.97646484 88.98224609 -91.97646484 88.98224609 -91 89 C-91.00785522 87.94872925 -91.00785522 87.94872925 -91.01586914 86.8762207 C-91.03670852 83.68832299 -91.04968232 80.50043964 -91.0625 77.3125 C-91.07087891 76.20970703 -91.07925781 75.10691406 -91.08789062 73.97070312 C-91.09111328 72.90400391 -91.09433594 71.83730469 -91.09765625 70.73828125 C-91.10551147 69.26935425 -91.10551147 69.26935425 -91.11352539 67.77075195 C-91.00194716 65.04752317 -90.73709105 62.62474197 -90 60 C-87.04335481 58.5216774 -84.25770263 58.93967217 -81 59 C-81.01160156 58.319375 -81.02320312 57.63875 -81.03515625 56.9375 C-81.0931103 50.7115792 -80.93090862 44.52581274 -80.5625 38.3125 C-80.52326416 37.60544922 -80.48402832 36.89839844 -80.44360352 36.16992188 C-80.12159333 31.12159333 -80.12159333 31.12159333 -79 30 C-77.58429877 29.91348389 -76.164405 29.89295096 -74.74609375 29.90234375 C-73.46508789 29.90717773 -73.46508789 29.90717773 -72.15820312 29.91210938 C-71.26037109 29.92048828 -70.36253906 29.92886719 -69.4375 29.9375 C-68.53580078 29.94201172 -67.63410156 29.94652344 -66.70507812 29.95117188 C-64.47002411 29.96299756 -62.23500398 29.98093362 -60 30 C-60 26.7 -60 23.4 -60 20 C-50.1 20 -40.2 20 -30 20 C-30 16.7 -30 13.4 -30 10 C-20.1 10 -10.2 10 0 10 C0 6.7 0 3.4 0 0 Z " fill="#FCCA80" transform="translate(160,100)"/>
<path d="M0 0 C6.6 0 13.2 0 20 0 C20 3.3 20 6.6 20 10 C15.545 10.495 15.545 10.495 11 11 C11.061875 12.093125 11.12375 13.18625 11.1875 14.3125 C11 18 11 18 9.9375 19.9375 C6.98831309 21.55479605 4.29132441 21.18630138 1 21 C1.020625 22.11375 1.04125 23.2275 1.0625 24.375 C1 28 1 28 0 30 C-2.9829661 30.59772099 -5.96330805 30.74337815 -9 31 C-9.33 33.97 -9.66 36.94 -10 40 C-12.64 40.33 -15.28 40.66 -18 41 C-18.06058594 42.12019531 -18.12117188 43.24039063 -18.18359375 44.39453125 C-18.26801424 45.86719984 -18.35266149 47.33985544 -18.4375 48.8125 C-18.47681641 49.55048828 -18.51613281 50.28847656 -18.55664062 51.04882812 C-18.74381035 54.23071342 -18.98720793 56.96162378 -20 60 C-22.97 60 -25.94 60 -29 60 C-29.33 63.3 -29.66 66.6 -30 70 C-32.05078125 70.22786458 -34.1015625 70.45572917 -36.15234375 70.68359375 C-38.01140229 70.81886614 -38.01140229 70.81886614 -39 72 C-39.15582303 73.34015221 -39.25044142 74.68758903 -39.31640625 76.03515625 C-39.35830078 76.84404297 -39.40019531 77.65292969 -39.44335938 78.48632812 C-39.48267578 79.33646484 -39.52199219 80.18660156 -39.5625 81.0625 C-39.62727539 82.34350586 -39.62727539 82.34350586 -39.69335938 83.65039062 C-39.79976702 85.76672037 -39.90041731 87.88333813 -40 90 C-43.07617188 90.29296875 -43.07617188 90.29296875 -46.15234375 90.5859375 C-47.06693359 90.79089844 -47.06693359 90.79089844 -48 91 C-49.44197868 93.88395737 -49.58833581 96.82430479 -50 100 C-52.64 100.33 -55.28 100.66 -58 101 C-58.66 103.97 -59.32 106.94 -60 110 C-63.07617188 110.29296875 -63.07617188 110.29296875 -66.15234375 110.5859375 C-67.06693359 110.79089844 -67.06693359 110.79089844 -68 111 C-69.73533785 114.4706757 -68.9925926 118.67286722 -68.87304688 122.50195312 C-68.81053384 126.25641251 -68.85835506 127.7875326 -71 131 C-74.625 131.1875 -74.625 131.1875 -78 131 C-78.144375 131.7425 -78.28875 132.485 -78.4375 133.25 C-78.90199226 135.52085106 -79.42905436 137.75460033 -80 140 C-81.47831221 140.19412181 -82.95769316 140.38012131 -84.4375 140.5625 C-85.26121094 140.66691406 -86.08492187 140.77132812 -86.93359375 140.87890625 C-87.61550781 140.91886719 -88.29742187 140.95882812 -89 141 C-90.56586008 139.43413992 -90.61094693 137.5748512 -91.0625 135.4375 C-91.23910156 134.61121094 -91.41570312 133.78492188 -91.59765625 132.93359375 C-91.73042969 132.29550781 -91.86320312 131.65742188 -92 131 C-94.64 130.67 -97.28 130.34 -100 130 C-101.9 116.7 -101.9 116.7 -100 111 C-103.3 110.67 -106.6 110.34 -110 110 C-110 106.7 -110 103.4 -110 100 C-106.7 100 -103.4 100 -100 100 C-100 103.3 -100 106.6 -100 110 C-96.7 110 -93.4 110 -90 110 C-90 116.6 -90 123.2 -90 130 C-86.7 130 -83.4 130 -80 130 C-80 123.4 -80 116.8 -80 110 C-76.7 110 -73.4 110 -70 110 C-70 106.37 -70 102.74 -70 99 C-67.69 98.67 -65.38 98.34 -63 98 C-62.67 95.03 -62.34 92.06 -62 89 C-58.37 89 -54.74 89 -51 89 C-51 82.73 -51 76.46 -51 70 C-47.37 70 -43.74 70 -40 70 C-40 66.7 -40 63.4 -40 60 C-36.7 60 -33.4 60 -30 60 C-30 53.07 -30 46.14 -30 39 C-23 38 -23 38 -21 38 C-21.01160156 37.36191406 -21.02320313 36.72382812 -21.03515625 36.06640625 C-21.04417969 35.24011719 -21.05320312 34.41382813 -21.0625 33.5625 C-21.07410156 32.73878906 -21.08570313 31.91507813 -21.09765625 31.06640625 C-21 29 -21 29 -20 28 C-18.48071962 27.92820036 -16.95832518 27.91607993 -15.4375 27.9375 C-14.61121094 27.94652344 -13.78492188 27.95554687 -12.93359375 27.96484375 C-11.97646484 27.98224609 -11.97646484 27.98224609 -11 28 C-11 25.36 -11 22.72 -11 20 C-7.37 20 -3.74 20 0 20 C0 13.4 0 6.8 0 0 Z " fill="#C8954C" transform="translate(250,90)"/>
<path d="M0 0 C0.99 0.33 1.98 0.66 3 1 C3 2.65 3 4.3 3 6 C4.65 6 6.3 6 8 6 C8.495 7.485 8.495 7.485 9 9 C18.9 8.67 28.8 8.34 39 8 C40 17 40 17 39 19 C24.645 19.495 24.645 19.495 10 20 C10 22.31 10 24.62 10 27 C9.67 27.66 9.34 28.32 9 29 C6.03 29 3.06 29 0 29 C0 31.97 0 34.94 0 38 C-4.49039163 40.24519581 -7.44287263 40.04965789 -12.25 39.625 C-13.36761719 39.53992188 -13.36761719 39.53992188 -14.5078125 39.453125 C-16.33935108 39.31223742 -18.16981352 39.15748116 -20 39 C-20.33 42.3 -20.66 45.6 -21 49 C-27.93 49 -34.86 49 -42 49 C-42 45.7 -42 42.4 -42 39 C-41.10796875 38.93941406 -40.2159375 38.87882812 -39.296875 38.81640625 C-38.12640625 38.73261719 -36.9559375 38.64882812 -35.75 38.5625 C-34.58984375 38.48128906 -33.4296875 38.40007812 -32.234375 38.31640625 C-29.69022624 38.06752213 -27.44046752 37.71885058 -25 37 C-26.3089572 33.87802522 -26.3089572 33.87802522 -29 32 C-29.91300909 29.26097274 -30.12846608 27.6255173 -30.1328125 24.8046875 C-30.13410156 24.00675781 -30.13539062 23.20882812 -30.13671875 22.38671875 C-30.13285156 21.55785156 -30.12898438 20.72898438 -30.125 19.875 C-30.12886719 19.03839844 -30.13273437 18.20179688 -30.13671875 17.33984375 C-30.12664874 11.12664874 -30.12664874 11.12664874 -29 10 C-26.30917128 10.17635452 -23.67148554 10.61835921 -21 11 C-21 13.64 -21 16.28 -21 19 C-17.7 19 -14.4 19 -11 19 C-11 15.7 -11 12.4 -11 9 C-7.7 9 -4.4 9 -1 9 C-0.67 6.03 -0.34 3.06 0 0 Z " fill="#F0A763" transform="translate(91,181)"/>
<path d="M0 0 C3.3 0 6.6 0 10 0 C10 3.3 10 6.6 10 10 C13.3 10 16.6 10 20 10 C20 16.6 20 23.2 20 30 C23.3 30 26.6 30 30 30 C30.09765625 36.93359375 30.09765625 36.93359375 30 39 C29 40 29 40 25.5625 40.4375 C21.95941003 40.64847551 21.95941003 40.64847551 20 43 C19.67 42.01 19.34 41.02 19 40 C9.1 40.33 -0.8 40.66 -11 41 C-11 39.68 -11 38.36 -11 37 C-12.65 37 -14.3 37 -16 37 C-16.12375 36.195625 -16.2475 35.39125 -16.375 34.5625 C-16.58125 33.716875 -16.7875 32.87125 -17 32 C-17.66 31.67 -18.32 31.34 -19 31 C-19.33 31.99 -19.66 32.98 -20 34 C-20 32.68 -20 31.36 -20 30 C-16.7 30 -13.4 30 -10 30 C-10 23.4 -10 16.8 -10 10 C-6.7 10 -3.4 10 0 10 C0 6.7 0 3.4 0 0 Z " fill="#F0A664" transform="translate(110,150)"/>
<path d="M0 0 C0.495 0.99 0.495 0.99 1 2 C3.97 2 6.94 2 10 2 C10 5.3 10 8.6 10 12 C-16.4 12 -42.8 12 -70 12 C-70 15.3 -70 18.6 -70 22 C-79.57 22 -89.14 22 -99 22 C-98.01 21.67 -97.02 21.34 -96 21 C-96 20.34 -96 19.68 -96 19 C-94.93458984 18.92652344 -94.93458984 18.92652344 -93.84765625 18.8515625 C-92.92855469 18.77679688 -92.00945312 18.70203125 -91.0625 18.625 C-89.68771484 18.52058594 -89.68771484 18.52058594 -88.28515625 18.4140625 C-87.53105469 18.27742188 -86.77695313 18.14078125 -86 18 C-85.67 17.34 -85.34 16.68 -85 16 C-85.33 15.01 -85.66 14.02 -86 13 C-84.02 13 -82.04 13 -80 13 C-80 9.37 -80 5.74 -80 2 C-53.6 2 -27.2 2 0 2 C0 1.34 0 0.68 0 0 Z " fill="#FDEFAE" transform="translate(230,88)"/>
<path d="M0 0 C26.4 0 52.8 0 80 0 C80 3.3 80 6.6 80 10 C53.6 10 27.2 10 0 10 C0 6.7 0 3.4 0 0 Z " fill="#F0A564" transform="translate(70,90)"/>
<path d="M0 0 C25.74 0 51.48 0 78 0 C78 2.97 78 5.94 78 9 C52.26 9 26.52 9 0 9 C0 6.03 0 3.06 0 0 Z " fill="#EFA666" transform="translate(152,81)"/>
<path d="M0 0 C2.64 0.33 5.28 0.66 8 1 C8 6.94 8 12.88 8 19 C9.35996094 18.98839844 10.71992187 18.97679687 12.12109375 18.96484375 C13.8932278 18.95546738 15.66536333 18.94636702 17.4375 18.9375 C18.78424805 18.92493164 18.78424805 18.92493164 20.15820312 18.91210938 C21.01220703 18.90888672 21.86621094 18.90566406 22.74609375 18.90234375 C23.53685303 18.89710693 24.3276123 18.89187012 25.14233398 18.88647461 C27 19 27 19 28 20 C28.07179964 21.51928038 28.08392007 23.04167482 28.0625 24.5625 C28.05347656 25.38878906 28.04445312 26.21507812 28.03515625 27.06640625 C28.02355469 27.70449219 28.01195312 28.34257812 28 29 C24.17189179 30.27603607 20.76524893 29.86283987 16.8125 29.5625 C16.06291016 29.51029297 15.31332031 29.45808594 14.54101562 29.40429688 C12.69362918 29.27486216 10.84675629 29.13813482 9 29 C8.67 32.3 8.34 35.6 8 39 C1.07 39 -5.86 39 -13 39 C-13 35.7 -13 32.4 -13 29 C-12.10796875 28.93941406 -11.2159375 28.87882812 -10.296875 28.81640625 C-8.54117188 28.69072266 -8.54117188 28.69072266 -6.75 28.5625 C-5.58984375 28.48128906 -4.4296875 28.40007812 -3.234375 28.31640625 C-0.69022624 28.06752213 1.55953248 27.71885058 4 27 C2.6910428 23.87802522 2.6910428 23.87802522 0 22 C-0.91300909 19.26097274 -1.12846608 17.6255173 -1.1328125 14.8046875 C-1.13410156 14.00675781 -1.13539062 13.20882812 -1.13671875 12.38671875 C-1.13285156 11.55785156 -1.12898438 10.72898438 -1.125 9.875 C-1.12886719 9.03839844 -1.13273437 8.20179688 -1.13671875 7.33984375 C-1.12664874 1.12664874 -1.12664874 1.12664874 0 0 Z " fill="#CBA269" transform="translate(62,191)"/>
<path d="M0 0 C6.6 0 13.2 0 20 0 C20 3.3 20 6.6 20 10 C15.545 10.495 15.545 10.495 11 11 C11.061875 12.093125 11.12375 13.18625 11.1875 14.3125 C11 18 11 18 9.9375 19.9375 C6.98831309 21.55479605 4.29132441 21.18630138 1 21 C1.020625 22.11375 1.04125 23.2275 1.0625 24.375 C1 28 1 28 0 30 C-2.9829661 30.59772099 -5.96330805 30.74337815 -9 31 C-9.33 33.97 -9.66 36.94 -10 40 C-12.64 40.33 -15.28 40.66 -18 41 C-18.33 46.28 -18.66 51.56 -19 57 C-19.33 57 -19.66 57 -20 57 C-20 51.39 -20 45.78 -20 40 C-23.3 40 -26.6 40 -30 40 C-26.23312136 38.11656068 -24.97041037 37.77942165 -21 38 C-21.01160156 37.36191406 -21.02320313 36.72382812 -21.03515625 36.06640625 C-21.04417969 35.24011719 -21.05320313 34.41382813 -21.0625 33.5625 C-21.07410156 32.73878906 -21.08570313 31.91507813 -21.09765625 31.06640625 C-21 29 -21 29 -20 28 C-18.48071962 27.92820036 -16.95832518 27.91607993 -15.4375 27.9375 C-14.61121094 27.94652344 -13.78492188 27.95554687 -12.93359375 27.96484375 C-11.97646484 27.98224609 -11.97646484 27.98224609 -11 28 C-11 25.36 -11 22.72 -11 20 C-7.37 20 -3.74 20 0 20 C0 13.4 0 6.8 0 0 Z " fill="#C58B3C" transform="translate(250,90)"/>
<path d="M0 0 C3.3 0 6.6 0 10 0 C10 3.3 10 6.6 10 10 C13.3 10 16.6 10 20 10 C20 6.7 20 3.4 20 0 C23.3 0 26.6 0 30 0 C30 6.6 30 13.2 30 20 C26.7 20 23.4 20 20 20 C20 23.3 20 26.6 20 30 C16.7 30 13.4 30 10 30 C10 26.7 10 23.4 10 20 C6.7 20 3.4 20 0 20 C0 13.4 0 6.8 0 0 Z " fill="#F78481" transform="translate(150,160)"/>
<path d="M0 0 C5.35683849 -0.04941382 10.7135445 -0.08572607 16.07055664 -0.10986328 C17.89317129 -0.11992491 19.71576979 -0.1335756 21.53833008 -0.15087891 C24.15710435 -0.17512021 26.77566531 -0.18648138 29.39453125 -0.1953125 C30.21025101 -0.20563507 31.02597076 -0.21595764 31.8664093 -0.22659302 C35.77130756 -0.2273686 37.67524008 -0.21650661 41 2 C41.40843923 4.71203652 41.13336867 7.2437142 41 10 C42.299375 9.979375 43.59875 9.95875 44.9375 9.9375 C46.29165633 9.91600546 47.64756083 9.92851801 49 10 C50 11 50 11 50.1328125 12.8125 C50.13023437 13.534375 50.12765625 14.25625 50.125 15 C50.12886719 16.0828125 50.12886719 16.0828125 50.1328125 17.1875 C50 19 50 19 49 20 C45.99668982 20.14193337 43.00782866 20.04236378 40 20 C40 17.03 40 14.06 40 11 C26.8 11 13.6 11 0 11 C0 7.37 0 3.74 0 0 Z " fill="#F1A562" transform="translate(230,69)"/>
<path d="M0 0 C3.3 0 6.6 0 10 0 C10 6.6 10 13.2 10 20 C7.03 20 4.06 20 1 20 C0.67 23.3 0.34 26.6 0 30 C-2.05078125 30.22786458 -4.1015625 30.45572917 -6.15234375 30.68359375 C-8.01140229 30.81886614 -8.01140229 30.81886614 -9 32 C-9.15582303 33.34015221 -9.25044142 34.68758903 -9.31640625 36.03515625 C-9.35830078 36.84404297 -9.40019531 37.65292969 -9.44335938 38.48632812 C-9.48267578 39.33646484 -9.52199219 40.18660156 -9.5625 41.0625 C-9.60568359 41.91650391 -9.64886719 42.77050781 -9.69335938 43.65039062 C-9.79976702 45.76672037 -9.90041731 47.88333813 -10 50 C-13.3 50 -16.6 50 -20 50 C-20 43.4 -20 36.8 -20 30 C-16.7 30 -13.4 30 -10 30 C-10 26.7 -10 23.4 -10 20 C-6.7 20 -3.4 20 0 20 C0 13.4 0 6.8 0 0 Z " fill="#C09155" transform="translate(220,130)"/>
<path d="M0 0 C6.93 0 13.86 0 21 0 C21 0.66 21 1.32 21 2 C22.65 2 24.3 2 26 2 C26.33 2.99 26.66 3.98 27 5 C27.66 5 28.32 5 29 5 C29.33 4.01 29.66 3.02 30 2 C32.31 2.33 34.62 2.66 37 3 C37.495 4.98 37.495 4.98 38 7 C36.35 7 34.7 7 33 7 C31.78306124 9.43387753 31.68040104 11.41838846 31.4375 14.125 C31.35371094 15.03507812 31.26992188 15.94515625 31.18359375 16.8828125 C31.12300781 17.58148438 31.06242187 18.28015625 31 19 C29.54176788 19.0270043 28.08339325 19.04639787 26.625 19.0625 C25.81289063 19.07410156 25.00078125 19.08570312 24.1640625 19.09765625 C22 19 22 19 20 18 C20 15.69 20 13.38 20 11 C18.72382812 11.01160156 17.44765625 11.02320312 16.1328125 11.03515625 C14.46354313 11.04453417 12.79427217 11.05363437 11.125 11.0625 C9.86236328 11.07506836 9.86236328 11.07506836 8.57421875 11.08789062 C7.76855469 11.09111328 6.96289062 11.09433594 6.1328125 11.09765625 C5.38918457 11.10289307 4.64555664 11.10812988 3.87939453 11.11352539 C2 11 2 11 0 10 C0 6.7 0 3.4 0 0 Z " fill="#FCC87A" transform="translate(29,100)"/>
<path d="M0 0 C26.4 0 52.8 0 80 0 C80 3.3 80 6.6 80 10 C53.6 10 27.2 10 0 10 C0 6.7 0 3.4 0 0 Z M4 2 C2.98888907 5.04913228 2.98888907 5.04913228 4 8 C28.09 8.33 52.18 8.66 77 9 C77.66 7.35 78.32 5.7 79 4 C75.29780252 1.53186835 73.46821249 1.75752805 69.05004883 1.77294922 C68.34735367 1.77265717 67.64465851 1.77236511 66.92066956 1.77206421 C64.59933093 1.77345692 62.27831377 1.78901513 59.95703125 1.8046875 C58.34706294 1.80841784 56.73709236 1.81126472 55.12712097 1.81326294 C50.89053068 1.82089773 46.6540776 1.84054487 42.4175415 1.8626709 C38.09413509 1.88313265 33.7707065 1.89226536 29.44726562 1.90234375 C20.96478079 1.92379094 12.48240747 1.95792499 4 2 Z " fill="#E2AB6D" transform="translate(70,90)"/>
<path d="M0 0 C0.19491452 1.45736087 0.38069358 2.91594593 0.5625 4.375 C0.66691406 5.18710938 0.77132812 5.99921875 0.87890625 6.8359375 C1 9 1 9 0 11 C-9.9 11 -19.8 11 -30 11 C-30 7.7 -30 4.4 -30 1 C-25.88827252 0.85736604 -21.77653739 0.71495509 -17.66479492 0.57275391 C-16.2650532 0.52431319 -14.8653136 0.47581074 -13.46557617 0.42724609 C-11.45752511 0.35758627 -9.44946581 0.2881644 -7.44140625 0.21875 C-6.23170166 0.17685547 -5.02199707 0.13496094 -3.77563477 0.09179688 C-1 0 -1 0 0 0 Z " fill="#DC8323" transform="translate(130,189)"/>
<path d="M0 0 C2.97 0 5.94 0 9 0 C9 9.9 9 19.8 9 30 C5.7 30 2.4 30 -1 30 C-1.02465746 25.8882744 -1.04283959 21.77657722 -1.05493164 17.66479492 C-1.0599708 16.26504772 -1.06680216 14.8653058 -1.07543945 13.46557617 C-1.0875232 11.45754223 -1.09269807 9.44947043 -1.09765625 7.44140625 C-1.10289307 6.23170166 -1.10812988 5.02199707 -1.11352539 3.77563477 C-1 1 -1 1 0 0 Z " fill="#D08731" transform="translate(81,130)"/>
<path d="M0 0 C0.33 0 0.66 0 1 0 C1 6.6 1 13.2 1 20 C1.66 20.33 2.32 20.66 3 21 C2.67 21.66 2.34 22.32 2 23 C1.63858045 25.32914823 1.30300475 27.66253478 1 30 C-2.96 30.495 -2.96 30.495 -7 31 C-7.66 33.97 -8.32 36.94 -9 40 C-10.27875 40.12375 -11.5575 40.2475 -12.875 40.375 C-16.34790936 40.69042399 -16.34790936 40.69042399 -19 43 C-19 38.38 -19 33.76 -19 29 C-15.535 28.505 -15.535 28.505 -12 28 C-11.505 23.545 -11.505 23.545 -11 19 C-7.37 19 -3.74 19 0 19 C0 12.73 0 6.46 0 0 Z " fill="#F8DF94" transform="translate(199,160)"/>
<path d="M0 0 C0.33 0 0.66 0 1 0 C1 3.3 1 6.6 1 10 C-24.74 10 -50.48 10 -77 10 C-77 12.97 -77 15.94 -77 19 C-103.73 19 -130.46 19 -158 19 C-158 18.67 -158 18.34 -158 18 C-132.26 18 -106.52 18 -80 18 C-80 15.03 -80 12.06 -80 9 C-78.2917059 7.2917059 -76.13995623 7.88028074 -73.86213684 7.87557983 C-73.12702377 7.87917511 -72.39191071 7.88277039 -71.63452148 7.88647461 C-70.86384338 7.88632858 -70.09316528 7.88618256 -69.2991333 7.8860321 C-66.73975861 7.8867314 -64.1804558 7.89452455 -61.62109375 7.90234375 C-59.85132385 7.90420787 -58.08155344 7.9056318 -56.31178284 7.90663147 C-51.64448634 7.91045712 -46.97722077 7.9202878 -42.30993652 7.93133545 C-37.55102965 7.94154856 -32.79211779 7.94612887 -28.03320312 7.95117188 C-18.68878847 7.96191003 -9.3443968 7.97898701 0 8 C0 5.36 0 2.72 0 0 Z " fill="#F1DBBB" transform="translate(229,71)"/>
<path d="M0 0 C2.97 0 5.94 0 9 0 C9 9.57 9 19.14 9 29 C6.03 29 3.06 29 0 29 C0 19.43 0 9.86 0 0 Z " fill="#DB8324" transform="translate(71,161)"/>
<path d="M0 0 C6.6 0 13.2 0 20 0 C20 3.3 20 6.6 20 10 C15.545 10.495 15.545 10.495 11 11 C11 13.31 11 15.62 11 18 C10.67 18 10.34 18 10 18 C10 15.36 10 12.72 10 10 C6.7 10 3.4 10 0 10 C0 6.7 0 3.4 0 0 Z " fill="#EFC37C" transform="translate(250,90)"/>
<path d="M0 0 C6.6 0 13.2 0 20 0 C20 3.3 20 6.6 20 10 C17.04196565 10.19421438 14.08379837 10.38066186 11.125 10.5625 C10.28324219 10.61857422 9.44148438 10.67464844 8.57421875 10.73242188 C7.76855469 10.78076172 6.96289062 10.82910156 6.1328125 10.87890625 C5.01737061 10.94960327 5.01737061 10.94960327 3.87939453 11.02172852 C2 11 2 11 0 10 C0 6.7 0 3.4 0 0 Z " fill="#DA8422" transform="translate(60,120)"/>
<path d="M0 0 C6.6 0 13.2 0 20 0 C20 3.3 20 6.6 20 10 C13.4 10 6.8 10 0 10 C0 6.7 0 3.4 0 0 Z " fill="#F1A562" transform="translate(120,140)"/>
<path d="M0 0 C6.6 0 13.2 0 20 0 C20 3.3 20 6.6 20 10 C13.4 10 6.8 10 0 10 C0 6.7 0 3.4 0 0 Z " fill="#ECA865" transform="translate(140,130)"/>
<path d="M0 0 C6.6 0 13.2 0 20 0 C20 3.3 20 6.6 20 10 C13.4 10 6.8 10 0 10 C0 6.7 0 3.4 0 0 Z " fill="#EEA764" transform="translate(160,120)"/>
<path d="M0 0 C6.6 0 13.2 0 20 0 C20 3.3 20 6.6 20 10 C13.4 10 6.8 10 0 10 C0 6.7 0 3.4 0 0 Z " fill="#EEA765" transform="translate(180,110)"/>
<path d="M0 0 C6.93 0 13.86 0 21 0 C21 3.3 21 6.6 21 10 C17.7 10 14.4 10 11 10 C11 7.36 11 4.72 11 2 C8.36 2 5.72 2 3 2 C3 8.93 3 15.86 3 23 C3.99 23.33 4.98 23.66 6 24 C6.6875 26.0625 6.6875 26.0625 7 28 C3.09971775 30.60018816 -0.47434569 30.15085514 -5 30 C-5 29.67 -5 29.34 -5 29 C-3.35 29 -1.7 29 0 29 C0 19.43 0 9.86 0 0 Z " fill="#FDC981" transform="translate(59,190)"/>
<path d="M0 0 C5.35683849 -0.04941382 10.7135445 -0.08572607 16.07055664 -0.10986328 C17.89317129 -0.11992491 19.71576979 -0.1335756 21.53833008 -0.15087891 C24.15710435 -0.17512021 26.77566531 -0.18648138 29.39453125 -0.1953125 C30.21025101 -0.20563507 31.02597076 -0.21595764 31.8664093 -0.22659302 C35.77130756 -0.2273686 37.67524008 -0.21650661 41 2 C41.40843923 4.71203652 41.13336867 7.2437142 41 10 C42.299375 9.979375 43.59875 9.95875 44.9375 9.9375 C46.29165633 9.91600546 47.64756083 9.92851801 49 10 C50 11 50 11 50.1328125 12.8125 C50.13023437 13.534375 50.12765625 14.25625 50.125 15 C50.12886719 16.0828125 50.12886719 16.0828125 50.1328125 17.1875 C50 19 50 19 49 20 C47.48071962 20.07179964 45.95832518 20.08392007 44.4375 20.0625 C43.61121094 20.05347656 42.78492188 20.04445313 41.93359375 20.03515625 C40.97646484 20.01775391 40.97646484 20.01775391 40 20 C39.22959149 13.93303301 38.90293888 8.11485027 39 2 C38.45359863 2.16677246 37.90719727 2.33354492 37.34423828 2.50537109 C34.62941065 3.0781935 32.26443611 3.03144809 29.4921875 2.9140625 C28.42226563 2.87023437 27.35234375 2.82640625 26.25 2.78125 C25.13625 2.7296875 24.0225 2.678125 22.875 2.625 C21.78445312 2.58117187 20.69390625 2.53734375 19.5703125 2.4921875 C13.01779874 2.21002184 6.51693042 1.73918462 0 1 C0 0.67 0 0.34 0 0 Z " fill="#EED5B9" transform="translate(230,69)"/>
<path d="M0 0 C0.33 0 0.66 0 1 0 C1 3.3 1 6.6 1 10 C2.32 10.33 3.64 10.66 5 11 C4.01 11 3.02 11 2 11 C1.67 13.97 1.34 16.94 1 20 C-2.96 20.495 -2.96 20.495 -7 21 C-7.33 26.28 -7.66 31.56 -8 37 C-8.33 37 -8.66 37 -9 37 C-9 31.39 -9 25.78 -9 20 C-12.3 20 -15.6 20 -19 20 C-15.23312136 18.11656068 -13.97041037 17.77942165 -10 18 C-10.01160156 17.36191406 -10.02320313 16.72382812 -10.03515625 16.06640625 C-10.04417969 15.24011719 -10.05320313 14.41382812 -10.0625 13.5625 C-10.07410156 12.73878906 -10.08570313 11.91507813 -10.09765625 11.06640625 C-10 9 -10 9 -9 8 C-7.48071962 7.92820036 -5.95832518 7.91607993 -4.4375 7.9375 C-3.61121094 7.94652344 -2.78492188 7.95554687 -1.93359375 7.96484375 C-1.29550781 7.97644531 -0.65742188 7.98804687 0 8 C0 5.36 0 2.72 0 0 Z " fill="#FEE69B" transform="translate(239,110)"/>
<path d="M0 0 C3.3 0 6.6 0 10 0 C10 6.6 10 13.2 10 20 C6.7 20 3.4 20 0 20 C0 23.3 0 26.6 0 30 C-3.3 30 -6.6 30 -10 30 C-10 26.7 -10 23.4 -10 20 C-6.92382812 19.70703125 -6.92382812 19.70703125 -3.84765625 19.4140625 C-3.23792969 19.27742188 -2.62820312 19.14078125 -2 19 C-1.67 18.34 -1.34 17.68 -1 17 C2.3 17.33 5.6 17.66 9 18 C9 12.39 9 6.78 9 1 C6.69 1 4.38 1 2 1 C2 3.64 2 6.28 2 9 C1.01 9.495 1.01 9.495 0 10 C0 6.7 0 3.4 0 0 Z " fill="#E98D7C" transform="translate(170,160)"/>
<path d="M0 0 C2.97 0 5.94 0 9 0 C9.02697137 2.60423592 9.04682489 5.20819244 9.0625 7.8125 C9.07087891 8.55048828 9.07925781 9.28847656 9.08789062 10.04882812 C9.10259828 13.29922068 9.03531702 15.89404895 8 19 C5.36 19 2.72 19 0 19 C0 12.73 0 6.46 0 0 Z " fill="#DD8320" transform="translate(200,160)"/>
<path d="M0 0 C2.64 0.33 5.28 0.66 8 1 C8 6.94 8 12.88 8 19 C5.03 19 2.06 19 -1 19 C-1.02683987 16.02077407 -1.04676037 13.04178705 -1.0625 10.0625 C-1.07087891 9.21236328 -1.07925781 8.36222656 -1.08789062 7.48632812 C-1.09111328 6.67744141 -1.09433594 5.86855469 -1.09765625 5.03515625 C-1.10289307 4.2862915 -1.10812988 3.53742676 -1.11352539 2.76586914 C-1 1 -1 1 0 0 Z " fill="#E0811E" transform="translate(62,191)"/>
<path d="M0 0 C5.94 0 11.88 0 18 0 C18 2.64 18 5.28 18 8 C14.95017742 9.52491129 11.77877461 9.14361434 8.4375 9.125 C7.73947266 9.12886719 7.04144531 9.13273437 6.32226562 9.13671875 C1.12663994 9.12663994 1.12663994 9.12663994 0 8 C0 5.36 0 2.72 0 0 Z " fill="#DC821F" transform="translate(32,100)"/>
<path d="M0 0 C3.14581423 -0.02888514 6.29159469 -0.04675923 9.4375 -0.0625 C10.33533203 -0.07087891 11.23316406 -0.07925781 12.15820312 -0.08789062 C13.01220703 -0.09111328 13.86621094 -0.09433594 14.74609375 -0.09765625 C15.93223267 -0.10551147 15.93223267 -0.10551147 17.14233398 -0.11352539 C19 0 19 0 20 1 C20.07179964 2.51928038 20.08392007 4.04167482 20.0625 5.5625 C20.05347656 6.38878906 20.04445313 7.21507813 20.03515625 8.06640625 C20.02355469 8.70449219 20.01195313 9.34257813 20 10 C17.69 10 15.38 10 13 10 C12.22389502 12.99354776 11.60855027 15.95724864 11 19 C17.27 19 23.54 19 30 19 C30 19.33 30 19.66 30 20 C23.4 20 16.8 20 10 20 C10 22.64 10 25.28 10 28 C9.67 28 9.34 28 9 28 C8.67 25.69 8.34 23.38 8 21 C5.36 20.67 2.72 20.34 0 20 C0.33 19.34 0.66 18.68 1 18 C3.97 18.33 6.94 18.66 10 19 C9.98839844 18.33613281 9.97679687 17.67226562 9.96484375 16.98828125 C9.87521968 8.21792619 9.87521968 8.21792619 11 4 C11.33 4.99 11.66 5.98 12 7 C13.65 7 15.3 7 17 7 C16.67 6.01 16.34 5.02 16 4 C13.69 3.67 11.38 3.34 9 3 C8.67 3.66 8.34 4.32 8 5 C7.34 5 6.68 5 6 5 C5.67 4.34 5.34 3.68 5 3 C2.47266765 2.34444881 2.47266765 2.34444881 0 2 C0 1.34 0 0.68 0 0 Z " fill="#F2D290" transform="translate(50,100)"/>
<path d="M0 0 C1.48831242 0.00667405 2.97660807 0.01863442 4.46484375 0.03515625 C5.22345703 0.03966797 5.98207031 0.04417969 6.76367188 0.04882812 C8.64326246 0.06064945 10.52281274 0.07858547 12.40234375 0.09765625 C12.58984375 3.47265625 12.58984375 3.47265625 12.40234375 7.09765625 C8.66555945 9.58884578 6.65782556 9.30417885 2.21484375 9.22265625 C0.94253906 9.20460937 -0.32976563 9.1865625 -1.640625 9.16796875 C-3.10435547 9.13316406 -3.10435547 9.13316406 -4.59765625 9.09765625 C-4.6953125 2.9453125 -4.6953125 2.9453125 -4.59765625 1.09765625 C-3.59765625 0.09765625 -3.59765625 0.09765625 0 0 Z " fill="#DB8125" transform="translate(55.59765625,219.90234375)"/>
<path d="M0 0 C6.27 0 12.54 0 19 0 C18.67 2.64 18.34 5.28 18 8 C15.18780295 8.19384179 12.37545804 8.38036603 9.5625 8.5625 C8.35883789 8.64661133 8.35883789 8.64661133 7.13085938 8.73242188 C5.08937889 8.8616295 3.04453631 8.9351273 1 9 C0.67 8.67 0.34 8.34 0 8 C0 5.36 0 2.72 0 0 Z " fill="#DF8224" transform="translate(70,210)"/>
<path d="M0 0 C1.65 0 3.3 0 5 0 C5 8.91 5 17.82 5 27 C3.35 27 1.7 27 0 27 C0.01160156 25.87722656 0.02320312 24.75445312 0.03515625 23.59765625 C0.16156988 14.02978176 0.16156988 14.02978176 -0.5625 4.5 C-0.706875 3.345 -0.85125 2.19 -1 1 C-0.67 0.67 -0.34 0.34 0 0 Z " fill="#DF831D" transform="translate(83,132)"/>
<path d="M0 0 C1.99954746 -0.04254356 4.00041636 -0.04080783 6 0 C7 1 7 1 7.09765625 4.59765625 C7.0909822 6.08596867 7.07902183 7.57426432 7.0625 9.0625 C7.05798828 9.82111328 7.05347656 10.57972656 7.04882812 11.36132812 C7.0370068 13.24091871 7.01907078 15.12046899 7 17 C4.6875 17.625 4.6875 17.625 2 18 C1.01 17.34 0.02 16.68 -1 16 C-1.328125 12.8125 -1.328125 12.8125 -1.25 9 C-1.23453125 7.741875 -1.2190625 6.48375 -1.203125 5.1875 C-1 2 -1 2 0 0 Z " fill="#DB8322" transform="translate(172,201)"/>
<path d="M0 0 C15.84 0.495 15.84 0.495 32 1 C32 1.33 32 1.66 32 2 C22.43 2.33 12.86 2.66 3 3 C3 4.65 3 6.3 3 8 C15.87 8.495 15.87 8.495 29 9 C29 8.01 29 7.02 29 6 C30.32 6 31.64 6 33 6 C33.495 6.99 33.495 6.99 34 8 C34.99 8.33 35.98 8.66 37 9 C36.505 5.04 36.505 5.04 36 1 C36.99 1 37.98 1 39 1 C39 3.97 39 6.94 39 10 C26.13 10 13.26 10 0 10 C0 6.7 0 3.4 0 0 Z " fill="#E2AB6D" transform="translate(230,70)"/>
<path d="M0 0 C1.98 0 3.96 0 6 0 C6 5.61 6 11.22 6 17 C3.69 17 1.38 17 -1 17 C-1.33 16.67 -1.66 16.34 -2 16 C-1.93541607 14.0595464 -1.79803668 12.12130184 -1.625 10.1875 C-1.53476563 9.12917969 -1.44453125 8.07085937 -1.3515625 6.98046875 C-1.06561783 4.55629337 -0.66872284 2.34052993 0 0 Z " fill="#DA8323" transform="translate(153,201)"/>
<path d="M0 0 C0.33 0 0.66 0 1 0 C1 1.65 1 3.3 1 5 C-1.64 5 -4.28 5 -7 5 C-7 8.63 -7 12.26 -7 16 C-10.3 16 -13.6 16 -17 16 C-17 22.6 -17 29.2 -17 36 C-20.3 36 -23.6 36 -27 36 C-27 29.4 -27 22.8 -27 16 C-26.67 16 -26.34 16 -26 16 C-26 22.27 -26 28.54 -26 35 C-23.69 34.34 -21.38 33.68 -19 33 C-18.90912109 31.06833984 -18.90912109 31.06833984 -18.81640625 29.09765625 C-18.73201753 27.41925841 -18.6473687 25.74087364 -18.5625 24.0625 C-18.50352539 22.78729492 -18.50352539 22.78729492 -18.44335938 21.48632812 C-18.40146484 20.67744141 -18.35957031 19.86855469 -18.31640625 19.03515625 C-18.27974854 18.2862915 -18.24309082 17.53742676 -18.20532227 16.76586914 C-18 15 -18 15 -17 14 C-14.32941149 13.85884839 -11.67567762 13.95752893 -9 14 C-9.185625 13.13375 -9.37125 12.2675 -9.5625 11.375 C-10.00667933 7.94847372 -9.71954492 5.35787629 -9 2 C-6.03 2.33 -3.06 2.66 0 3 C0 2.01 0 1.02 0 0 Z " fill="#FDEDA2" transform="translate(187,184)"/>
<path d="M0 0 C0.78375 0.04125 1.5675 0.0825 2.375 0.125 C2.47977512 5.91091511 2.36750545 11.41809366 1.375 17.125 C-0.29111905 17.167721 -1.95882885 17.16563832 -3.625 17.125 C-5.55841947 15.19158053 -4.79949133 11.75020879 -4.8125 9.1875 C-4.82667969 7.92035156 -4.84085938 6.65320313 -4.85546875 5.34765625 C-4.57147168 1.37651083 -4.08781941 0.19465807 0 0 Z " fill="#D98522" transform="translate(225.625,130.875)"/>
<path d="M0 0 C26.4 0 52.8 0 80 0 C79.67 0.66 79.34 1.32 79 2 C78.15332764 1.99777939 77.30665527 1.99555878 76.43432617 1.99327087 C68.43123737 1.97318267 60.42815711 1.95798249 52.42504883 1.94818783 C48.31118692 1.94298293 44.19734595 1.93592902 40.08349609 1.92456055 C36.10885412 1.91364628 32.13423222 1.90770515 28.15957642 1.90512276 C26.64783411 1.90328384 25.13609283 1.89969304 23.62435913 1.89426994 C12.77383911 1.8440569 12.77383911 1.8440569 2 3 C2 5.31 2 7.62 2 10 C1.34 10 0.68 10 0 10 C0 6.7 0 3.4 0 0 Z " fill="#D7AD81" transform="translate(70,90)"/>
<path d="M0 0 C0.33 0.66 0.66 1.32 1 2 C3.97 2 6.94 2 10 2 C10 5.3 10 8.6 10 12 C6.7 12 3.4 12 0 12 C0 9.03 0 6.06 0 3 C-1.32 2.67 -2.64 2.34 -4 2 C-2.68 2 -1.36 2 0 2 C0 1.34 0 0.68 0 0 Z " fill="#F5D28C" transform="translate(230,88)"/>
<path d="M0 0 C1.98 0 3.96 0 6 0 C6 2.97 6 5.94 6 9 C-19.74 9 -45.48 9 -72 9 C-71.67 8.34 -71.34 7.68 -71 7 C-46.25 7 -21.5 7 4 7 C3.04065919 3.16263678 2.76390737 2.40339772 0 0 Z " fill="#DEAD6D" transform="translate(224,81)"/>
<path d="M0 0 C3.3 0 6.6 0 10 0 C10 3.3 10 6.6 10 10 C6.7 10 3.4 10 0 10 C0 6.7 0 3.4 0 0 Z " fill="#F4CD89" transform="translate(220,100)"/>
<path d="M0 0 C3.3 0 6.6 0 10 0 C10 2.97 10 5.94 10 9 C6.7 9.33 3.4 9.66 0 10 C0 6.7 0 3.4 0 0 Z " fill="#C58A3C" transform="translate(140,190)"/>
<path d="M0 0 C3.63 0 7.26 0 11 0 C11 0.66 11 1.32 11 2 C8.36 2 5.72 2 3 2 C3 8.93 3 15.86 3 23 C3.99 23.33 4.98 23.66 6 24 C6.6875 26.0625 6.6875 26.0625 7 28 C3.09971775 30.60018816 -0.47434569 30.15085514 -5 30 C-5 29.67 -5 29.34 -5 29 C-3.35 29 -1.7 29 0 29 C0 19.43 0 9.86 0 0 Z " fill="#D5AD7A" transform="translate(59,190)"/>
<path d="M0 0 C6.42210386 -0.48468708 6.42210386 -0.48468708 8.9375 1.625 C10.25066255 4.56030453 10.21691118 6.81863606 10 10 C6.7 10 3.4 10 0 10 C0 6.7 0 3.4 0 0 Z " fill="#CA8A31" transform="translate(190,180)"/>
<path d="M0 0 C3.3 0 6.6 0 10 0 C10 2.97 10 5.94 10 9 C3.06640625 9.09765625 3.06640625 9.09765625 1 9 C0 8 0 8 -0.09765625 6.15234375 C-0.06510417 4.1015625 -0.03255208 2.05078125 0 0 Z " fill="#C78A34" transform="translate(50,110)"/>
<path d="M0 0 C3.3 0 6.6 0 10 0 C10.09765625 6.15234375 10.09765625 6.15234375 10 8 C9 9 9 9 6.93359375 9.09765625 C3.46679688 9.04882812 3.46679688 9.04882812 0 9 C0 6.03 0 3.06 0 0 Z " fill="#E1AA76" transform="translate(270,80)"/>
<path d="M0 0 C3.3 0 6.6 0 10 0 C9.67 2.97 9.34 5.94 9 9 C6.03 9 3.06 9 0 9 C0 6.03 0 3.06 0 0 Z " fill="#DC8226" transform="translate(90,200)"/>
<path d="M0 0 C6.15234375 -0.09765625 6.15234375 -0.09765625 8 0 C9 1 9 1 9.09765625 2.84765625 C9.04882812 5.92382812 9.04882812 5.92382812 9 9 C6.03 9 3.06 9 0 9 C0 6.03 0 3.06 0 0 Z " fill="#D4852A" transform="translate(210,150)"/>
<path d="M0 0 C2.64 0.33 5.28 0.66 8 1 C8 6.94 8 12.88 8 19 C5.03 19 2.06 19 -1 19 C-1.02683987 16.02077407 -1.04676037 13.04178705 -1.0625 10.0625 C-1.07087891 9.21236328 -1.07925781 8.36222656 -1.08789062 7.48632812 C-1.09111328 6.67744141 -1.09433594 5.86855469 -1.09765625 5.03515625 C-1.10289307 4.2862915 -1.10812988 3.53742676 -1.11352539 2.76586914 C-1 1 -1 1 0 0 Z M1 1 C-0.39156484 2.16277032 -0.39156484 2.16277032 -0.09765625 5.37890625 C-0.09098369 6.77347077 -0.07902532 8.16801743 -0.0625 9.5625 C-0.05798828 10.27341797 -0.05347656 10.98433594 -0.04882812 11.71679688 C-0.03700864 13.47790013 -0.01907263 15.23896036 0 17 C1.94603274 17.59070014 1.94603274 17.59070014 4 18 C5.93205899 16.06794101 5.44154433 12.64398339 5.625 10.0625 C5.76808594 8.16177734 5.76808594 8.16177734 5.9140625 6.22265625 C6.25022255 3.10803045 6.25022255 3.10803045 5 1 C3.68 1 2.36 1 1 1 Z " fill="#D5842C" transform="translate(62,191)"/>
<path d="M0 0 C2.97 0 5.94 0 9 0 C9 2.97 9 5.94 9 9 C2.25 9.125 2.25 9.125 0 8 C0 5.36 0 2.72 0 0 Z " fill="#C88835" transform="translate(230,120)"/>
<path d="M0 0 C2.97 0 5.94 0 9 0 C9 2.64 9 5.28 9 8 C6.04335481 9.4783226 3.25770263 9.06032783 0 9 C0 6.03 0 3.06 0 0 Z " fill="#CB8833" transform="translate(260,90)"/>
<path d="M0 0 C2.64 0 5.28 0 8 0 C9.4783226 2.95664519 9.06032783 5.74229737 9 9 C2.84765625 9.09765625 2.84765625 9.09765625 1 9 C0 8 0 8 -0.09765625 6.15234375 C-0.06510417 4.1015625 -0.03255208 2.05078125 0 0 Z " fill="#CD8830" transform="translate(180,190)"/>
<path d="M0 0 C2.64 0 5.28 0 8 0 C8 2.97 8 5.94 8 9 C5.36 9.33 2.72 9.66 0 10 C0 6.7 0 3.4 0 0 Z " fill="#CD882F" transform="translate(240,110)"/>
<path d="M0 0 C1.32 0 2.64 0 4 0 C4 3.3 4 6.6 4 10 C-2.6 10 -9.2 10 -16 10 C-12.96235611 6.96235611 -10.69975167 7.02455269 -6.4375 6.875 C-3 7 -3 7 0 8 C0 5.36 0 2.72 0 0 Z " fill="#E0AD6A" transform="translate(136,140)"/>
<path d="M0 0 C3.3 0 6.6 0 10 0 C10 2.97 10 5.94 10 9 C9.67 9 9.34 9 9 9 C9 6.36 9 3.72 9 1 C7.02 1.33 5.04 1.66 3 2 C3 7.28 3 12.56 3 18 C5.31 18.33 7.62 18.66 10 19 C10 19.33 10 19.66 10 20 C6.7 20 3.4 20 0 20 C0 13.4 0 6.8 0 0 Z " fill="#E3907C" transform="translate(150,160)"/>
<path d="M0 0 C0.99 0 1.98 0 3 0 C3.33 2.64 3.66 5.28 4 8 C9.61 8 15.22 8 21 8 C21 11.3 21 14.6 21 18 C20.67 18 20.34 18 20 18 C20 15.69 20 13.38 20 11 C18.72382812 11.01160156 17.44765625 11.02320312 16.1328125 11.03515625 C14.46354313 11.04453417 12.79427217 11.05363437 11.125 11.0625 C9.86236328 11.07506836 9.86236328 11.07506836 8.57421875 11.08789062 C7.76855469 11.09111328 6.96289062 11.09433594 6.1328125 11.09765625 C5.38918457 11.10289307 4.64555664 11.10812988 3.87939453 11.11352539 C2 11 2 11 0 10 C0 6.7 0 3.4 0 0 Z " fill="#DBB77F" transform="translate(29,100)"/>
<path d="M0 0 C5.94 0 11.88 0 18 0 C18 2.64 18 5.28 18 8 C14.95017742 9.52491129 11.77877461 9.14361434 8.4375 9.125 C7.73947266 9.12886719 7.04144531 9.13273437 6.32226562 9.13671875 C1.12663994 9.12663994 1.12663994 9.12663994 0 8 C0 5.36 0 2.72 0 0 Z M1 2 C1 3.98 1 5.96 1 8 C5.62 8 10.24 8 15 8 C15.33 6.02 15.66 4.04 16 2 C11.05 2 6.1 2 1 2 Z " fill="#CF8734" transform="translate(32,100)"/>
<path d="M0 0 C7.92 0 15.84 0 24 0 C24 0.99 24 1.98 24 3 C15.75 3 7.5 3 -1 3 C-0.67 2.01 -0.34 1.02 0 0 Z " fill="#F5A356" transform="translate(104,187)"/>
<path d="M0 0 C5.75 -0.125 5.75 -0.125 8 1 C9.66619446 1.0396713 11.33391013 1.04384447 13 1 C13.33 2.65 13.66 4.3 14 6 C11.03 5.67 8.06 5.34 5 5 C5 5.66 5 6.32 5 7 C3.68 6.67 2.36 6.34 1 6 C1 5.34 1 4.68 1 4 C0.34 4 -0.32 4 -1 4 C-0.67 2.68 -0.34 1.36 0 0 Z " fill="#F9F3B5" transform="translate(173,181)"/>
<path d="M0 0 C2.97 0 5.94 0 9 0 C9 2.97 9 5.94 9 9 C13.455 8.505 13.455 8.505 18 8 C18.33 5.69 18.66 3.38 19 1 C19.33 1 19.66 1 20 1 C20.1953125 7.0546875 20.1953125 7.0546875 20 9 C18 11 18 11 14.375 11.125 C13.26125 11.08375 12.1475 11.0425 11 11 C10.67 13.31 10.34 15.62 10 18 C9.67 18 9.34 18 9 18 C9 15.36 9 12.72 9 10 C5.7 10 2.4 10 -1 10 C1.76223278 7.23776722 4.20706617 7.42143709 8 7 C8 5.02 8 3.04 8 1 C5.36 1 2.72 1 0 1 C0 0.67 0 0.34 0 0 Z " fill="#F7E2B0" transform="translate(261,80)"/>
<path d="M0 0 C6.6 0 13.2 0 20 0 C20 3.3 20 6.6 20 10 C17.04196565 10.19421438 14.08379837 10.38066186 11.125 10.5625 C10.28324219 10.61857422 9.44148438 10.67464844 8.57421875 10.73242188 C7.76855469 10.78076172 6.96289062 10.82910156 6.1328125 10.87890625 C5.01737061 10.94960327 5.01737061 10.94960327 3.87939453 11.02172852 C2 11 2 11 0 10 C0 6.7 0 3.4 0 0 Z M1 2 C0.74969023 4.41619823 0.74969023 4.41619823 1 7 C4.68087353 9.45391569 7.44355588 9.22802759 11.6875 9.125 C12.38939453 9.11597656 13.09128906 9.10695312 13.81445312 9.09765625 C15.54311525 9.07413704 17.27160145 9.03826713 19 9 C19 6.36 19 3.72 19 1 C16.37493198 0.97309156 13.75013827 0.95320596 11.125 0.9375 C10.00544922 0.92493164 10.00544922 0.92493164 8.86328125 0.91210938 C4.80154422 0.79311916 4.80154422 0.79311916 1 2 Z " fill="#C58E42" transform="translate(60,120)"/>
<path d="M0 0 C3.3 0 6.6 0 10 0 C9.85982174 2.97953359 9.71313658 5.95849304 9.5625 8.9375 C9.52318359 9.78763672 9.48386719 10.63777344 9.44335938 11.51367188 C9.40146484 12.32255859 9.35957031 13.13144531 9.31640625 13.96484375 C9.26141968 15.08814087 9.26141968 15.08814087 9.20532227 16.23413086 C9 18 9 18 8 19 C5.36 19 2.72 19 0 19 C0 12.73 0 6.46 0 0 Z M1 3 C0.7178518 6.32259247 0.7178518 6.32259247 0.8125 10.0625 C0.81894531 11.33222656 0.82539063 12.60195312 0.83203125 13.91015625 C0.64811502 16.87067553 0.64811502 16.87067553 2 18 C3.66617115 18.04063832 5.33388095 18.042721 7 18 C7.99250545 12.29309366 8.10477512 6.78591511 8 1 C4.04542152 0.65176193 4.04542152 0.65176193 1 3 Z " fill="#C88936" transform="translate(220,130)"/>
<path d="M0 0 C2.64 0 5.28 0 8 0 C8.02689216 1.47906892 8.04634621 2.95827483 8.0625 4.4375 C8.07410156 5.26121094 8.08570312 6.08492187 8.09765625 6.93359375 C8 9 8 9 7 10 C4.66702567 10.04092937 2.33294775 10.04241723 0 10 C0.33 9.34 0.66 8.68 1 8 C1.99 8 2.98 8 4 8 C2.6910428 4.87802522 2.6910428 4.87802522 0 3 C0 2.01 0 1.02 0 0 Z " fill="#F5A358" transform="translate(62,210)"/>
<path d="M0 0 C0.33 0 0.66 0 1 0 C1 6.6 1 13.2 1 20 C-2.3 20 -5.6 20 -9 20 C-8.505 18.515 -8.505 18.515 -8 17 C-5.69 17 -3.38 17 -1 17 C-1 12.38 -1 7.76 -1 3 C-1.66 2.67 -2.32 2.34 -3 2 C-2.01 2 -1.02 2 0 2 C0 1.34 0 0.68 0 0 Z " fill="#FEE99D" transform="translate(219,130)"/>
<path d="M0 0 C15.84 0.495 15.84 0.495 32 1 C32 1.33 32 1.66 32 2 C22.43 2.33 12.86 2.66 3 3 C2.67 5.31 2.34 7.62 2 10 C1.34 10 0.68 10 0 10 C0 6.7 0 3.4 0 0 Z " fill="#DBAB7D" transform="translate(230,70)"/>
<path d="M0 0 C2.97 0 5.94 0 9 0 C9.02697137 2.60423592 9.04682489 5.20819244 9.0625 7.8125 C9.07087891 8.55048828 9.07925781 9.28847656 9.08789062 10.04882812 C9.10259828 13.29922068 9.03531702 15.89404895 8 19 C5.36 19 2.72 19 0 19 C0 12.73 0 6.46 0 0 Z M1 1 C1 6.61 1 12.22 1 18 C2.65 17.67 4.3 17.34 6 17 C8.42130331 13.36804504 8.21022785 11.61650652 8.125 7.3125 C8.10695312 6.13300781 8.08890625 4.95351562 8.0703125 3.73828125 C8.04710937 2.83464844 8.02390625 1.93101562 8 1 C5.69 1 3.38 1 1 1 Z " fill="#CA8934" transform="translate(200,160)"/>
<path d="M0 0 C0.33 0 0.66 0 1 0 C1.19491452 1.45736087 1.38069358 2.91594593 1.5625 4.375 C1.66691406 5.18710938 1.77132812 5.99921875 1.87890625 6.8359375 C2 9 2 9 1 11 C-8.9 11 -18.8 11 -29 11 C-29 10.67 -29 10.34 -29 10 C-20.09 10 -11.18 10 -2 10 C-1.67 7.03 -1.34 4.06 -1 1 C-0.67 0.67 -0.34 0.34 0 0 Z " fill="#C9924C" transform="translate(129,189)"/>
<path d="M0 0 C0.33 0 0.66 0 1 0 C1 6.27 1 12.54 1 19 C3.31 18.34 5.62 17.68 8 17 C8.33 11.39 8.66 5.78 9 0 C9.33 0 9.66 0 10 0 C10 6.6 10 13.2 10 20 C6.7 20 3.4 20 0 20 C0 13.4 0 6.8 0 0 Z " fill="#FEE596" transform="translate(160,200)"/>
<path d="M0 0 C0.33 0 0.66 0 1 0 C1 2.97 1 5.94 1 9 C-2.82810821 10.27603607 -6.23475107 9.86283987 -10.1875 9.5625 C-10.93708984 9.51029297 -11.68667969 9.45808594 -12.45898438 9.40429688 C-14.30637082 9.27486216 -16.15324371 9.13813482 -18 9 C-17.67 8.34 -17.34 7.68 -17 7 C-11.72 7 -6.44 7 -1 7 C-0.67 4.69 -0.34 2.38 0 0 Z " fill="#C88D46" transform="translate(89,211)"/>
<path d="M0 0 C6.6 0 13.2 0 20 0 C20 0.66 20 1.32 20 2 C18.58847656 2.07347656 18.58847656 2.07347656 17.1484375 2.1484375 C15.28058594 2.26058594 15.28058594 2.26058594 13.375 2.375 C12.14523438 2.44460937 10.91546875 2.51421875 9.6484375 2.5859375 C6.16346145 2.9814487 3.26950399 3.76261849 0 5 C0 3.35 0 1.7 0 0 Z " fill="#E1AD69" transform="translate(200,100)"/>
<path d="M0 0 C1.65 0 3.3 0 5 0 C4.01 0.33 3.02 0.66 2 1 C1.67 3.97 1.34 6.94 1 10 C-1.64 10.33 -4.28 10.66 -7 11 C-7.33 16.28 -7.66 21.56 -8 27 C-8.33 27 -8.66 27 -9 27 C-9 20.73 -9 14.46 -9 8 C-6.03 8.33 -3.06 8.66 0 9 C0 6.03 0 3.06 0 0 Z " fill="#E0C795" transform="translate(239,120)"/>
<path d="M0 0 C0.66 0 1.32 0 2 0 C2 0.99 2 1.98 2 3 C2.99 3.33 3.98 3.66 5 4 C5.6875 6.0625 5.6875 6.0625 6 8 C2.09971775 10.60018816 -1.47434569 10.15085514 -6 10 C-6 9.67 -6 9.34 -6 9 C-4.35 9 -2.7 9 -1 9 C-0.67 6.03 -0.34 3.06 0 0 Z " fill="#E5A76F" transform="translate(60,210)"/>
<path d="M0 0 C1.65 0.99 3.3 1.98 5 3 C4.67 5.97 4.34 8.94 4 12 C2.68 12 1.36 12 0 12 C0 8.04 0 4.08 0 0 Z " fill="#E48114" transform="translate(223,135)"/>
<path d="M0 0 C9.9 0 19.8 0 30 0 C30 0.33 30 0.66 30 1 C16.635 1.495 16.635 1.495 3 2 C2.67 3.98 2.34 5.96 2 8 C1.34 8 0.68 8 0 8 C0 5.36 0 2.72 0 0 Z " fill="#FFE7A7" transform="translate(230,80)"/>
<path d="M0 0 C2.31 0 4.62 0 7 0 C7 2.31 7 4.62 7 7 C5.35 7 3.7 7 2 7 C0.5393715 4.35261084 0 3.10551666 0 0 Z " fill="#E3811C" transform="translate(161,221)"/>
<path d="M0 0 C1.98 0 3.96 0 6 0 C5.34 0.53625 4.68 1.0725 4 1.625 C1.68975201 3.89958592 1.68975201 3.89958592 1.75 7.25 C1.87375 8.61125 1.87375 8.61125 2 10 C0.35 10.33 -1.3 10.66 -3 11 C-3.33 11.99 -3.66 12.98 -4 14 C-4 13.34 -4 12.68 -4 12 C-5.65 12 -7.3 12 -9 12 C-9.33 11.34 -9.66 10.68 -10 10 C-6.7 10 -3.4 10 0 10 C0 6.7 0 3.4 0 0 Z " fill="#F4D08B" transform="translate(100,120)"/>
<path d="M0 0 C0.99 0 1.98 0 3 0 C3 3.3 3 6.6 3 10 C-3.6 10 -10.2 10 -17 10 C-17 9.67 -17 9.34 -17 9 C-15.41058594 8.90912109 -15.41058594 8.90912109 -13.7890625 8.81640625 C-12.40102779 8.73199873 -11.01300768 8.64735083 -9.625 8.5625 C-8.92632812 8.52318359 -8.22765625 8.48386719 -7.5078125 8.44335938 C-3.62639508 8.25719866 -3.62639508 8.25719866 0 7 C0 4.69 0 2.38 0 0 Z " fill="#DEAD6C" transform="translate(177,120)"/>
<path d="M0 0 C2.33944736 0.28730055 4.6739143 0.61936779 7 1 C6.67 2.65 6.34 4.3 6 6 C4.0085944 6.38133299 2.00720923 6.71325582 0 7 C-1 6 -1 6 -1.125 3.5 C-1 1 -1 1 0 0 Z " fill="#FACC83" transform="translate(232,92)"/>
<path d="M0 0 C0 1.65 0 3.3 0 5 C-4.08443115 6.53166168 -7.79455657 5.63081652 -12 5 C-11.67 4.01 -11.34 3.02 -11 2 C-9.35 2.33 -7.7 2.66 -6 3 C-6 2.34 -6 1.68 -6 1 C-3.92446352 0.4465236 -2.15634036 0 0 0 Z " fill="#E78016" transform="translate(66,221)"/>
<path d="M0 0 C2.05078125 0.03255208 4.1015625 0.06510417 6.15234375 0.09765625 C6.15234375 0.42765625 6.15234375 0.75765625 6.15234375 1.09765625 C3.84234375 1.09765625 1.53234375 1.09765625 -0.84765625 1.09765625 C-0.51765625 3.07765625 -0.18765625 5.05765625 0.15234375 7.09765625 C4.44234375 7.09765625 8.73234375 7.09765625 13.15234375 7.09765625 C11.15234375 9.09765625 11.15234375 9.09765625 7.89453125 9.29296875 C6.61835937 9.26976562 5.3421875 9.2465625 4.02734375 9.22265625 C2.10535156 9.19558594 2.10535156 9.19558594 0.14453125 9.16796875 C-1.33660156 9.13316406 -1.33660156 9.13316406 -2.84765625 9.09765625 C-2.9453125 2.9453125 -2.9453125 2.9453125 -2.84765625 1.09765625 C-1.84765625 0.09765625 -1.84765625 0.09765625 0 0 Z " fill="#CA873A" transform="translate(53.84765625,219.90234375)"/>
<path d="M0 0 C3.3 0 6.6 0 10 0 C10 0.33 10 0.66 10 1 C7.69 1 5.38 1 3 1 C3.020625 2.11375 3.04125 3.2275 3.0625 4.375 C3 8 3 8 2 10 C-0.5625 10.625 -0.5625 10.625 -3 11 C-3.33 10.34 -3.66 9.68 -4 9 C-2.68 9 -1.36 9 0 9 C0 6.03 0 3.06 0 0 Z " fill="#D5B77D" transform="translate(248,110)"/>
<path d="M0 0 C3.63 0 7.26 0 11 0 C8.64046906 2.35953094 7.22104383 2.49141413 4 3 C3.34 4.98 2.68 6.96 2 9 C1.34 9 0.68 9 0 9 C0 6.03 0 3.06 0 0 Z " fill="#F1D189" transform="translate(130,110)"/>
<path d="M0 0 C1.32 0 2.64 0 4 0 C4.02689216 1.47906892 4.04634621 2.95827483 4.0625 4.4375 C4.07410156 5.26121094 4.08570313 6.08492187 4.09765625 6.93359375 C4 9 4 9 3 10 C1.2984375 10.2165625 1.2984375 10.2165625 -0.4375 10.4375 C-4.04058997 10.64847551 -4.04058997 10.64847551 -6 13 C-6 11.35 -6 9.7 -6 8 C-1.545 7.505 -1.545 7.505 3 7 C3 5.02 3 3.04 3 1 C2.01 0.67 1.02 0.34 0 0 Z " fill="#DFB380" transform="translate(136,180)"/>
<path d="M0 0 C1.66611905 -0.042721 3.33382885 -0.04063832 5 0 C6 1 6 1 6.0625 3.5625 C6.041875 4.366875 6.02125 5.17125 6 6 C3.69 6 1.38 6 -1 6 C-0.67 4.02 -0.34 2.04 0 0 Z " fill="#D6852B" transform="translate(193,181)"/>
<path d="M0 0 C1.2065625 0.0309375 1.2065625 0.0309375 2.4375 0.0625 C2.1075 2.3725 1.7775 4.6825 1.4375 7.0625 C-0.2125 7.0625 -1.8625 7.0625 -3.5625 7.0625 C-3.60504356 5.06295254 -3.60330783 3.06208364 -3.5625 1.0625 C-2.5625 0.0625 -2.5625 0.0625 0 0 Z " fill="#DF8220" transform="translate(235.5625,120.9375)"/>
<path d="M0 0 C2.31 0 4.62 0 7 0 C6.67 1.65 6.34 3.3 6 5 C5.34 5 4.68 5 4 5 C3.67 5.66 3.34 6.32 3 7 C2.01 6.34 1.02 5.68 0 5 C-0.1875 2.375 -0.1875 2.375 0 0 Z " fill="#DB831F" transform="translate(142,192)"/>
<path d="M0 0 C0.7734375 0.144375 1.546875 0.28875 2.34375 0.4375 C8.32823915 1.50404262 13.92337435 2.23371637 20 2 C20 2.66 20 3.32 20 4 C13.4 4 6.8 4 0 4 C0 2.68 0 1.36 0 0 Z " fill="#E0AD6D" transform="translate(200,106)"/>
<path d="M0 0 C1.98 0.99 1.98 0.99 4 2 C3.01 3.485 3.01 3.485 2 5 C1.63250611 7.61289494 1.63250611 7.61289494 1.5859375 10.54296875 C1.54726562 11.61611328 1.50859375 12.68925781 1.46875 13.79492188 C1.4378125 14.91447266 1.406875 16.03402344 1.375 17.1875 C1.33632812 18.31865234 1.29765625 19.44980469 1.2578125 20.61523438 C1.16347467 23.4099925 1.07788348 26.20474278 1 29 C0.67 29 0.34 29 0 29 C0 19.43 0 9.86 0 0 Z " fill="#FEC472" transform="translate(90,131)"/>
<path d="M0 0 C6.27 0 12.54 0 19 0 C18.34 0.66 17.68 1.32 17 2 C13.7421875 1.9765625 13.7421875 1.9765625 9.875 1.625 C8.59367188 1.51414062 7.31234375 1.40328125 5.9921875 1.2890625 C5.00476563 1.19367188 4.01734375 1.09828125 3 1 C3 1.66 3 2.32 3 3 C2.34 3 1.68 3 1 3 C1 5.31 1 7.62 1 10 C0.67 10 0.34 10 0 10 C0 6.7 0 3.4 0 0 Z " fill="#FEE5A3" transform="translate(180,120)"/>
<path d="M0 0 C3.3 0 6.6 0 10 0 C10 1.98 10 3.96 10 6 C9.01 6 8.02 6 7 6 C6 5 5 4 4 3 C1.89667109 2.28552357 1.89667109 2.28552357 0 2 C0 1.34 0 0.68 0 0 Z " fill="#F2D189" transform="translate(220,100)"/>
<path d="M0 0 C6.6 0 13.2 0 20 0 C20 0.33 20 0.66 20 1 C14.06 1.33 8.12 1.66 2 2 C1.67 4.64 1.34 7.28 1 10 C0.67 10 0.34 10 0 10 C0 6.7 0 3.4 0 0 Z " fill="#FEE4A3" transform="translate(140,140)"/>
<path d="M0 0 C0 2.31 0 4.62 0 7 C-1.65 7 -3.3 7 -5 7 C-5.33 5.35 -5.66 3.7 -6 2 C-1.125 0 -1.125 0 0 0 Z " fill="#DD8221" transform="translate(59,111)"/>
<path d="M0 0 C1.32 0.33 2.64 0.66 4 1 C3.34 3.97 2.68 6.94 2 10 C0.72125 10.12375 -0.5575 10.2475 -1.875 10.375 C-5.34790936 10.69042399 -5.34790936 10.69042399 -8 13 C-8 11.35 -8 9.7 -8 8 C-5.03 8.33 -2.06 8.66 1 9 C0.67 6.03 0.34 3.06 0 0 Z " fill="#D1B376" transform="translate(188,190)"/>
<path d="M0 0 C3.3 0 6.6 0 10 0 C10 0.66 10 1.32 10 2 C7.36 2.66 4.72 3.32 2 4 C2 5.65 2 7.3 2 9 C1.34 9 0.68 9 0 9 C0 6.03 0 3.06 0 0 Z " fill="#F2D189" transform="translate(250,90)"/>
<path d="M0 0 C0.33 0.99 0.66 1.98 1 3 C0.01 4.485 0.01 4.485 -1 6 C-4.5 6.125 -4.5 6.125 -8 6 C-8.99 6.495 -8.99 6.495 -10 7 C-9.67 5.35 -9.34 3.7 -9 2 C-6.36 2.33 -3.72 2.66 -1 3 C-0.67 2.01 -0.34 1.02 0 0 Z " fill="#D5B076" transform="translate(180,215)"/>
<path d="M0 0 C0.66 0 1.32 0 2 0 C2 1.98 2 3.96 2 6 C-3.94 6 -9.88 6 -16 6 C-15.67 5.34 -15.34 4.68 -15 4 C-10.38 4 -5.76 4 -1 4 C-0.67 2.68 -0.34 1.36 0 0 Z " fill="#DFAC6E" transform="translate(198,114)"/>
<path d="M0 0 C2.31 0 4.62 0 7 0 C7 1.32 7 2.64 7 4 C5.02 4.33 3.04 4.66 1 5 C0.67 3.35 0.34 1.7 0 0 Z " fill="#E2801D" transform="translate(261,93)"/>
<path d="M0 0 C1.98 0 3.96 0 6 0 C6 3.63 6 7.26 6 11 C5.34 11 4.68 11 4 11 C3.67 7.7 3.34 4.4 3 1 C2.01 1.33 1.02 1.66 0 2 C0 1.34 0 0.68 0 0 Z " fill="#D78526" transform="translate(153,201)"/>
<path d="M0 0 C3.3 0 6.6 0 10 0 C10 0.33 10 0.66 10 1 C7.36 1.33 4.72 1.66 2 2 C2 4.64 2 7.28 2 10 C1.34 10 0.68 10 0 10 C0 6.7 0 3.4 0 0 Z " fill="#FEC471" transform="translate(70,190)"/>
<path d="M0 0 C0.33 0 0.66 0 1 0 C1 4.29 1 8.58 1 13 C0.01 13 -0.98 13 -2 13 C-1.85966889 11.02043559 -1.7125877 9.04134859 -1.5625 7.0625 C-1.48128906 5.96035156 -1.40007812 4.85820312 -1.31640625 3.72265625 C-1 1 -1 1 0 0 Z " fill="#E68113" transform="translate(155,203)"/>
<path d="M0 0 C2.4375 0.375 2.4375 0.375 5 1 C5.33 1.66 5.66 2.32 6 3 C5.01 4.485 5.01 4.485 4 6 C2.68 6 1.36 6 0 6 C0 4.02 0 2.04 0 0 Z " fill="#FCC77E" transform="translate(220,102)"/>
<path d="M0 0 C3.3 0 6.6 0 10 0 C10 0.33 10 0.66 10 1 C7.69 1.33 5.38 1.66 3 2 C2.67 4.64 2.34 7.28 2 10 C1.34 10 0.68 10 0 10 C0 6.7 0 3.4 0 0 Z " fill="#FFDFB5" transform="translate(170,180)"/>
<path d="M0 0 C0.33 0 0.66 0 1 0 C1.02698422 2.43757413 1.04683099 4.87484915 1.0625 7.3125 C1.07087891 8.00279297 1.07925781 8.69308594 1.08789062 9.40429688 C1.10307906 12.5483025 1.00193327 14.99420019 0 18 C-1.98 18 -3.96 18 -6 18 C-5.195625 17.443125 -4.39125 16.88625 -3.5625 16.3125 C0.24813204 12.63104192 -0.24794899 7.65951448 -0.04296875 2.66796875 C-0.02878906 1.78753906 -0.01460937 0.90710938 0 0 Z " fill="#D4852F" transform="translate(208,161)"/>
<path d="M0 0 C0.33 0 0.66 0 1 0 C1.33 2.31 1.66 4.62 2 7 C5.96 7.99 5.96 7.99 10 9 C10 9.33 10 9.66 10 10 C6.7 10 3.4 10 0 10 C0 6.7 0 3.4 0 0 Z " fill="#FEE59B" transform="translate(150,190)"/>
<path d="M0 0 C0.33 1.32 0.66 2.64 1 4 C2.98 3.67 4.96 3.34 7 3 C7 3.66 7 4.32 7 5 C7.99 5.33 8.98 5.66 10 6 C6.37 6.33 2.74 6.66 -1 7 C-0.67 4.69 -0.34 2.38 0 0 Z " fill="#FDE39B" transform="translate(140,184)"/>
<path d="M0 0 C1.32 0.33 2.64 0.66 4 1 C3.67 3.64 3.34 6.28 3 9 C0.03 9 -2.94 9 -6 9 C-6 8.67 -6 8.34 -6 8 C-3.36 8 -0.72 8 2 8 C1.34 5.36 0.68 2.72 0 0 Z " fill="#CB8639" transform="translate(96,200)"/>
<path d="M0 0 C1.32 0.66 2.64 1.32 4 2 C4 3.32 4 4.64 4 6 C2.68 6 1.36 6 0 6 C-0.38218767 4.34385343 -0.71395102 2.67542976 -1 1 C-0.67 0.67 -0.34 0.34 0 0 Z " fill="#E3811C" transform="translate(254,101)"/>
<path d="M0 0 C1.65 0 3.3 0 5 0 C5 1.32 5 2.64 5 4 C3.35 4 1.7 4 0 4 C0 2.68 0 1.36 0 0 Z " fill="#F7A45E" transform="translate(272,83)"/>
<path d="M0 0 C0.33 0 0.66 0 1 0 C1 1.98 1 3.96 1 6 C-2.3 6 -5.6 6 -9 6 C-8.67 5.01 -8.34 4.02 -8 3 C-7.67 3.33 -7.34 3.66 -7 4 C-5.33382885 4.04063832 -3.66611905 4.042721 -2 4 C-1.34 2.68 -0.68 1.36 0 0 Z " fill="#B88D46" transform="translate(199,184)"/>
<path d="M0 0 C0.99 0 1.98 0 3 0 C3 1.65 3 3.3 3 5 C1.35 5 -0.3 5 -2 5 C-1.34 3.35 -0.68 1.7 0 0 Z " fill="#E4801E" transform="translate(244,112)"/>
<path d="M0 0 C2.31 0 4.62 0 7 0 C6.67 0.99 6.34 1.98 6 3 C4.68 2.67 3.36 2.34 2 2 C1.67 3.32 1.34 4.64 1 6 C0.67 4.02 0.34 2.04 0 0 Z " fill="#D68528" transform="translate(161,221)"/>
<path d="M0 0 C1.32 0.99 2.64 1.98 4 3 C0.91111478 5.05925681 0.29064073 5.2390374 -3.1875 5.125 C-5.0746875 5.063125 -5.0746875 5.063125 -7 5 C-7 4.67 -7 4.34 -7 4 C-5.35 4 -3.7 4 -2 4 C-1.34 2.68 -0.68 1.36 0 0 Z " fill="#F3C797" transform="translate(61,215)"/>
<path d="M0 0 C1.98 0 3.96 0 6 0 C6.33 1.65 6.66 3.3 7 5 C6.67 4.34 6.34 3.68 6 3 C5.34 3 4.68 3 4 3 C3.67 3.66 3.34 4.32 3 5 C1.5 3.625 1.5 3.625 0 2 C0 1.34 0 0.68 0 0 Z " fill="#F6A964" transform="translate(62,211)"/>
<path d="M0 0 C1.32 0.33 2.64 0.66 4 1 C4 2.32 4 3.64 4 5 C2.68 5 1.36 5 0 5 C0 3.35 0 1.7 0 0 Z " fill="#E67F18" transform="translate(183,193)"/>
<path d="M0 0 C0.66 0.33 1.32 0.66 2 1 C2 2.65 2 4.3 2 6 C2.99 6.33 3.98 6.66 5 7 C3.35 7.33 1.7 7.66 0 8 C-1.09658936 4.71023192 -0.79953138 3.28696233 0 0 Z " fill="#D48226" transform="translate(252,101)"/>
<path d="M0 0 C1.32 0 2.64 0 4 0 C4 1.32 4 2.64 4 4 C2.35 3.67 0.7 3.34 -1 3 C-0.67 2.01 -0.34 1.02 0 0 Z " fill="#E6801B" transform="translate(194,183)"/>
<path d="M0 0 C1.32 0 2.64 0 4 0 C4 0.66 4 1.32 4 2 C5.65 2 7.3 2 9 2 C9 2.33 9 2.66 9 3 C5.7 3 2.4 3 -1 3 C-0.67 2.01 -0.34 1.02 0 0 Z " fill="#FDE695" transform="translate(211,147)"/>
<path d="M0 0 C1.98 0.495 1.98 0.495 4 1 C4 1.99 4 2.98 4 4 C2.35 3.67 0.7 3.34 -1 3 C-0.67 2.01 -0.34 1.02 0 0 Z " fill="#EEF8B8" transform="translate(183,183)"/>
</svg>
